<svg width="26" height="21" viewBox="0 0 26 21" fill="none" xmlns="http://www.w3.org/2000/svg">
<path d="M25.6657 2.75089C24.7233 3.16229 23.7095 3.44054 22.6463 3.5648C23.7318 2.92456 24.5649 1.91151 24.9581 0.702422C23.9423 1.29558 22.8168 1.72589 21.6199 1.95782C20.661 0.952499 19.2947 0.324219 17.7819 0.324219C14.8792 0.324219 12.525 2.64168 12.525 5.49904C12.525 5.90464 12.5717 6.29944 12.6619 6.67842C8.293 6.46269 4.41928 4.40264 1.82635 1.27088C1.37394 2.03501 1.11441 2.92456 1.11441 3.87277C1.11441 5.66769 2.04314 7.25228 3.45291 8.18004C2.5916 8.15341 1.78048 7.9207 1.07207 7.53208C1.07167 7.55407 1.07167 7.57607 1.07167 7.59768C1.07167 10.105 2.88445 12.1963 5.28882 12.6714C4.84817 12.7903 4.38282 12.8532 3.90414 12.8532C3.56464 12.8532 3.23572 12.8211 2.91503 12.7609C3.58385 14.8163 5.52483 16.3126 7.82569 16.3546C6.02624 17.7428 3.75987 18.5698 1.29631 18.5698C0.872912 18.5698 0.453432 18.5455 0.0429688 18.4973C2.36814 19.9661 5.132 20.8224 8.10051 20.8224C17.7697 20.8224 23.0575 12.9373 23.0575 6.09838C23.0575 5.87416 23.0524 5.65071 23.0422 5.42919C24.0702 4.6998 24.9613 3.78864 25.6657 2.75089Z" fill="#F1F2F2"/>
</svg>
