<svg width="500" height="502" viewBox="0 0 500 502" fill="none" xmlns="http://www.w3.org/2000/svg">
<path d="M0 400.538V209.399L362.925 0V191.138L0 400.538ZM1.21534 210.115V398.426L361.7 190.432V2.11177L1.21534 210.115Z" fill="#2F80ED"/>
<path d="M361.985 152.272L0.320312 361.045L0.929803 362.099L362.594 153.327L361.985 152.272Z" fill="#2F80ED"/>
<path d="M362.011 114.367L0.298828 323.057L0.908079 324.112L362.62 115.421L362.011 114.367Z" fill="#2F80ED"/>
<path d="M362.025 76.4442L0.28418 285.084L0.894902 286.142L362.636 77.5018L362.025 76.4442Z" fill="#2F80ED"/>
<path d="M362.025 38.5036L0.28418 247.143L0.894902 248.201L362.636 39.5612L362.025 38.5036Z" fill="#2F80ED"/>
<path d="M0.773642 210.361H0.608355C0.655348 209.957 0.546392 209.551 0.303711 209.225L362.007 0.528076L362.616 1.58396L0.773642 210.361Z" fill="#2F80ED"/>
<path d="M330.042 20.0261H328.823V209.755H330.042V20.0261Z" fill="#2F80ED"/>
<path d="M297.16 38.9998H295.941V228.729H297.16V38.9998Z" fill="#2F80ED"/>
<path d="M264.28 57.9702H263.062V247.7H264.28V57.9702Z" fill="#2F80ED"/>
<path d="M231.393 76.9469H230.175V266.67H231.393V76.9469Z" fill="#2F80ED"/>
<path d="M198.514 95.914H197.295V285.643H198.514V95.914Z" fill="#2F80ED"/>
<path d="M165.625 114.891H164.406V304.617H165.625V114.891Z" fill="#2F80ED"/>
<path d="M132.749 133.858H131.53V323.594H132.749V133.858Z" fill="#2F80ED"/>
<path d="M99.8631 152.835H98.6445V342.564H99.8631V152.835Z" fill="#2F80ED"/>
<path d="M66.9832 171.808H65.7646V361.538H66.9832V171.808Z" fill="#2F80ED"/>
<path d="M34.0965 190.779H32.8779V380.508H34.0965V190.779Z" fill="#2F80ED"/>
<path d="M136.2 502L3.45605 425.403L366.378 215.994L499.122 292.591L136.2 502ZM5.89645 425.403L136.2 500.594L496.685 292.591L366.378 217.399L5.89645 425.403Z" fill="#2F80ED"/>
<path d="M497.607 292.069L135.895 500.759L136.504 501.814L498.216 293.124L497.607 292.069Z" fill="#2F80ED"/>
<path d="M464.719 273.086L103.025 481.808L103.635 482.863L465.329 274.141L464.719 273.086Z" fill="#2F80ED"/>
<path d="M431.86 254.154L70.1162 462.795L70.7269 463.853L432.471 255.211L431.86 254.154Z" fill="#2F80ED"/>
<path d="M398.932 235.16L37.2383 443.863L37.8492 444.92L399.543 236.217L398.932 235.16Z" fill="#2F80ED"/>
<path d="M333.796 235.139L333.186 236.197L464.712 312.09L465.323 311.033L333.796 235.139Z" fill="#2F80ED"/>
<path d="M300.919 254.114L300.308 255.172L431.834 331.059L432.445 330.001L300.919 254.114Z" fill="#2F80ED"/>
<path d="M268.036 273.092L267.425 274.149L398.951 350.036L399.562 348.979L268.036 273.092Z" fill="#2F80ED"/>
<path d="M235.15 292.061L234.539 293.119L366.069 369.012L366.68 367.954L235.15 292.061Z" fill="#2F80ED"/>
<path d="M202.274 311.033L201.663 312.091L333.189 387.984L333.8 386.927L202.274 311.033Z" fill="#2F80ED"/>
<path d="M169.394 330.01L168.783 331.068L300.309 406.961L300.92 405.904L169.394 330.01Z" fill="#2F80ED"/>
<path d="M136.505 348.986L135.895 350.043L267.421 425.936L268.032 424.879L136.505 348.986Z" fill="#2F80ED"/>
<path d="M103.629 367.951L103.019 369.009L234.545 444.902L235.156 443.844L103.629 367.951Z" fill="#2F80ED"/>
<path d="M70.7457 386.926L70.1348 387.984L201.661 463.877L202.272 462.82L70.7457 386.926Z" fill="#2F80ED"/>
<path d="M37.8609 405.903L37.25 406.961L168.776 482.854L169.387 481.797L37.8609 405.903Z" fill="#2F80ED"/>
<path opacity="0.5" d="M378.955 316.267C407.268 316.267 430.219 302.683 430.219 285.925C430.219 269.168 407.268 255.583 378.955 255.583C350.642 255.583 327.69 269.168 327.69 285.925C327.69 302.683 350.642 316.267 378.955 316.267Z" fill="#05DCFF"/>
<g style="mix-blend-mode:screen" opacity="0.5">
<g style="mix-blend-mode:screen" opacity="0.091">
<path d="M406.838 161.586C386.657 169.195 359.521 167.776 341.878 157.327C321.399 145.207 321.399 125.557 341.878 113.437C362.357 101.317 395.557 101.317 416.036 113.437C436.256 125.421 436.476 144.721 416.707 156.838C413.578 158.737 410.273 160.331 406.838 161.596" fill="#1D1568"/>
</g>
<g style="mix-blend-mode:screen" opacity="0.182">
<path d="M407.673 176.165C387.509 184.197 359.848 182.921 341.958 172.333C321.54 160.239 321.54 140.634 341.958 128.54C362.375 116.445 395.52 116.449 415.954 128.54C435.866 140.326 436.31 159.267 417.289 171.335C414.249 173.254 411.028 174.871 407.673 176.165" fill="#1A2977"/>
</g>
<g style="mix-blend-mode:screen" opacity="0.273">
<path d="M408.511 190.746C388.362 199.2 360.17 198.066 342.043 187.339C321.655 175.271 321.655 155.711 342.043 143.643C362.432 131.574 395.482 131.578 415.871 143.643C435.478 155.248 436.146 173.816 417.877 185.839C414.923 187.778 411.786 189.421 408.511 190.746" fill="#183D86"/>
</g>
<g style="mix-blend-mode:screen" opacity="0.364">
<path d="M409.347 205.324C389.215 214.202 360.484 213.211 342.121 202.341C321.781 190.306 321.781 170.785 342.121 158.746C362.461 146.707 395.444 146.71 415.783 158.746C435.086 170.169 435.948 188.32 418.46 200.346C415.594 202.301 412.541 203.968 409.347 205.324" fill="#165195"/>
</g>
<g style="mix-blend-mode:screen" opacity="0.455">
<path d="M410.185 219.903C390.069 229.208 360.807 228.357 342.207 217.347C321.913 205.338 321.913 185.862 342.207 173.849C362.502 161.836 395.41 161.839 415.704 173.849C434.699 185.091 435.782 202.863 419.049 214.854C416.268 216.825 413.299 218.516 410.185 219.903" fill="#1365A4"/>
</g>
<g style="mix-blend-mode:screen" opacity="0.545">
<path d="M411.016 234.481C390.923 244.198 361.123 243.502 342.286 232.353C322.037 220.369 322.037 200.936 342.286 188.952C362.536 176.968 395.366 176.968 415.615 188.952C434.305 200.013 435.608 217.412 419.63 229.357C416.939 231.351 414.053 233.068 411.016 234.481Z" fill="#1178B4"/>
</g>
<g style="mix-blend-mode:screen" opacity="0.636">
<path d="M411.857 249.06C391.764 259.214 361.445 258.647 342.373 247.359C322.169 235.401 322.169 216.013 342.373 204.058C362.576 192.103 395.335 192.1 415.539 204.058C433.921 214.938 435.448 231.958 420.219 243.864C417.618 245.875 414.816 247.612 411.857 249.047" fill="#0E8CC3"/>
</g>
<g style="mix-blend-mode:screen" opacity="0.727">
<path d="M412.694 263.641C392.623 274.216 361.763 273.792 342.454 262.362C322.295 250.433 322.295 231.09 342.454 219.161C362.612 207.232 395.28 207.229 415.452 219.161C433.529 229.85 435.283 246.511 420.802 258.372C418.293 260.405 415.577 262.171 412.7 263.641" fill="#0CA0D2"/>
</g>
<g style="mix-blend-mode:screen" opacity="0.818">
<path d="M413.533 278.22C393.478 289.232 362.087 288.937 342.538 277.368C322.444 265.465 322.444 246.167 342.538 234.264C362.631 222.361 395.261 222.361 415.371 234.264C433.144 244.781 435.14 261.092 421.392 272.875C418.973 274.935 416.338 276.727 413.533 278.22" fill="#0AB4E1"/>
</g>
<g style="mix-blend-mode:screen" opacity="0.909">
<path d="M414.372 292.798C394.337 304.222 362.408 304.082 342.625 292.374C322.561 280.497 322.561 261.241 342.625 249.367C362.69 237.493 395.225 237.49 415.293 249.367C432.758 259.703 434.988 275.641 421.982 287.383C419.653 289.463 417.101 291.279 414.372 292.798" fill="#07C8F0"/>
</g>
<g style="mix-blend-mode:screen" opacity="0.5">
<path d="M378.954 316.267C407.267 316.267 430.218 302.682 430.218 285.925C430.218 269.167 407.267 255.583 378.954 255.583C350.641 255.583 327.689 269.167 327.689 285.925C327.689 302.682 350.641 316.267 378.954 316.267Z" fill="#05DCFF"/>
</g>
</g>
<path d="M5.6798 356.634C5.27346 356.633 4.87374 356.531 4.51683 356.337C4.15991 356.143 3.85706 355.863 3.63569 355.522C3.41432 355.182 3.28141 354.791 3.249 354.387C3.21659 353.982 3.28569 353.575 3.45006 353.204C5.76406 347.992 26.4086 302.065 38.5166 294.738C44.9983 290.813 50.9843 296.448 56.2605 301.42C61.6274 306.479 65.1113 309.404 68.2259 307.409C80.4278 299.58 91.4923 271.7 102.194 244.736C113.673 215.848 124.485 188.56 137.98 179.808C145.259 175.083 152.24 181.373 158.417 186.934C164.652 192.544 169.024 196.039 172.848 193.645C180.487 188.868 186.716 170.649 193.308 151.348C203.031 122.888 214.05 90.6313 234.921 82.2457C241.009 79.4344 247.826 78.6023 254.412 79.8666C260.998 81.131 267.022 84.4281 271.634 89.2936C280.887 97.9675 287.998 110.943 294.875 123.49C307.718 146.92 316.504 160.689 330.259 154.334C340.212 149.738 351.078 124.834 354.426 115.626C354.529 115.317 354.693 115.032 354.908 114.787C355.124 114.542 355.386 114.343 355.679 114.201C355.973 114.06 356.292 113.978 356.617 113.962C356.943 113.945 357.268 113.994 357.575 114.105C357.881 114.216 358.162 114.388 358.401 114.609C358.64 114.831 358.832 115.098 358.966 115.395C359.1 115.692 359.173 116.012 359.181 116.338C359.189 116.664 359.131 116.988 359.012 117.291C358.493 118.719 346.126 152.378 332.307 158.749C323.673 162.739 315.778 160.848 308.211 152.974C301.869 146.389 296.395 136.397 290.597 125.822C277.192 101.365 263.328 76.0756 236.74 86.7576C217.942 94.3075 207.312 125.443 197.927 152.912C190.748 173.923 184.545 192.071 175.438 197.765C168.204 202.299 161.272 196.052 155.153 190.545C148.697 184.735 144.497 181.389 140.637 183.896C128.464 191.799 117.423 219.624 106.744 246.53C95.2549 275.486 84.4012 302.836 70.8801 311.509C64.3271 315.72 58.2731 310 52.9288 304.967C47.7434 300.108 44.1395 297.041 41.0607 298.907C31.9213 304.439 14.0446 341.405 7.92574 355.18C7.73415 355.615 7.41944 355.984 7.02037 356.242C6.6213 356.501 6.1553 356.637 5.6798 356.634Z" fill="#56CCF2"/>
<g opacity="0.9">
<g opacity="0.9">
<path opacity="0.9" d="M333.521 208.625L333.482 285.193C333.502 291.895 337.909 298.586 346.715 303.701C364.439 313.994 393.267 313.994 411.108 303.701C420.086 298.518 424.568 291.717 424.548 284.915L424.591 208.35C424.61 215.152 420.125 221.954 411.147 227.136C393.306 237.429 364.478 237.429 346.754 227.136C337.945 222.022 333.541 215.33 333.521 208.625Z" fill="#63BC4C"/>
<g opacity="0.9">
<path opacity="0.9" d="M411.147 227.136C407.238 229.348 403.067 231.063 398.731 232.24C392.834 233.849 386.759 234.72 380.647 234.831C368.865 235.325 357.164 232.667 346.754 227.129C345.278 226.277 343.861 225.329 342.512 224.289C339.096 221.799 336.404 218.445 334.714 214.572C333.939 212.68 333.534 210.657 333.521 208.612L333.482 285.18C333.494 287.224 333.898 289.246 334.672 291.137C336.364 295.009 339.055 298.362 342.469 300.854C343.819 301.894 345.238 302.843 346.715 303.694C357.125 309.232 368.826 311.891 380.608 311.396C386.72 311.284 392.795 310.414 398.692 308.805C403.028 307.627 407.199 305.912 411.108 303.701C420.086 298.518 424.568 291.717 424.548 284.915L424.591 208.35C424.61 215.155 420.125 221.957 411.147 227.136Z" fill="#63BC4C"/>
<g style="mix-blend-mode:multiply" opacity="0.2">
<path d="M411.147 227.136C407.238 229.348 403.067 231.063 398.731 232.24C392.834 233.849 386.759 234.72 380.647 234.831C368.865 235.325 357.164 232.667 346.754 227.129C345.278 226.277 343.861 225.329 342.512 224.289C339.096 221.799 336.404 218.445 334.714 214.572C333.939 212.68 333.534 210.657 333.521 208.612L333.482 285.18C333.494 287.224 333.898 289.246 334.672 291.137C336.364 295.009 339.055 298.362 342.469 300.854C343.819 301.894 345.238 302.843 346.715 303.694C357.125 309.232 368.826 311.891 380.608 311.396C386.72 311.284 392.795 310.414 398.692 308.805C403.028 307.627 407.199 305.912 411.108 303.701C420.086 298.518 424.568 291.717 424.548 284.915L424.591 208.35C424.61 215.155 420.125 221.957 411.147 227.136Z" fill="#63BC4C"/>
</g>
</g>
</g>
<path opacity="0.9" d="M346.965 189.859C329.14 200.152 329.03 216.842 346.754 227.136C364.479 237.429 393.306 237.429 411.148 227.136C428.989 216.842 429.083 200.152 411.358 189.859C393.634 179.566 364.806 179.566 346.965 189.859Z" fill="#73D159"/>
</g>
<path opacity="0.5" d="M295.892 365.042C324.205 365.042 347.157 351.458 347.157 334.7C347.157 317.942 324.205 304.358 295.892 304.358C267.58 304.358 244.628 317.942 244.628 334.7C244.628 351.458 267.58 365.042 295.892 365.042Z" fill="#05DCFF"/>
<g style="mix-blend-mode:screen" opacity="0.5">
<g style="mix-blend-mode:screen" opacity="0.091">
<path d="M323.773 124.404C303.592 132.012 276.456 130.59 258.813 120.145C238.333 108.025 238.333 88.374 258.813 76.254C279.292 64.1339 312.495 64.1339 332.974 76.254C353.191 88.2185 353.414 107.539 333.642 119.655C330.513 121.555 327.208 123.148 323.773 124.413" fill="#1D1568"/>
</g>
<g style="mix-blend-mode:screen" opacity="0.182">
<path d="M324.613 147.578C304.448 155.611 276.784 154.331 258.897 143.746C238.48 131.652 238.48 112.047 258.897 99.953C279.315 87.8589 312.456 87.8589 332.89 99.953C352.802 111.736 353.249 130.681 334.229 142.746C331.188 144.665 327.968 146.284 324.613 147.578" fill="#1A2977"/>
</g>
<g style="mix-blend-mode:screen" opacity="0.273">
<path d="M325.449 170.752C305.301 179.209 277.105 178.072 258.978 167.345C238.593 155.28 238.593 135.717 258.978 123.652C279.364 111.587 312.421 111.587 332.806 123.652C352.413 135.257 353.084 153.823 334.815 165.849C331.862 167.786 328.724 169.429 325.449 170.752" fill="#183D86"/>
</g>
<g style="mix-blend-mode:screen" opacity="0.364">
<path d="M326.278 193.921C306.146 202.802 277.419 201.807 259.056 190.941C238.716 178.902 238.716 159.384 259.056 147.345C279.396 135.306 312.375 135.306 332.718 147.345C352.018 158.769 352.883 176.92 335.392 188.946C332.524 190.898 329.472 192.564 326.278 193.921" fill="#165195"/>
</g>
<g style="mix-blend-mode:screen" opacity="0.455">
<path d="M327.119 217.101C307.002 226.407 277.74 225.555 259.144 214.549C238.846 202.536 238.846 183.06 259.144 171.05C279.442 159.04 312.343 159.04 332.638 171.05C351.633 182.293 352.719 200.074 335.996 212.058C333.217 214.033 330.248 215.725 327.132 217.108" fill="#1365A4"/>
</g>
<g style="mix-blend-mode:screen" opacity="0.545">
<path d="M327.963 240.279C307.869 249.996 278.053 249.296 259.23 238.148C238.981 226.164 238.981 206.73 259.23 194.746C279.479 182.762 312.312 182.762 332.562 194.746C351.249 205.807 352.555 223.203 336.574 235.152C333.883 237.144 330.998 238.861 327.963 240.276" fill="#1178B4"/>
</g>
<g style="mix-blend-mode:screen" opacity="0.636">
<path d="M328.799 263.454C308.705 273.604 278.387 273.038 259.314 261.75C239.11 249.792 239.11 230.407 259.314 218.449C279.518 206.491 312.273 206.491 332.477 218.449C350.86 229.328 352.389 246.352 337.16 258.255C334.557 260.263 331.755 262 328.799 263.437" fill="#0E8CC3"/>
</g>
<g style="mix-blend-mode:screen" opacity="0.727">
<path d="M329.632 286.628C309.564 297.203 278.704 296.779 259.392 285.352C239.237 273.42 239.237 254.077 259.392 242.148C279.547 230.219 312.235 230.219 332.39 242.148C350.467 252.836 352.224 269.501 337.744 281.358C335.234 283.393 332.519 285.159 329.641 286.628" fill="#0CA0D2"/>
</g>
<g style="mix-blend-mode:screen" opacity="0.818">
<path d="M330.47 309.802C310.418 320.815 279.024 320.52 259.494 308.951C239.381 297.048 239.381 277.75 259.494 265.847C279.607 253.944 312.214 253.944 332.327 265.847C350.096 276.364 352.096 292.678 338.348 304.458C335.928 306.518 333.292 308.31 330.486 309.802" fill="#0AB4E1"/>
</g>
<g style="mix-blend-mode:screen" opacity="0.909">
<path d="M331.303 332.977C311.268 344.404 279.342 344.261 259.56 332.553C239.492 320.676 239.492 301.423 259.56 289.546C279.627 277.669 312.159 277.669 332.224 289.546C349.689 299.882 351.919 315.82 338.913 327.562C336.586 329.644 334.033 331.46 331.303 332.977" fill="#07C8F0"/>
</g>
<g style="mix-blend-mode:screen" opacity="0.5">
<path d="M295.893 365.042C324.206 365.042 347.158 351.458 347.158 334.7C347.158 317.942 324.206 304.358 295.893 304.358C267.581 304.358 244.629 317.942 244.629 334.7C244.629 351.458 267.581 365.042 295.893 365.042Z" fill="#05DCFF"/>
</g>
</g>
<g opacity="0.9">
<g opacity="0.9">
<path opacity="0.9" d="M249.699 151.886L250.215 333.239C250.234 339.941 254.642 346.632 263.447 351.746C281.172 362.04 310.003 362.036 327.84 351.746C336.818 346.564 341.3 339.762 341.28 332.961L340.768 151.61C340.788 158.412 336.302 165.214 327.325 170.377C309.5 180.67 280.656 180.67 262.932 170.377C254.126 165.279 249.719 158.587 249.699 151.886Z" fill="#EB5757"/>
<g opacity="0.9">
<g opacity="0.9">
<path opacity="0.9" d="M249.697 151.886L250.213 333.239C250.225 335.283 250.63 337.305 251.405 339.196L250.89 157.845C250.116 155.953 249.712 153.93 249.697 151.886V151.886Z" fill="#EB5757"/>
<path opacity="0.9" d="M250.886 157.846L251.401 339.196C253.089 343.069 255.78 346.423 259.195 348.913L258.683 167.559C255.268 165.069 252.576 161.715 250.886 157.842V157.846Z" fill="#EB5757"/>
<path opacity="0.9" d="M258.687 167.552L259.199 348.906C260.549 349.946 261.967 350.895 263.444 351.747C273.854 357.283 285.555 359.941 297.337 359.445L296.822 178.095C285.04 178.589 273.339 175.931 262.929 170.393C261.453 169.542 260.035 168.593 258.687 167.552V167.552Z" fill="#EB5757"/>
<path opacity="0.9" d="M296.824 178.095L297.34 359.446C303.452 359.335 309.527 358.465 315.424 356.854L314.908 175.504C309.011 177.113 302.936 177.983 296.824 178.095V178.095Z" fill="#EB5757"/>
<path opacity="0.9" d="M314.907 175.497L315.423 356.848C319.758 355.673 323.929 353.959 327.838 351.746C336.816 346.564 341.298 339.762 341.278 332.961L340.766 151.61C340.786 158.412 336.3 165.214 327.323 170.377C323.414 172.589 319.243 174.304 314.907 175.481V175.497Z" fill="#EB5757"/>
</g>
</g>
</g>
<path opacity="0.9" d="M263.141 133.116C245.316 143.41 245.206 160.1 262.93 170.393C280.655 180.686 309.486 180.686 327.323 170.393C345.161 160.1 345.259 143.413 327.534 133.116C309.81 122.82 280.979 122.823 263.141 133.116Z" fill="#FF7676"/>
</g>
<path opacity="0.5" d="M208.339 414.808C236.651 414.808 259.603 401.223 259.603 384.466C259.603 367.708 236.651 354.124 208.339 354.124C180.026 354.124 157.074 367.708 157.074 384.466C157.074 401.223 180.026 414.808 208.339 414.808Z" fill="#05DCFF"/>
<g style="mix-blend-mode:screen" opacity="0.5">
<g style="mix-blend-mode:screen" opacity="0.091">
<path d="M236.216 220.92C216.035 228.525 188.899 227.107 171.252 216.661C150.777 204.541 150.777 184.891 171.252 172.771C191.728 160.65 224.935 160.65 245.414 172.771C265.631 184.735 265.854 204.055 246.082 216.172C242.954 218.071 239.65 219.665 236.216 220.93" fill="#1D1568"/>
</g>
<g style="mix-blend-mode:screen" opacity="0.182">
<path d="M237.055 239.418C216.89 247.45 189.229 246.174 171.34 235.586C150.922 223.492 150.922 203.887 171.34 191.796C191.757 179.705 224.899 179.702 245.333 191.796C265.245 203.579 265.692 222.523 246.671 234.588C243.63 236.506 240.41 238.123 237.055 239.418" fill="#1A2977"/>
</g>
<g style="mix-blend-mode:screen" opacity="0.273">
<path d="M237.887 257.918C217.738 266.375 189.542 265.238 171.416 254.511C151.031 242.446 151.031 222.883 171.416 210.818C191.801 198.753 224.858 198.753 245.247 210.818C264.851 222.423 265.522 240.989 247.253 253.015C244.3 254.953 241.163 256.596 237.887 257.918" fill="#183D86"/>
</g>
<g style="mix-blend-mode:screen" opacity="0.364">
<path d="M238.725 276.419C218.592 285.3 189.865 284.306 171.502 273.439C151.162 261.4 151.162 241.883 171.502 229.844C191.842 217.805 224.824 217.805 245.164 229.844C264.464 241.264 265.329 259.418 247.841 271.441C244.973 273.395 241.919 275.062 238.725 276.419" fill="#165195"/>
</g>
<g style="mix-blend-mode:screen" opacity="0.455">
<path d="M239.558 294.92C219.442 304.222 190.183 303.37 171.584 292.364C151.286 280.351 151.286 260.879 171.584 248.866C191.881 236.852 224.783 236.856 245.077 248.866C264.072 260.108 265.171 277.88 248.422 289.867C245.643 291.842 242.674 293.534 239.558 294.92" fill="#1365A4"/>
</g>
<g style="mix-blend-mode:screen" opacity="0.545">
<path d="M240.39 313.437C220.296 323.154 190.48 322.454 171.657 311.306C151.407 299.322 151.407 279.888 171.657 267.904C191.906 255.92 224.739 255.92 244.988 267.904C263.675 278.965 264.981 296.361 249.001 308.31C246.309 310.302 243.424 312.02 240.39 313.437" fill="#1178B4"/>
</g>
<g style="mix-blend-mode:screen" opacity="0.636">
<path d="M241.236 331.918C221.143 342.072 190.824 341.505 171.751 330.214C151.548 318.259 151.548 298.871 171.751 286.916C191.955 274.962 224.711 274.958 244.915 286.916C263.297 297.793 264.827 314.816 249.598 326.723C246.996 328.732 244.194 330.468 241.236 331.905" fill="#0E8CC3"/>
</g>
<g style="mix-blend-mode:screen" opacity="0.727">
<path d="M242.071 350.419C222.003 360.997 191.144 360.569 171.831 349.143C151.676 337.21 151.676 317.868 171.831 305.939C191.986 294.01 224.658 294.01 244.832 305.939C262.907 316.627 264.663 333.291 250.183 345.149C247.675 347.185 244.959 348.951 242.081 350.419" fill="#0CA0D2"/>
</g>
<g style="mix-blend-mode:screen" opacity="0.818">
<path d="M242.908 368.919C222.857 379.932 191.462 379.637 171.932 368.068C151.819 356.164 151.819 336.867 171.932 324.964C192.045 313.061 224.652 313.061 244.765 324.964C262.535 335.481 264.534 351.795 250.787 363.575C248.367 365.635 245.731 367.427 242.924 368.919" fill="#0AB4E1"/>
</g>
<g style="mix-blend-mode:screen" opacity="0.909">
<path d="M243.746 387.42C223.707 398.844 191.781 398.701 171.999 386.993C151.931 375.119 151.931 355.863 171.999 343.986C192.067 332.109 224.599 332.112 244.663 343.986C262.128 354.325 264.358 370.26 251.356 382.001C249.027 384.083 246.475 385.9 243.746 387.42" fill="#07C8F0"/>
</g>
<g style="mix-blend-mode:screen" opacity="0.5">
<path d="M208.335 414.808C236.647 414.808 259.599 401.224 259.599 384.466C259.599 367.709 236.647 354.124 208.335 354.124C180.022 354.124 157.07 367.709 157.07 384.466C157.07 401.224 180.022 414.808 208.335 414.808Z" fill="#05DCFF"/>
</g>
</g>
<g opacity="0.9">
<g opacity="0.9">
<path opacity="0.9" d="M163.433 249.367L163.358 383.351C163.358 390.053 167.782 396.744 176.588 401.858C194.312 412.155 223.143 412.155 240.984 401.858C249.958 396.676 254.444 389.875 254.424 383.092L254.499 249.108C254.518 255.91 250.036 262.711 241.059 267.894C223.218 278.187 194.39 278.187 176.666 267.894C167.86 262.763 163.452 256.068 163.433 249.367Z" fill="#CDDCFB"/>
<g opacity="0.9">
<path opacity="0.9" d="M241.059 267.878C237.149 270.088 232.978 271.802 228.643 272.979C222.746 274.589 216.671 275.46 210.559 275.57C198.776 276.066 187.075 273.407 176.666 267.868C175.189 267.017 173.77 266.068 172.42 265.028C169.004 262.537 166.313 259.184 164.622 255.311C163.85 253.418 163.446 251.395 163.433 249.351L163.358 383.336C163.37 385.379 163.773 387.401 164.548 389.292C166.239 393.165 168.93 396.518 172.345 399.009C173.695 400.049 175.112 400.998 176.588 401.849C186.999 407.388 198.701 410.047 210.484 409.551C216.596 409.441 222.669 408.57 228.565 406.96C232.902 405.783 237.074 404.068 240.984 401.856C249.958 396.673 254.444 389.872 254.424 383.089L254.499 249.105C254.518 255.897 250.036 262.696 241.059 267.878Z" fill="#F0A421"/>
</g>
</g>
<path opacity="0.9" d="M176.868 230.598C159.043 240.894 158.936 257.581 176.66 267.875C194.385 278.168 223.212 278.171 241.054 267.875C258.895 257.578 258.989 240.891 241.264 230.598C223.54 220.305 194.709 220.308 176.868 230.598Z" fill="#FFBB61"/>
</g>
<path opacity="0.5" d="M124.927 466.232C153.239 466.232 176.191 452.648 176.191 435.89C176.191 419.133 153.239 405.548 124.927 405.548C96.614 405.548 73.6621 419.133 73.6621 435.89C73.6621 452.648 96.614 466.232 124.927 466.232Z" fill="#05DCFF"/>
<g style="mix-blend-mode:screen" opacity="0.5">
<g style="mix-blend-mode:screen" opacity="0.091">
<path d="M152.809 316.077C132.628 323.685 105.492 322.266 87.8487 311.821C67.3695 299.701 67.3695 280.05 87.8487 267.93C108.328 255.81 141.531 255.81 162.007 267.93C182.227 279.895 182.45 299.215 162.678 311.332C159.55 313.233 156.245 314.827 152.809 316.089" fill="#1D1568"/>
</g>
<g style="mix-blend-mode:screen" opacity="0.182">
<path d="M153.644 330.205C133.479 338.237 105.818 336.958 87.9285 326.373C67.5108 314.279 67.5108 294.674 87.9285 282.579C108.346 270.485 141.491 270.485 161.925 282.579C181.837 294.366 182.281 313.307 163.263 325.372C160.222 327.292 157 328.91 153.644 330.205" fill="#1A2977"/>
</g>
<g style="mix-blend-mode:screen" opacity="0.273">
<path d="M154.477 344.333C134.332 352.786 106.136 351.653 88.0096 340.925C67.6244 328.857 67.6244 309.297 88.0096 297.229C108.395 285.161 141.452 285.164 161.837 297.229C181.445 308.834 182.112 327.403 163.843 339.426C160.89 341.365 157.753 343.009 154.477 344.333Z" fill="#183D86"/>
</g>
<g style="mix-blend-mode:screen" opacity="0.364">
<path d="M155.317 358.458C135.184 367.339 106.454 366.344 88.0942 355.478C67.7511 343.439 67.7511 323.921 88.0942 311.882C108.437 299.843 141.413 299.843 161.757 311.882C181.056 323.302 181.918 341.456 164.43 353.479C161.564 355.434 158.511 357.101 155.317 358.458" fill="#165195"/>
</g>
<g style="mix-blend-mode:screen" opacity="0.455">
<path d="M156.154 372.586C136.037 381.888 106.775 381.036 88.1759 370.03C67.8815 358.017 67.8815 338.545 88.1759 326.532C108.47 314.518 141.378 314.522 161.673 326.532C180.668 337.774 181.767 355.546 165.018 367.533C162.238 369.506 159.268 371.199 156.154 372.586" fill="#1365A4"/>
</g>
<g style="mix-blend-mode:screen" opacity="0.545">
<path d="M156.99 386.711C136.896 396.427 107.096 395.728 88.2601 384.583C68.011 372.599 68.011 353.165 88.2601 341.181C108.509 329.197 141.339 329.197 161.589 341.181C180.279 352.242 181.582 369.638 165.604 381.587C162.913 383.581 160.027 385.297 156.99 386.711" fill="#1178B4"/>
</g>
<g style="mix-blend-mode:screen" opacity="0.636">
<path d="M157.826 400.839C137.733 410.99 107.417 410.423 88.3413 399.135C68.1375 387.177 68.1375 367.792 88.3413 355.834C108.545 343.876 141.304 343.876 161.508 355.834C179.89 366.714 181.417 383.737 166.191 395.64C163.587 397.649 160.784 399.386 157.826 400.823" fill="#0E8CC3"/>
</g>
<g style="mix-blend-mode:screen" opacity="0.727">
<path d="M158.663 414.964C138.593 425.542 107.733 425.115 88.4235 413.688C68.2651 401.755 68.2651 382.416 88.4235 370.484C108.582 358.552 141.25 358.555 161.421 370.484C179.499 381.172 181.252 397.836 166.772 409.694C164.264 411.73 161.548 413.496 158.67 414.964" fill="#0CA0D2"/>
</g>
<g style="mix-blend-mode:screen" opacity="0.818">
<path d="M159.506 429.092C139.454 440.104 108.06 439.806 88.5301 428.24C68.4171 416.337 68.4171 397.039 88.5301 385.133C108.643 373.227 141.25 373.233 161.363 385.133C179.133 395.653 181.132 411.964 167.381 423.748C164.962 425.807 162.327 427.599 159.522 429.092" fill="#0AB4E1"/>
</g>
<g style="mix-blend-mode:screen" opacity="0.909">
<path d="M160.34 443.217C140.305 454.644 108.379 454.501 88.5932 442.793C68.5288 430.916 68.5288 411.66 88.5932 399.786C108.658 387.912 141.193 387.909 161.261 399.786C178.726 410.122 180.956 426.06 167.95 437.801C165.622 439.883 163.07 441.699 160.34 443.217" fill="#07C8F0"/>
</g>
<g style="mix-blend-mode:screen" opacity="0.5">
<path d="M124.927 466.232C153.239 466.232 176.191 452.648 176.191 435.89C176.191 419.133 153.239 405.548 124.927 405.548C96.614 405.548 73.6621 419.133 73.6621 435.89C73.6621 452.648 96.614 466.232 124.927 466.232Z" fill="#05DCFF"/>
</g>
</g>
<g opacity="0.9">
<g opacity="0.9">
<path opacity="0.9" d="M79.4061 363.183L79.3672 431.812C79.3866 438.514 83.7942 445.205 92.5998 450.32C110.324 460.613 139.155 460.613 156.993 450.32C165.97 445.137 170.456 438.336 170.436 431.534L170.475 362.908C170.495 369.709 166.009 376.511 157.032 381.693C139.207 391.987 110.363 391.987 92.6387 381.693C83.8331 376.595 79.4255 369.888 79.4061 363.183Z" fill="#D12E75"/>
<g opacity="0.9">
<path opacity="0.9" d="M157.033 381.692C153.123 383.905 148.952 385.62 144.617 386.797C138.719 388.406 132.645 389.276 126.533 389.388C114.75 389.882 103.05 387.223 92.6393 381.686C91.1625 380.839 89.7432 379.895 88.3905 378.862C84.9757 376.37 82.2846 373.017 80.5929 369.145C79.819 367.252 79.4142 365.23 79.4002 363.185L79.3613 431.815C79.3756 433.858 79.7804 435.88 80.554 437.771C82.2457 441.643 84.9368 444.997 88.3516 447.488C89.7009 448.528 91.1182 449.477 92.5939 450.328C103.004 455.865 114.705 458.524 126.487 458.03C132.599 457.919 138.674 457.048 144.571 455.439C148.907 454.262 153.078 452.547 156.987 450.335C165.965 445.153 170.45 438.351 170.431 431.549L170.469 362.923C170.495 369.712 166.01 376.513 157.033 381.692Z" fill="#3E79BC"/>
</g>
</g>
<path opacity="0.9" d="M92.8509 344.417C75.0097 354.71 74.9158 371.4 92.6402 381.693C110.365 391.987 139.196 391.987 157.034 381.693C174.871 371.4 174.969 354.71 157.244 344.417C139.52 334.124 110.689 334.124 92.8509 344.417Z" fill="#2D9CDB"/>
</g>
<path d="M113.281 300.669V301.106C113.295 301.943 113.144 302.774 112.836 303.553C112.528 304.331 112.069 305.04 111.485 305.64C112.73 305.456 113.281 306.431 113.281 308.138V309.456C113.345 310.702 113.068 311.942 112.48 313.043C111.892 314.144 111.014 315.064 109.942 315.704C107.674 316.999 106.624 315.911 106.624 313.301V312.141L108.166 311.25V312.546C108.166 314.084 108.717 314.693 109.9 314.01C110.501 313.627 110.981 313.083 111.287 312.441C111.593 311.798 111.712 311.083 111.631 310.376V309.061C111.631 307.38 111.018 306.926 109.774 307.597L108.886 308.109V306.402L109.858 305.841C110.421 305.484 110.881 304.986 111.192 304.396C111.503 303.806 111.655 303.146 111.631 302.479V301.699C111.631 299.943 111.103 299.344 109.9 300.04C109.322 300.409 108.855 300.929 108.55 301.542C108.244 302.156 108.112 302.842 108.166 303.525V304.403L106.624 305.294V304.513C106.558 303.275 106.833 302.042 107.418 300.948C108.003 299.854 108.876 298.941 109.942 298.308C112.224 296.986 113.281 298.058 113.281 300.669Z" fill="#56CCF2"/>
<path d="M116.532 301.618C116.93 300.496 117.707 299.547 118.729 298.936C120.628 297.838 121.474 298.962 121.474 301.397V304.74C121.534 305.985 121.255 307.222 120.668 308.321C120.08 309.421 119.205 310.34 118.136 310.981C115.867 312.277 114.82 311.189 114.82 308.578V307.431L116.363 306.544V307.81C116.363 309.346 116.911 309.958 118.094 309.274C118.671 308.91 119.138 308.395 119.444 307.785C119.75 307.175 119.882 306.492 119.827 305.812V302.495C119.827 300.96 119.277 300.351 118.094 301.031C117.61 301.327 117.206 301.736 116.915 302.222C116.625 302.708 116.456 303.258 116.425 303.823V304.215L114.882 305.106L115.284 295.389L121.117 292.024V293.731L116.765 296.241L116.532 301.618Z" fill="#56CCF2"/>
<path d="M127.202 291.172V296.559C127.242 297.35 127.066 298.137 126.694 298.837C126.322 299.537 125.767 300.123 125.089 300.533C123.653 301.362 122.976 300.656 122.976 298.997V293.608C122.938 292.817 123.115 292.031 123.487 291.333C123.859 290.634 124.412 290.048 125.089 289.637C126.524 288.821 127.202 289.537 127.202 291.172ZM124.032 292.928V298.486C124.032 299.412 124.327 299.852 125.089 299.412C125.443 299.184 125.728 298.864 125.915 298.486C126.101 298.109 126.18 297.687 126.145 297.268V291.707C126.145 290.78 125.821 290.33 125.089 290.758C124.733 290.99 124.448 291.315 124.264 291.697C124.081 292.08 124.005 292.505 124.045 292.928H124.032ZM132.083 285.698L126.249 306.13L125.257 306.703L131.091 286.272L132.083 285.698ZM134.468 293.342V298.706C134.511 299.497 134.337 300.286 133.965 300.986C133.594 301.686 133.038 302.272 132.358 302.68C130.919 303.509 130.245 302.8 130.245 301.142V295.778C130.208 294.991 130.384 294.208 130.756 293.513C131.127 292.818 131.68 292.237 132.355 291.83C133.813 290.988 134.468 291.707 134.468 293.355V293.342ZM131.298 295.098V300.63C131.298 301.556 131.622 302.01 132.355 301.582C132.71 301.349 132.996 301.024 133.182 300.642C133.368 300.26 133.447 299.835 133.411 299.412V293.877C133.411 292.95 133.087 292.526 132.355 292.95C132 293.179 131.715 293.5 131.529 293.878C131.343 294.256 131.263 294.678 131.298 295.098Z" fill="#56CCF2"/>
<path d="M368.63 150.237V150.674C368.645 151.511 368.493 152.343 368.185 153.121C367.877 153.899 367.418 154.609 366.834 155.209C368.082 155.028 368.63 156.002 368.63 157.709V159.024C368.693 160.27 368.416 161.509 367.828 162.608C367.24 163.708 366.363 164.627 365.292 165.266C363.023 166.561 361.976 165.473 361.976 162.866V161.696L363.519 160.806V162.101C363.519 163.637 364.067 164.245 365.25 163.562C365.851 163.181 366.332 162.638 366.639 161.996C366.946 161.354 367.065 160.638 366.983 159.931V158.616C366.983 156.935 366.368 156.485 365.123 157.155L364.235 157.667V155.96L365.207 155.4C365.771 155.042 366.231 154.543 366.543 153.953C366.854 153.363 367.006 152.702 366.983 152.035V151.254C366.983 149.499 366.455 148.903 365.25 149.596C364.671 149.965 364.205 150.485 363.9 151.1C363.595 151.715 363.463 152.4 363.519 153.084V153.962L361.976 154.849V154.082C361.911 152.844 362.185 151.612 362.77 150.519C363.354 149.426 364.226 148.513 365.292 147.879C367.573 146.555 368.63 147.627 368.63 150.237Z" fill="#56CCF2"/>
<path d="M376.875 145.482V154.185C376.948 155.462 376.666 156.735 376.062 157.862C375.458 158.99 374.554 159.929 373.449 160.576C371.181 161.871 370.111 160.819 370.111 158.208V157.884L371.651 156.997V157.434C371.651 158.973 372.221 159.543 373.404 158.862C374.033 158.468 374.537 157.904 374.859 157.235C375.181 156.566 375.307 155.82 375.222 155.083V151.261C375.053 151.922 374.755 152.543 374.345 153.089C373.936 153.635 373.422 154.094 372.834 154.441C370.935 155.539 370.089 154.467 370.089 152.006V149.395C370.034 148.146 370.319 146.906 370.915 145.807C371.51 144.708 372.393 143.791 373.469 143.154C375.754 141.839 376.872 142.875 376.875 145.482ZM371.719 148.359V150.921C371.719 152.456 372.289 153.052 373.472 152.372C374.053 152.007 374.522 151.491 374.829 150.879C375.137 150.267 375.27 149.582 375.216 148.899V146.341C375.216 144.78 374.665 144.193 373.462 144.89C372.882 145.253 372.413 145.769 372.106 146.381C371.798 146.992 371.665 147.676 371.719 148.359V148.359Z" fill="#56CCF2"/>
<path d="M382.599 140.718V146.104C382.639 146.896 382.464 147.683 382.091 148.383C381.719 149.083 381.165 149.669 380.486 150.078C379.05 150.908 378.373 150.201 378.373 148.543V143.154C378.336 142.363 378.513 141.576 378.885 140.877C379.256 140.178 379.81 139.592 380.486 139.179C381.922 138.35 382.599 139.082 382.599 140.718ZM379.429 142.473V148.031C379.429 148.958 379.728 149.395 380.486 148.958C380.84 148.729 381.126 148.408 381.312 148.03C381.498 147.652 381.578 147.23 381.543 146.81V141.252C381.543 140.326 381.218 139.876 380.486 140.303C380.128 140.534 379.841 140.858 379.654 141.241C379.468 141.623 379.39 142.05 379.429 142.473V142.473ZM387.48 135.244L381.646 155.675L380.651 156.249L386.485 135.817L387.48 135.244ZM389.868 142.888V148.252C389.911 149.043 389.737 149.832 389.365 150.532C388.992 151.233 388.436 151.818 387.755 152.226C386.316 153.052 385.642 152.346 385.642 150.687V145.337C385.605 144.549 385.782 143.766 386.154 143.071C386.526 142.376 387.079 141.795 387.755 141.388C389.214 140.533 389.868 141.252 389.868 142.888V142.888ZM386.699 144.643V150.176C386.699 151.102 387.023 151.555 387.755 151.128C388.11 150.894 388.396 150.569 388.581 150.188C388.767 149.806 388.847 149.381 388.812 148.958V143.422C388.812 142.496 388.488 142.069 387.755 142.496C387.401 142.724 387.115 143.045 386.929 143.423C386.743 143.802 386.663 144.223 386.699 144.643V144.643Z" fill="#56CCF2"/>
<path d="M188.309 192.074C188.706 190.95 189.483 189.999 190.506 189.386C192.409 188.288 193.251 189.409 193.251 191.847V195.187C193.312 196.432 193.034 197.67 192.446 198.769C191.858 199.868 190.983 200.787 189.913 201.428C187.644 202.724 186.598 201.635 186.598 199.028V197.882L188.14 196.991V198.261C188.14 199.796 188.688 200.405 189.871 199.725C190.449 199.361 190.916 198.846 191.221 198.235C191.527 197.625 191.66 196.942 191.605 196.262V192.949C191.605 191.413 191.054 190.801 189.871 191.485C189.388 191.781 188.983 192.189 188.693 192.675C188.402 193.162 188.234 193.711 188.202 194.277V194.669L186.659 195.556L187.061 185.839L192.895 182.474V184.204L188.539 186.698L188.309 192.074Z" fill="#56CCF2"/>
<path d="M201.499 181.665C201.499 186.808 196.492 191.55 196.469 195.488V195.757L201.331 192.952V194.682L194.849 198.426V196.962C194.849 191.456 199.856 187.491 199.856 182.688C199.856 180.933 199.35 180.298 198.125 181.007C197.546 181.38 197.078 181.903 196.773 182.521C196.468 183.139 196.336 183.828 196.392 184.515V186.027L194.849 186.918V185.529C194.782 184.283 195.055 183.043 195.64 181.941C196.224 180.839 197.098 179.917 198.168 179.274C200.452 177.946 201.499 179.054 201.499 181.665Z" fill="#56CCF2"/>
<path d="M207.152 176.91V182.299C207.191 183.091 207.016 183.878 206.644 184.578C206.272 185.277 205.717 185.863 205.039 186.273C203.603 187.099 202.926 186.393 202.926 184.735V179.345C202.889 178.554 203.065 177.768 203.437 177.069C203.809 176.369 204.362 175.783 205.039 175.371C206.475 174.545 207.152 175.277 207.152 176.91ZM203.982 178.665V184.223C203.982 185.149 204.277 185.59 205.039 185.149C205.393 184.922 205.679 184.602 205.865 184.224C206.051 183.846 206.131 183.425 206.095 183.005V177.447C206.095 176.521 205.771 176.068 205.039 176.495C204.681 176.726 204.394 177.05 204.208 177.433C204.022 177.815 203.944 178.242 203.982 178.665V178.665ZM212.033 171.436L206.199 191.867L205.207 192.44L211.041 172.009L212.033 171.436ZM214.418 179.08V184.443C214.461 185.235 214.287 186.024 213.915 186.724C213.542 187.425 212.986 188.01 212.305 188.418C210.869 189.247 210.195 188.541 210.195 186.882V181.519C210.158 180.731 210.334 179.948 210.705 179.252C211.077 178.557 211.629 177.975 212.305 177.567C213.763 176.728 214.418 177.447 214.418 179.08V179.08ZM211.248 180.835V186.371C211.248 187.297 211.572 187.747 212.305 187.32C212.661 187.087 212.947 186.762 213.133 186.38C213.319 185.998 213.398 185.573 213.361 185.149V179.617C213.361 178.691 213.037 178.264 212.305 178.691C211.95 178.919 211.665 179.239 211.478 179.616C211.292 179.994 211.213 180.416 211.248 180.835V180.835Z" fill="#56CCF2"/>
<path d="M285.365 94.4855V94.8094L283.822 95.7001V95.2596C283.822 93.7244 283.274 93.1381 282.069 93.8345C281.443 94.2336 280.943 94.8009 280.625 95.4711C280.308 96.1414 280.186 96.8876 280.273 97.624V101.452C280.614 100.11 281.473 98.9576 282.662 98.2459C284.561 97.1479 285.407 98.2459 285.407 100.707V103.299C285.46 104.551 285.174 105.794 284.579 106.897C283.984 108 283.102 108.922 282.026 109.566C279.758 110.881 278.627 109.822 278.627 107.211V98.4921C278.553 97.2232 278.832 95.9587 279.432 94.8379C280.032 93.7172 280.93 92.7838 282.026 92.1405C284.308 90.8255 285.365 91.8717 285.365 94.4855ZM280.273 103.81V106.369C280.273 107.908 280.824 108.517 282.026 107.82C282.607 107.456 283.078 106.94 283.387 106.328C283.696 105.716 283.832 105.031 283.78 104.348V101.786C283.78 100.251 283.209 99.6548 282.026 100.335C281.444 100.698 280.973 101.214 280.664 101.826C280.355 102.438 280.22 103.123 280.273 103.807V103.81Z" fill="#56CCF2"/>
<path d="M292.952 99.6389V103.075L291.331 104.002V100.565L286.558 103.322V101.589L291.14 87.046L292.939 86.0095V97.9061L294.122 97.2259V98.9555L292.952 99.6389ZM288.091 100.711L291.331 98.8324V90.4954L288.091 100.711Z" fill="#56CCF2"/>
<path d="M299.539 84.863V90.2525C299.58 91.0436 299.405 91.8309 299.033 92.5306C298.662 93.2303 298.108 93.8164 297.43 94.2267C295.991 95.0559 295.316 94.3465 295.316 92.6915V87.3019C295.279 86.5112 295.455 85.7251 295.826 85.0258C296.198 84.3266 296.75 83.7401 297.426 83.3277C298.865 82.5018 299.539 83.2306 299.539 84.863ZM296.373 86.6185V92.1797C296.373 93.106 296.668 93.5433 297.43 93.106C297.783 92.8772 298.068 92.5565 298.254 92.1782C298.44 91.8 298.519 91.3784 298.483 90.9586V85.4168C298.483 84.4905 298.159 84.0403 297.426 84.4646C297.072 84.695 296.787 85.0169 296.602 85.3962C296.416 85.7754 296.337 86.1978 296.373 86.6185V86.6185ZM304.42 79.3925L298.587 99.8203L297.595 100.394L303.428 79.9625L304.42 79.3925ZM306.809 87.0331V92.3967C306.852 93.1887 306.678 93.9774 306.306 94.6779C305.933 95.3783 305.377 95.9637 304.696 96.3709C303.26 97.2 302.583 96.4939 302.583 94.8356V89.472C302.546 88.6846 302.723 87.9021 303.095 87.207C303.467 86.512 304.02 85.9304 304.696 85.5237C306.154 84.6816 306.809 85.4168 306.809 87.0363V87.0331ZM303.639 88.7886V94.3239C303.639 95.2502 303.963 95.7004 304.696 95.2761C305.05 95.0425 305.336 94.7178 305.522 94.3359C305.708 93.9541 305.787 93.5292 305.752 93.106V87.5707C305.752 86.6444 305.428 86.2169 304.696 86.6444C304.341 86.8723 304.056 87.1922 303.87 87.57C303.684 87.9477 303.604 88.369 303.639 88.7886V88.7886Z" fill="#56CCF2"/>
<path d="M124.34 351.423C124.097 351.423 123.865 351.326 123.693 351.155C123.522 350.984 123.426 350.751 123.426 350.509V316.944C123.44 316.711 123.542 316.492 123.712 316.332C123.883 316.171 124.108 316.082 124.341 316.082C124.575 316.082 124.8 316.171 124.97 316.332C125.14 316.492 125.243 316.711 125.257 316.944V350.509C125.257 350.629 125.233 350.748 125.187 350.859C125.141 350.971 125.073 351.071 124.988 351.156C124.903 351.241 124.802 351.308 124.69 351.354C124.579 351.4 124.46 351.423 124.34 351.423V351.423Z" fill="#56CCF2"/>
<path d="M128.582 349.152C128.582 346.451 126.686 345.359 124.346 346.707C123.113 347.509 122.087 348.592 121.351 349.865C120.615 351.139 120.19 352.568 120.11 354.036C120.11 356.737 122.006 357.829 124.346 356.482C125.579 355.679 126.605 354.596 127.341 353.323C128.077 352.049 128.502 350.62 128.582 349.152V349.152Z" fill="#56CCF2"/>
<path d="M201.758 234.987C201.52 234.983 201.292 234.887 201.123 234.718C200.954 234.55 200.858 234.322 200.854 234.083V200.508C200.847 200.384 200.865 200.259 200.908 200.141C200.95 200.024 201.016 199.916 201.102 199.825C201.188 199.734 201.291 199.662 201.406 199.612C201.521 199.563 201.645 199.537 201.77 199.537C201.895 199.537 202.018 199.563 202.133 199.612C202.248 199.662 202.351 199.734 202.437 199.825C202.523 199.916 202.589 200.024 202.632 200.141C202.674 200.259 202.693 200.384 202.685 200.508V234.083C202.682 234.326 202.582 234.557 202.409 234.726C202.235 234.896 202.001 234.989 201.758 234.987Z" fill="#56CCF2"/>
<path d="M205.994 232.713C205.994 230.015 204.098 228.92 201.758 230.271C200.525 231.073 199.499 232.156 198.763 233.429C198.027 234.703 197.602 236.132 197.522 237.6C197.522 240.298 199.418 241.393 201.758 240.042C202.991 239.24 204.018 238.158 204.754 236.884C205.49 235.611 205.915 234.181 205.994 232.713V232.713Z" fill="#56CCF2"/>
<path d="M293.141 143.154C292.898 143.154 292.665 143.057 292.493 142.886C292.322 142.715 292.224 142.483 292.224 142.24V108.675C292.238 108.442 292.34 108.223 292.51 108.063C292.68 107.902 292.905 107.813 293.139 107.813C293.373 107.813 293.598 107.902 293.768 108.063C293.938 108.223 294.041 108.442 294.055 108.675V142.24C294.055 142.482 293.958 142.715 293.787 142.886C293.616 143.057 293.383 143.154 293.141 143.154V143.154Z" fill="#56CCF2"/>
<path d="M297.371 140.883C297.371 138.185 295.475 137.09 293.138 138.441C291.905 139.243 290.878 140.325 290.142 141.599C289.406 142.873 288.981 144.302 288.902 145.771C288.902 148.469 290.798 149.563 293.138 148.213C294.37 147.409 295.395 146.327 296.131 145.053C296.866 143.78 297.291 142.351 297.371 140.883V140.883Z" fill="#56CCF2"/>
<path d="M376.274 198.805C376.154 198.805 376.035 198.781 375.925 198.735C375.814 198.689 375.713 198.622 375.628 198.537C375.543 198.452 375.476 198.352 375.43 198.241C375.384 198.13 375.36 198.011 375.36 197.891V164.327C375.374 164.093 375.477 163.874 375.647 163.714C375.817 163.554 376.042 163.464 376.276 163.464C376.51 163.464 376.735 163.554 376.905 163.714C377.075 163.874 377.178 164.093 377.191 164.327V197.891C377.191 198.134 377.094 198.366 376.922 198.537C376.75 198.709 376.517 198.805 376.274 198.805Z" fill="#56CCF2"/>
<path d="M380.513 196.534C380.513 193.836 378.617 192.741 376.278 194.089C375.046 194.892 374.02 195.975 373.285 197.248C372.55 198.522 372.125 199.95 372.045 201.418C372.045 204.12 373.941 205.211 376.278 203.864C377.51 203.061 378.536 201.979 379.272 200.705C380.008 199.432 380.434 198.003 380.513 196.534Z" fill="#56CCF2"/>
<path opacity="0.4" d="M379.575 468.824C408.266 468.824 431.524 456.672 431.524 441.681C431.524 426.691 408.266 414.539 379.575 414.539C350.885 414.539 327.627 426.691 327.627 441.681C327.627 456.672 350.885 468.824 379.575 468.824Z" fill="#15D9FD"/>
<path opacity="0.4" d="M379.575 458.307C408.266 458.307 431.524 446.155 431.524 431.165C431.524 416.174 408.266 404.022 379.575 404.022C350.885 404.022 327.627 416.174 327.627 431.165C327.627 446.155 350.885 458.307 379.575 458.307Z" fill="#15D9FD"/>
<path opacity="0.4" d="M379.575 447.79C408.266 447.79 431.524 435.638 431.524 420.648C431.524 405.658 408.266 393.506 379.575 393.506C350.885 393.506 327.627 405.658 327.627 420.648C327.627 435.638 350.885 447.79 379.575 447.79Z" fill="#15D9FD"/>
<path opacity="0.4" d="M379.575 437.273C408.266 437.273 431.524 425.121 431.524 410.131C431.524 395.141 408.266 382.989 379.575 382.989C350.885 382.989 327.627 395.141 327.627 410.131C327.627 425.121 350.885 437.273 379.575 437.273Z" fill="#15D9FD"/>
<path d="M401.55 224.625C401.764 226.064 402.069 227.488 402.463 228.888C402.671 229.511 402.949 230.109 403.293 230.669C403.71 231.28 404.185 231.848 404.713 232.366C403.861 232.363 403.038 232.064 402.382 231.521C401.701 230.967 401.195 230.228 400.924 229.393C400.669 228.602 400.593 227.763 400.701 226.939C400.809 226.115 401.099 225.324 401.55 224.625Z" fill="#4F4F4F"/>
<path d="M401.912 226.044C402.204 227.799 402.207 229.121 402.369 230.355C402.534 231.702 402.914 233.014 403.494 234.242C403.04 234.226 402.593 234.118 402.181 233.926C401.769 233.734 401.4 233.462 401.096 233.124C400.472 232.428 400.075 231.558 399.958 230.63C399.848 229.761 399.971 228.879 400.314 228.073C400.658 227.267 401.209 226.567 401.912 226.044V226.044Z" fill="#4F4F4F"/>
<path d="M313.169 236.532C313.317 236.416 313.49 236.337 313.674 236.302C313.859 236.267 314.049 236.277 314.229 236.331C314.579 236.443 314.907 236.612 315.201 236.833C318.262 238.927 321.185 241.217 323.951 243.686L323.75 243.596C324.123 243.92 324.486 244.244 324.826 244.593C324.891 244.661 324.953 244.733 325.014 244.801C326.077 244.85 327.104 245.2 327.977 245.808C328.503 246.288 328.908 246.886 329.156 247.554C329.777 249.354 330.229 251.208 330.508 253.092C330.45 253.385 330.332 253.663 330.161 253.908C329.99 254.154 329.771 254.361 329.516 254.517C329.467 254.534 329.419 254.517 329.37 254.43V254.534C328.671 255.247 328.114 256.087 327.727 257.008C327.403 257.76 326.609 257.717 325.831 258.077C322.286 254.767 318.196 253.329 315.376 249.468C314.983 249.023 314.754 248.458 314.728 247.865C314.737 247.715 314.776 247.569 314.842 247.435C314.909 247.301 315.002 247.182 315.116 247.085C315.229 246.987 315.361 246.914 315.504 246.869C315.647 246.824 315.797 246.808 315.946 246.822C315.78 246.573 315.697 246.278 315.711 245.979C315.724 245.68 315.833 245.393 316.021 245.16C316.231 244.924 316.502 244.751 316.805 244.66C317.108 244.57 317.43 244.566 317.735 244.648C317.644 244.392 317.64 244.112 317.725 243.854C317.81 243.595 317.979 243.372 318.205 243.22C318.425 243.068 318.677 242.967 318.941 242.925C317.28 241.723 315.703 240.408 314.222 238.99C313.691 238.475 312.835 237.847 312.9 237.137C312.913 236.91 313.009 236.694 313.169 236.532Z" fill="#FFBFA2"/>
<path d="M394.432 411.084C394.241 410.475 393.852 410.151 392.75 410.06C391.454 409.953 390.135 409.895 388.829 409.811L383.523 409.487C383.614 408.055 383.656 406.601 383.812 405.179C382.191 405.441 380.529 405.155 379.09 404.366C376.97 403.584 374.824 402.878 372.65 402.248C371.742 401.911 370.765 401.799 369.805 401.924C367.413 402.41 366.11 406.342 366.431 408.402C366.744 409.86 367.591 411.15 368.806 412.016C370.673 413.463 372.865 414.431 375.191 414.837C377.515 415.111 379.724 415.995 381.595 417.399C383.557 419.567 386.175 421.032 389.049 421.571C389.792 421.682 390.551 421.634 391.274 421.43C391.997 421.226 392.669 420.87 393.245 420.388C393.82 419.905 394.287 419.305 394.613 418.629C394.94 417.952 395.119 417.214 395.139 416.463C395.14 415.256 395.013 414.052 394.76 412.871C394.682 412.27 394.572 411.673 394.432 411.084V411.084Z" fill="#2A73C4"/>
<path d="M384.524 415.116C384.524 414.86 384.524 414.601 384.543 414.342C384.507 411.791 383.886 409.283 382.728 407.009C382.446 406.064 381.922 405.209 381.208 404.528C380.725 404.26 380.192 404.093 379.642 404.037C379.092 403.982 378.537 404.039 378.01 404.204C377.482 404.37 376.994 404.641 376.575 405.002C376.156 405.362 375.815 405.803 375.572 406.3C375.057 407.197 374.772 408.211 374.311 409.14C373.906 410.142 373.257 411.029 372.425 411.719C371.592 412.41 370.601 412.884 369.541 413.098C366.679 413.228 363.467 412.243 360.57 412.068C359.445 411.929 358.303 412.039 357.225 412.392C356.312 412.938 355.57 413.728 355.081 414.673C354.593 415.618 354.379 416.68 354.463 417.74C354.547 418.8 354.926 419.816 355.556 420.673C356.187 421.529 357.045 422.193 358.032 422.588C360.173 423.587 362.525 424.046 364.884 423.926C367.208 423.681 369.556 424.056 371.69 425.011C375.423 426.773 379.763 429.302 383.529 425.872C384.504 424.9 385.081 423.6 385.149 422.225C385.062 419.846 384.853 417.474 384.524 415.116Z" fill="#2F80ED"/>
<path d="M392.389 305.453C390.594 307.266 383.807 303.927 383.713 303.036C375.647 296.785 376.603 321.748 378.92 331.665C380.161 337.013 379.837 342.58 380.58 348.009C381.406 354.064 382.682 360.05 384.397 365.917C384.676 367.212 385.256 368.423 386.089 369.454C387.175 370.277 388.442 370.829 389.785 371.064C391.128 371.299 392.507 371.21 393.809 370.804C394.989 370.768 396.147 370.472 397.199 369.936C398.252 369.4 399.172 368.638 399.895 367.705C400.48 366.368 400.712 364.904 400.569 363.452C400.411 359.588 400.651 355.717 401.286 351.902L403.726 339.856C404.497 336.357 405.092 332.821 405.508 329.262C406.028 322.806 405.727 316.309 404.611 309.929C404.086 306.577 405.204 300.303 400.446 299.626C396.123 299.014 393.572 304.241 392.389 305.453Z" fill="#6E4CB3"/>
<path d="M394.282 302.965C394.919 301.912 395.825 301.048 396.907 300.461C397.99 299.874 399.209 299.586 400.439 299.626C405.197 300.303 404.079 306.577 404.604 309.929C405.72 316.308 406.022 322.803 405.502 329.259C405.086 332.819 404.491 336.356 403.719 339.856L401.279 351.902C400.645 355.717 400.405 359.588 400.563 363.452C400.705 364.904 400.473 366.368 399.888 367.705C399.165 368.638 398.245 369.4 397.193 369.936C396.14 370.472 394.982 370.768 393.802 370.804C392.838 370.974 391.863 371.069 390.885 371.089C390.618 357.392 393.501 343.817 399.312 331.409C401.201 326.669 401.731 321.497 400.842 316.473C399.954 311.448 397.682 306.771 394.282 302.965V302.965Z" fill="#474747"/>
<path d="M383.702 303.036C383.796 303.924 390.582 307.27 392.378 305.453C392.819 305.006 393.447 304.011 394.28 302.965C397.684 306.769 399.96 311.445 400.853 316.469C401.745 321.494 401.219 326.667 399.333 331.409C393.522 343.817 390.64 357.392 390.906 371.089C390.035 371.172 389.156 371.07 388.326 370.791C387.497 370.512 386.735 370.062 386.09 369.47C385.257 368.439 384.678 367.228 384.399 365.933C382.684 360.066 381.408 354.081 380.581 348.025C379.839 342.597 380.163 337.013 378.922 331.681C376.591 321.748 375.635 296.785 383.702 303.036Z" fill="#353535"/>
<path d="M383.36 360.22L382.024 354.616C382.556 356.462 382.99 358.334 383.36 360.22Z" fill="#6E4CB3"/>
<path d="M385.348 363.802C386.118 363.05 387.085 362.529 388.137 362.3C389.189 362.071 390.285 362.142 391.298 362.506C392.199 362.905 398.752 359.147 400.671 357.7C400.64 358.35 400.683 359.002 400.801 359.643C400.842 360.308 400.881 360.973 400.917 361.638C400.991 362.949 401.051 364.262 401.099 365.577C401.194 368.146 401.234 370.717 401.219 373.288C401.195 378.322 400.893 383.35 400.314 388.349C399.711 393.453 398.786 398.514 397.543 403.501C397.066 405.408 396.546 407.305 395.985 409.192C395.695 410.802 394.823 412.25 393.535 413.26C392.797 413.659 391.985 413.9 391.149 413.966C390.338 414.092 389.514 414.106 388.699 414.008C387.797 413.919 386.955 413.511 386.327 412.858C385.686 412.045 385.218 411.109 384.953 410.109C384.521 408.369 384.332 406.578 384.392 404.787C384.327 396.385 384.914 387.99 384.923 379.585C385.023 373.1 384.499 366.621 383.361 360.236L385.348 363.802Z" fill="#474747"/>
<path d="M383.361 360.22L385.348 363.802C385.67 363.288 386.105 362.854 386.618 362.532C388.098 361.956 389.736 361.934 391.23 362.471C389.454 379.595 390.809 396.939 390.151 414.041C389.667 414.073 389.18 414.057 388.699 413.992C387.797 413.903 386.955 413.495 386.327 412.842C385.686 412.029 385.218 411.093 384.953 410.092C384.521 408.353 384.332 406.562 384.392 404.771C384.327 396.369 384.914 387.974 384.923 379.569C385.023 373.084 384.499 366.605 383.361 360.22V360.22Z" fill="#353535"/>
<path d="M379.916 307.198C379.144 306.8 375.178 304.811 375.21 303.736C375.233 303.011 373.282 302.411 372.776 302.421C371.834 302.543 370.946 302.933 370.219 303.545C368.404 304.928 367.027 306.805 366.252 308.951C365.248 311.941 364.717 315.07 364.677 318.224C364.157 327.621 364.397 337.044 365.397 346.402C365.9 351.125 366.595 355.818 367.48 360.482C367.926 362.812 368.416 365.13 368.952 367.436C369.042 368.301 369.35 369.128 369.846 369.842C370.343 370.556 371.012 371.134 371.791 371.52C375.784 374.034 382.988 373.7 385.847 369.178C388.922 364.32 387.645 356.734 388.627 351.264C390.056 343.312 395.352 337.482 397.786 329.929C399.346 324.587 399.554 318.941 398.392 313.498C397.951 310.826 397.125 304.429 394.403 302.875C392.74 302.335 390.959 302.274 389.263 302.7C387.567 303.125 386.026 304.02 384.816 305.281C382.499 307.584 382.768 308.666 379.916 307.198Z" fill="#3E3E3F"/>
<path d="M407.127 285.258C407.306 283.859 407.516 282.463 407.756 281.07C408.929 274.404 410.929 267.891 411.765 261.164C412.413 255.939 412.889 249.423 408.741 245.387C408.06 244.735 407.298 244.174 406.472 243.719C398.416 239.184 390.709 244.71 383.154 247.427C378.189 249.218 373.439 251.556 368.992 254.398C367.39 255.159 365.969 256.251 364.82 257.601C363.734 259.188 363.11 261.044 363.015 262.965C362.981 265.206 363.198 267.444 363.663 269.637C366.046 282.486 366.577 295.611 365.239 308.611C364.568 314.188 363.907 329.424 363.907 329.424C365.764 330.23 366.95 330.995 375.953 331.153C394.546 331.477 404.829 326.8 405.899 325.825C406.968 324.851 406.596 322.587 406.635 321.239C406.751 317.197 406.67 313.142 406.576 309.113C406.171 301.158 406.355 293.185 407.127 285.258V285.258Z" fill="#2F80ED"/>
<path d="M363.006 262.951C363.1 261.031 363.725 259.175 364.811 257.588C365.959 256.238 367.381 255.146 368.982 254.384C369.919 253.785 370.868 253.215 371.831 252.665C377.71 257.61 385.799 263.541 381.673 270.76C370.894 289.974 368.425 310.11 367.861 330.622C366.486 330.432 365.151 330.023 363.907 329.411C363.907 329.411 364.555 314.188 365.239 308.597C366.577 295.598 366.047 282.473 363.664 269.624C363.195 267.431 362.974 265.193 363.006 262.951V262.951Z" fill="#2A73C4"/>
<path d="M379.276 248.982C380.647 248.399 382.105 247.8 383.149 247.424C388.396 245.536 393.717 242.29 399.178 242.009C399.728 242.91 400.077 243.92 400.204 244.968C400.33 246.016 400.23 247.08 399.91 248.086C399.59 249.093 399.058 250.019 398.35 250.802C397.642 251.586 396.774 252.209 395.804 252.629C393.288 253.861 390.491 254.407 387.696 254.213C384.901 254.018 382.206 253.09 379.885 251.521C378.962 250.861 378.265 249.75 379.276 248.982Z" fill="#2A73C4"/>
<path d="M369.223 371.157C369.573 375.23 369.897 379.303 370.196 383.378C370.412 386.604 370.61 389.831 370.792 393.059C370.921 395.546 371.029 398.029 371.116 400.508C371.589 414.112 370.144 417.192 376.57 418.97C378.005 419.398 379.526 419.451 380.988 419.126C385.172 418.092 385.898 414.419 386.413 409.862C386.701 407.3 386.834 404.217 386.919 401.626C386.987 399.439 387.032 397.25 387.071 395.06C387.118 392.096 387.156 389.133 387.184 386.173C387.223 382.265 387.256 378.356 387.282 374.448C387.317 369.454 387.745 364.352 387.777 359.358C387.765 358.989 387.665 358.628 387.486 358.304C387.306 357.981 387.053 357.705 386.747 357.499C380.675 358.895 374.835 361.154 369.405 364.206C368.951 366.496 368.89 368.847 369.223 371.157V371.157Z" fill="#3E3E3F"/>
<path d="M343.487 273.598C342.139 274.104 341.03 275.099 340.383 276.386C339.736 277.672 339.598 279.155 339.997 280.539C340.218 281.636 340.698 282.666 341.395 283.542C342.093 284.418 342.989 285.116 344.009 285.579C345.59 286.075 347.254 286.252 348.904 286.1C350.554 285.949 352.158 285.471 353.622 284.694C357.254 283.142 360.781 281.351 364.177 279.334C363.423 273.369 361.138 267.7 357.546 262.877C354.066 265.585 349.46 269.109 343.487 273.598Z" fill="#FFBFA2"/>
<path d="M378.29 256.662C377.511 255.528 376.462 254.607 375.237 253.98C373.705 253.505 372.076 253.434 370.509 253.775C368.941 254.115 367.489 254.855 366.292 255.923C366.548 255.748 364.024 257.866 357.542 262.89C361.134 267.713 363.418 273.382 364.173 279.347C365.644 278.505 367.112 277.653 368.58 276.804C371.027 275.392 373.487 274.003 376.035 272.749C378.135 271.71 380.426 270.994 381.372 268.581C381.615 267.918 381.752 267.222 381.781 266.518C381.847 262.919 380.607 259.418 378.29 256.662V256.662Z" fill="#2F80ED"/>
<path d="M326.297 252.428C325.299 252.963 323.552 254.307 323.52 255.632C323.497 256.723 324.755 258.275 325.231 259.194C326.722 262.08 328.29 264.918 329.859 267.755C330.572 269.05 331.282 270.346 332.034 271.59C334.222 275.261 336.764 278.709 339.624 281.886C340.822 283.468 342.357 284.764 344.119 285.679C344.924 285.836 345.755 285.787 346.535 285.534C347.315 285.282 348.018 284.836 348.578 284.238C349.827 283.34 350.812 282.124 351.432 280.718C352.052 279.311 352.284 277.764 352.105 276.238C351.309 273.371 349.767 270.767 347.635 268.691C343.287 263.494 338.608 258.582 333.628 253.986C332.792 253.123 331.803 252.421 330.711 251.917C329.98 251.691 329.21 251.62 328.45 251.708C327.69 251.796 326.957 252.041 326.297 252.428V252.428Z" fill="#FFBFA2"/>
<path d="M381.138 240.859C380.846 238.864 379.336 239.327 380.101 237.516C380.727 235.963 381.742 234.596 383.05 233.549C384.369 232.502 386.017 231.959 387.7 232.017C388.274 232.049 388.673 232.376 389.227 232.379C390.796 232.247 392.373 232.224 393.946 232.311C395.508 232.538 396.95 232.651 396.95 234.41C396.788 236.735 397.007 239.071 397.598 241.325C398.112 242.516 398.487 243.761 398.716 245.037C398.721 246.315 398.35 247.567 397.65 248.637C396.949 249.707 395.95 250.548 394.775 251.055C391.918 252.216 388.777 252.496 385.759 251.858C384.249 251.641 382.129 251.34 381.245 249.915C380.763 248.747 380.68 247.452 381.008 246.232C381.292 244.455 381.335 242.648 381.138 240.859Z" fill="#FFBFA2"/>
<path d="M389.258 214.844L382.715 211.041C382.973 210.855 383.277 210.74 383.594 210.71C383.911 210.68 384.231 210.735 384.52 210.87L391.063 214.669C390.774 214.534 390.454 214.479 390.137 214.51C389.819 214.541 389.516 214.656 389.258 214.844V214.844Z" fill="#7F89A6"/>
<path d="M374.394 215.352C373.402 216.476 372.738 217.851 372.476 219.327C371.97 222.718 373.335 226.203 372.599 229.571C372.127 232.168 372.582 234.849 373.885 237.145C375.188 239.441 377.256 241.207 379.729 242.135C383.677 242.783 387.727 242.385 391.474 240.982C394.133 239.403 396.296 237.112 397.719 234.368C411.149 213.03 383.508 204.266 374.394 215.352Z" fill="#FFBFA2"/>
<path d="M376.322 222.018L369.924 218.303C369.204 218.773 368.604 219.406 368.174 220.15C367.744 220.895 367.495 221.73 367.448 222.588C367.448 223.404 367.448 224.208 367.448 225.04C367.448 225.626 367.422 226.219 367.448 226.802C367.472 227.149 367.571 227.487 367.736 227.793C367.901 228.099 368.13 228.366 368.407 228.577C368.916 229.004 369.512 229.312 370.028 229.733C370.228 229.92 370.445 230.088 370.676 230.235C370.902 230.356 371.144 230.445 371.395 230.498C371.848 230.63 372.325 230.656 372.789 230.572C373.01 230.525 373.217 230.426 373.392 230.283C373.566 230.14 373.704 229.957 373.794 229.749C373.896 229.313 373.919 228.862 373.862 228.418C373.862 227.712 373.862 227.006 373.862 226.3C373.908 225.444 374.155 224.61 374.582 223.866C375.009 223.123 375.605 222.49 376.322 222.018V222.018Z" fill="#2F80ED"/>
<path d="M376.321 222.018L369.924 218.303L383.38 210.539L389.781 214.254L376.321 222.018Z" fill="#56CCF2"/>
<path d="M403.836 224.807C403.749 225.435 403.661 226.07 403.538 226.695C403.451 227.169 403.334 227.638 403.188 228.098C403.063 228.493 402.912 228.881 402.737 229.257C402.053 230.672 401.234 232.019 400.291 233.277C399.19 235.159 397.628 236.732 395.753 237.847C394.892 238.225 393.989 238.504 393.063 238.676C391.676 239.117 390.202 239.218 388.767 238.97C387.332 238.722 385.978 238.132 384.819 237.251C384.008 236.254 383.527 235.031 383.441 233.749C383.35 232.573 383.174 231.405 382.913 230.255C382.832 229.953 382.751 229.655 382.66 229.357C382.521 228.877 382.331 228.412 382.093 227.971C381.714 227.244 381.074 226.687 380.301 226.413C378.972 226.008 377.384 226.763 376.217 225.992C375.662 225.536 375.254 224.925 375.047 224.237C374.778 223.589 374.542 222.85 374.273 222.135C373.955 221.195 373.497 220.308 372.915 219.505C372.576 219.132 372.267 218.734 371.991 218.313C371.59 217.77 371.329 217.137 371.229 216.47C371.407 214.864 371.906 213.31 372.696 211.9C373.487 210.491 374.553 209.255 375.832 208.266C376.97 207.169 378.285 206.272 379.721 205.61C381.01 205.097 382.361 204.756 383.739 204.596C387.794 203.787 392.002 204.316 395.731 206.102C396.716 206.577 397.527 207.348 398.051 208.308C398.132 208.536 398.241 208.754 398.375 208.956C398.61 209.182 398.889 209.358 399.195 209.471C400.102 209.882 400.925 210.458 401.623 211.168C404.932 214.543 404.458 220.308 403.836 224.807Z" fill="#4F4F4F"/>
<path d="M403.539 226.695C403.452 227.17 403.335 227.638 403.189 228.098C403.064 228.493 402.913 228.881 402.738 229.257C396.131 230.783 389.267 230.817 382.645 229.358C379.93 228.74 377.291 227.825 374.776 226.63C373.947 226.284 373.192 225.781 372.552 225.15C372.239 224.83 372.011 224.435 371.89 224.003C371.77 223.571 371.76 223.116 371.862 222.679C372.245 221.413 372.812 221.448 374.257 222.135C377.19 223.702 380.264 224.988 383.439 225.976C390.086 227.015 396.834 227.256 403.539 226.695V226.695Z" fill="#37404A"/>
<path d="M381.745 224.956C384.338 224.736 385.031 227.926 383.304 230.43C382.688 231.162 381.992 231.824 381.23 232.402C376.676 236.412 375.442 232.175 376.887 230.812C380.245 227.641 378.504 225.228 381.745 224.956Z" fill="#FFBFA2"/>
<path d="M381.05 229.83C381.345 229.552 384.255 227.767 382.23 226.621C382.098 226.563 381.954 226.538 381.811 226.548C381.667 226.558 381.528 226.602 381.406 226.678C381.283 226.753 381.181 226.857 381.108 226.981C381.034 227.105 380.992 227.245 380.985 227.388C380.946 227.693 381.05 228.004 381.008 228.308C380.98 228.489 380.916 228.661 380.82 228.817C380.564 229.247 379.682 229.668 379.867 230.287C380.029 230.844 380.885 229.989 381.05 229.83Z" fill="#F3A984"/>
<path d="M401.692 215.07C402.74 216.077 403.688 217.183 404.524 218.371C405.278 219.48 406.133 220.516 407.078 221.467C406.681 221.756 406.223 221.949 405.738 222.03C405.254 222.112 404.758 222.08 404.288 221.937C403.333 221.662 402.495 221.079 401.906 220.279C401.369 219.515 401.054 218.619 400.995 217.688C400.913 216.76 401.159 215.834 401.692 215.07Z" fill="#4F4F4F"/>
<path d="M395.919 211.194C395.927 209.741 396.076 208.293 396.363 206.87C396.649 205.559 396.812 204.224 396.849 202.882C397.333 202.97 397.79 203.169 398.184 203.463C398.578 203.758 398.897 204.14 399.118 204.58C399.577 205.462 399.731 206.471 399.555 207.449C399.375 208.359 398.946 209.201 398.317 209.882C397.698 210.588 396.848 211.052 395.919 211.194Z" fill="#4F4F4F"/>
<path d="M396.039 210.73C397.205 209.862 398.316 208.92 399.364 207.913C399.816 207.434 400.212 206.906 400.544 206.338C400.883 205.682 401.159 204.994 401.367 204.285C401.768 205.036 401.894 205.903 401.724 206.737C401.557 207.598 401.146 208.393 400.541 209.027C399.963 209.625 399.259 210.089 398.481 210.383C397.703 210.678 396.869 210.796 396.039 210.73Z" fill="#4F4F4F"/>
</svg>
