<svg width="700" height="150" viewBox="0 0 700 150" fill="none" xmlns="http://www.w3.org/2000/svg">
<mask id="mask0" mask-type="alpha" maskUnits="userSpaceOnUse" x="0" y="0" width="700" height="150">
<rect width="700" height="150" rx="20" fill="white"/>
</mask>
<g mask="url(#mask0)">
<path d="M230.275 95.8633C154.093 82.1925 75.7171 81.6377 -6 100.504V170H700V62C570.096 98.8754 456.392 136.471 230.275 95.8633Z" fill="url(#paint0_linear)"/>
<path d="M509.352 107.193C446.697 167.172 161.689 159.886 12.1677 139.706C5.89845 138.824 -0.12608 137.866 -6 136.861V170H700V32C549.227 32 548.059 70.1444 509.352 107.193Z" fill="url(#paint1_linear)"/>
<path d="M610.096 124.906V160.891H519.637C509.33 160.891 500.944 152.819 500.944 142.898C500.944 132.978 509.33 124.906 519.637 124.906H610.096Z" fill="#F2F2F2"/>
<path d="M612.318 160.616C612.318 160.983 612.172 161.335 611.911 161.594C611.651 161.854 611.298 162 610.929 162H518.025C512.979 162 508.14 160.002 504.572 156.446C501.004 152.891 499 148.068 499 143.039C499 138.01 501.004 133.188 504.572 129.632C508.14 126.076 512.979 124.078 518.025 124.078H610.929C611.298 124.078 611.651 124.224 611.911 124.483C612.172 124.743 612.318 125.095 612.318 125.462C612.318 125.829 612.172 126.181 611.911 126.441C611.651 126.7 611.298 126.846 610.929 126.846H518.025C513.716 126.846 509.583 128.552 506.536 131.589C503.489 134.626 501.777 138.744 501.777 143.039C501.777 147.334 503.489 151.452 506.536 154.489C509.583 157.526 513.716 159.232 518.025 159.232H610.929C611.298 159.232 611.651 159.378 611.911 159.638C612.172 159.897 612.318 160.249 612.318 160.616Z" fill="#0060B8"/>
<path d="M610.096 133.21H512.887C512.813 133.21 512.743 133.181 512.691 133.129C512.639 133.077 512.609 133.006 512.609 132.933C512.609 132.86 512.639 132.789 512.691 132.737C512.743 132.685 512.813 132.656 512.887 132.656H610.096C610.17 132.656 610.241 132.685 610.293 132.737C610.345 132.789 610.374 132.86 610.374 132.933C610.374 133.006 610.345 133.077 610.293 133.129C610.241 133.181 610.17 133.21 610.096 133.21Z" fill="#CCCCCC"/>
<path d="M610.096 139.854H512.887C512.813 139.854 512.743 139.825 512.691 139.773C512.639 139.721 512.609 139.651 512.609 139.578C512.609 139.504 512.639 139.434 512.691 139.382C512.743 139.33 512.813 139.301 512.887 139.301H610.096C610.17 139.301 610.241 139.33 610.293 139.382C610.345 139.434 610.374 139.504 610.374 139.578C610.374 139.651 610.345 139.721 610.293 139.773C610.241 139.825 610.17 139.854 610.096 139.854Z" fill="#CCCCCC"/>
<path d="M610.096 146.497H512.887C512.813 146.497 512.743 146.468 512.691 146.416C512.639 146.364 512.609 146.294 512.609 146.22C512.609 146.147 512.639 146.076 512.691 146.024C512.743 145.973 512.813 145.943 512.887 145.943H610.096C610.17 145.943 610.241 145.973 610.293 146.024C610.345 146.076 610.374 146.147 610.374 146.22C610.374 146.294 610.345 146.364 610.293 146.416C610.241 146.468 610.17 146.497 610.096 146.497Z" fill="#CCCCCC"/>
<path d="M680.009 131.681L657.355 159.701L586.916 103.136C578.89 96.6916 577.442 85.1629 583.687 77.4379C589.933 69.7129 601.544 68.6713 609.569 75.1161L680.009 131.681Z" fill="#F2F2F2"/>
<path d="M659.259 160.873C659.028 161.159 658.692 161.341 658.326 161.38C657.96 161.42 657.593 161.312 657.306 161.082L584.963 102.989C581.034 99.8341 578.524 95.2526 577.984 90.2527C577.445 85.2528 578.92 80.244 582.086 76.3282C585.252 72.4124 589.849 69.9104 594.865 69.3725C599.882 68.8346 604.908 70.305 608.837 73.4602L681.18 131.553C681.322 131.667 681.44 131.808 681.528 131.968C681.615 132.127 681.67 132.302 681.69 132.483C681.709 132.664 681.693 132.847 681.642 133.021C681.59 133.196 681.505 133.358 681.39 133.5C681.276 133.641 681.135 133.759 680.975 133.846C680.814 133.933 680.639 133.988 680.457 134.008C680.276 134.027 680.092 134.011 679.917 133.959C679.742 133.908 679.579 133.823 679.437 133.709L607.095 75.6156C605.433 74.2804 603.524 73.2845 601.476 72.6848C599.429 72.085 597.283 71.8932 595.161 72.1203C593.039 72.3474 590.982 72.9889 589.109 74.0082C587.236 75.0275 585.583 76.4046 584.243 78.0609C582.904 79.7172 581.906 81.6201 581.305 83.6611C580.704 85.7021 580.512 87.841 580.741 89.9558C580.97 92.0706 581.614 94.1197 582.638 95.9862C583.661 97.8527 585.044 99.4999 586.706 100.834L659.049 158.927C659.335 159.157 659.519 159.492 659.558 159.857C659.597 160.221 659.49 160.587 659.259 160.873Z" fill="#CCCCCC"/>
<path d="M674.781 138.146L599.086 77.3615C599.058 77.3387 599.034 77.3105 599.016 77.2786C598.999 77.2467 598.988 77.2117 598.984 77.1755C598.98 77.1394 598.983 77.1029 598.994 77.068C599.004 77.0331 599.021 77.0006 599.044 76.9723C599.067 76.944 599.095 76.9204 599.127 76.903C599.159 76.8856 599.194 76.8746 599.23 76.8707C599.267 76.8668 599.303 76.8701 599.338 76.8803C599.373 76.8906 599.406 76.9076 599.434 76.9304L675.129 137.715C675.158 137.738 675.181 137.766 675.199 137.798C675.216 137.83 675.228 137.865 675.231 137.901C675.235 137.938 675.232 137.974 675.222 138.009C675.212 138.044 675.194 138.077 675.172 138.105C675.149 138.133 675.12 138.157 675.088 138.174C675.056 138.192 675.021 138.203 674.985 138.206C674.949 138.21 674.912 138.207 674.877 138.197C674.842 138.186 674.809 138.169 674.781 138.146V138.146Z" fill="#CCCCCC"/>
<path d="M670.598 143.32L594.904 82.5351C594.846 82.489 594.81 82.4221 594.802 82.3492C594.794 82.2763 594.816 82.2032 594.862 82.1461C594.908 82.089 594.975 82.0525 595.048 82.0446C595.121 82.0367 595.195 82.0581 595.252 82.104L670.947 142.889C670.975 142.912 670.999 142.94 671.017 142.972C671.034 143.004 671.045 143.039 671.049 143.075C671.053 143.111 671.05 143.148 671.039 143.183C671.029 143.218 671.012 143.25 670.989 143.278C670.966 143.307 670.938 143.33 670.906 143.348C670.874 143.365 670.839 143.376 670.802 143.38C670.766 143.384 670.729 143.381 670.694 143.37C670.659 143.36 670.627 143.343 670.598 143.32Z" fill="#CCCCCC"/>
<path d="M666.416 148.492L590.721 87.7072C590.664 87.6611 590.627 87.5942 590.619 87.5213C590.611 87.4483 590.633 87.3751 590.679 87.318C590.725 87.2608 590.792 87.2243 590.866 87.2164C590.939 87.2086 591.012 87.23 591.07 87.2761L666.765 148.061C666.793 148.084 666.817 148.112 666.834 148.144C666.852 148.176 666.863 148.211 666.866 148.247C666.87 148.283 666.867 148.32 666.857 148.355C666.847 148.389 666.829 148.422 666.807 148.45C666.784 148.479 666.755 148.502 666.723 148.52C666.691 148.537 666.656 148.548 666.62 148.552C666.584 148.556 666.547 148.552 666.512 148.542C666.477 148.532 666.444 148.515 666.416 148.492V148.492Z" fill="#CCCCCC"/>
<path d="M662.234 153.666L586.539 92.881C586.511 92.8582 586.487 92.83 586.47 92.7981C586.452 92.7662 586.441 92.7312 586.437 92.6951C586.433 92.6589 586.437 92.6224 586.447 92.5875C586.457 92.5526 586.474 92.5201 586.497 92.4918C586.52 92.4635 586.548 92.44 586.58 92.4225C586.612 92.4051 586.647 92.3941 586.684 92.3903C586.72 92.3864 586.757 92.3896 586.792 92.3999C586.827 92.4101 586.859 92.4271 586.888 92.4499L662.582 153.235C662.611 153.258 662.635 153.286 662.652 153.318C662.67 153.35 662.681 153.385 662.685 153.421C662.688 153.457 662.685 153.494 662.675 153.529C662.665 153.563 662.648 153.596 662.625 153.624C662.602 153.653 662.574 153.676 662.541 153.694C662.509 153.711 662.474 153.722 662.438 153.726C662.402 153.73 662.365 153.726 662.33 153.716C662.295 153.706 662.262 153.689 662.234 153.666Z" fill="#CCCCCC"/>
<path d="M572.314 121.126L569.139 121.126L567.629 108.92L572.315 108.92L572.314 121.126Z" fill="#FFB8B8"/>
<path d="M566.871 120.221H572.995V124.063H563.016C563.016 123.559 563.115 123.059 563.309 122.593C563.503 122.127 563.787 121.703 564.145 121.346C564.503 120.989 564.928 120.706 565.396 120.513C565.864 120.32 566.365 120.221 566.871 120.221Z" fill="#2F2E41"/>
<path d="M539.876 121.126L536.701 121.126L535.19 108.92L539.877 108.92L539.876 121.126Z" fill="#FFB8B8"/>
<path d="M534.433 120.221H540.556V124.063H530.577C530.577 123.559 530.677 123.059 530.871 122.593C531.064 122.127 531.348 121.703 531.706 121.346C532.064 120.989 532.489 120.706 532.957 120.513C533.425 120.32 533.926 120.221 534.433 120.221Z" fill="#2F2E41"/>
<path d="M550.481 30.5863V29.2023C550.481 26.8347 551.425 24.5641 553.105 22.89C554.785 21.2159 557.063 20.2754 559.439 20.2754H559.439C561.814 20.2754 564.092 21.2159 565.772 22.89C567.452 24.5641 568.396 26.8347 568.396 29.2023V30.5863C568.396 32.2931 567.715 33.9301 566.504 35.137C565.293 36.3439 563.651 37.0219 561.938 37.0219H556.939C556.091 37.0219 555.251 36.8555 554.468 36.5321C553.684 36.2086 552.972 35.7346 552.373 35.137C551.773 34.5394 551.298 33.8299 550.973 33.0491C550.648 32.2683 550.481 31.4314 550.481 30.5863Z" fill="#2F2E41"/>
<path d="M559.438 37.4975C563.206 37.4975 566.26 34.4537 566.26 30.6989C566.26 26.9442 563.206 23.9004 559.438 23.9004C555.671 23.9004 552.617 26.9442 552.617 30.6989C552.617 34.4537 555.671 37.4975 559.438 37.4975Z" fill="#FFB8B8"/>
<path d="M522.333 54.0639C522.61 53.8033 522.941 53.6065 523.302 53.4872C523.664 53.3678 524.047 53.3289 524.425 53.3732C524.803 53.4175 525.167 53.5438 525.491 53.7434C525.815 53.9429 526.091 54.2108 526.299 54.5282L532.147 53.4258L533.686 56.804L525.406 58.2452C524.848 58.5593 524.193 58.6585 523.567 58.5238C522.94 58.3892 522.385 58.0302 522.006 57.5148C521.627 56.9994 521.451 56.3634 521.512 55.7274C521.572 55.0913 521.864 54.4994 522.333 54.0638V54.0639Z" fill="#FFB8B8"/>
<path d="M554.12 41.78L554.197 41.8954L544.607 48.1911L528.427 53.3406C528.212 53.4092 528.028 53.5499 527.906 53.7386C527.784 53.9272 527.731 54.1522 527.757 54.3753L528.11 57.4054C528.125 57.5395 528.169 57.6688 528.238 57.7852C528.307 57.9015 528.399 58.0022 528.509 58.0809C528.619 58.1596 528.745 58.2144 528.877 58.242C529.01 58.2695 529.147 58.2692 529.279 58.2409L544.508 54.9877C545.245 54.8312 545.941 54.5254 546.555 54.0893L557.328 46.4505C557.718 46.172 558.03 45.7976 558.232 45.3636C558.435 44.9296 558.521 44.4508 558.483 43.9738C558.443 43.4961 558.28 43.0369 558.008 42.6413C557.737 42.2457 557.366 41.9274 556.934 41.7177C556.501 41.508 556.022 41.4141 555.542 41.4453C555.062 41.4765 554.598 41.6316 554.197 41.8954L554.12 41.78Z" fill="#CCCCCC"/>
<path d="M569.196 117.66C568.952 117.66 568.714 117.589 568.51 117.456C568.306 117.324 568.145 117.134 568.047 116.912L553.49 81.0659C553.456 80.9882 553.399 80.9227 553.327 80.8782C553.254 80.8337 553.17 80.8125 553.085 80.8172C553 80.822 552.919 80.8526 552.852 80.9049C552.785 80.9572 552.735 81.0286 552.71 81.1097L540.835 116.007C540.784 116.17 540.702 116.32 540.591 116.449C540.48 116.579 540.344 116.684 540.191 116.759C540.038 116.834 539.871 116.877 539.701 116.885C539.531 116.894 539.361 116.867 539.201 116.807L535.219 115.319C535.003 115.239 534.813 115.101 534.671 114.92C534.529 114.739 534.44 114.522 534.414 114.294C532.623 98.7395 548.246 59.4786 548.404 59.084L548.447 58.9746L562.689 62.1143L562.719 62.1465C568.401 68.3241 573.071 107.288 573.95 115.036C573.982 115.316 573.918 115.599 573.768 115.837C573.618 116.076 573.391 116.257 573.124 116.35L569.609 117.589C569.477 117.636 569.337 117.66 569.196 117.66Z" fill="#2F2E41"/>
<path d="M556.925 63.378C553.475 63.378 549.628 62.6923 548.443 59.8624L548.416 59.7974L548.453 59.7371C549.388 58.2088 550.623 55.6016 549.959 55.1122C548.651 54.1484 548.016 52.5628 548.073 50.3995C548.195 45.7033 551.406 41.5339 556.062 40.0243H556.062C557.362 39.6098 558.685 39.2704 560.024 39.0078C561 38.8115 562.008 38.8331 562.974 39.071C563.941 39.309 564.843 39.7573 565.615 40.384C566.397 41.0147 567.029 41.8102 567.466 42.7133C567.903 43.6165 568.134 44.6048 568.142 45.6074C568.19 50.626 567.415 57.616 563.444 62.4148C563.258 62.6375 562.999 62.7876 562.713 62.8387C560.803 63.1831 558.866 63.3635 556.925 63.378Z" fill="#CCCCCC"/>
<path d="M555.642 63.1921C555.829 62.5208 556.275 61.9505 556.883 61.605C557.49 61.2596 558.21 61.1671 558.885 61.3475C559.023 61.3859 559.158 61.4355 559.287 61.4959L563.727 57.4688L566.815 59.5421L560.466 65.142C560.179 65.6572 559.728 66.0621 559.183 66.2921C558.639 66.5222 558.033 66.5643 557.462 66.4116C557.13 66.3209 556.819 66.1654 556.547 65.954C556.275 65.7427 556.048 65.4797 555.878 65.1804C555.709 64.881 555.601 64.5511 555.56 64.2099C555.52 63.8686 555.547 63.5227 555.642 63.1921Z" fill="#FFB8B8"/>
<path d="M563.024 63.2404C562.736 63.2406 562.457 63.1413 562.234 62.9595L560.483 61.5334C560.337 61.4145 560.22 61.2643 560.14 61.0939C560.061 60.9236 560.021 60.7375 560.024 60.5497C560.027 60.3618 560.072 60.1771 560.157 60.0092C560.242 59.8414 560.364 59.6948 560.513 59.5805L567.857 53.967C567.944 53.9002 568.001 53.8018 568.016 53.6932C568.031 53.5847 568.002 53.4747 567.936 53.3872L563.403 47.4149C562.876 46.7233 562.612 45.8684 562.657 45.0013C562.702 44.1343 563.054 43.3112 563.649 42.6776C564.277 42.0025 565.136 41.587 566.056 41.5136C566.976 41.4403 567.891 41.7144 568.618 42.2816L568.646 42.3118L573.38 49.0664C573.891 49.4663 574.304 49.9788 574.584 50.5637C574.864 51.1487 575.005 51.7903 574.995 52.4384C574.985 53.0865 574.826 53.7236 574.528 54.3C574.23 54.8764 573.803 55.3764 573.28 55.761L563.768 62.9962C563.553 63.1548 563.292 63.2404 563.024 63.2404Z" fill="#CCCCCC"/>
<path d="M553.396 28.7879V25.4148L559.438 22.7852L565.2 25.4148V28.7879C565.2 28.9348 565.141 29.0756 565.037 29.1794C564.933 29.2832 564.792 29.3415 564.644 29.3415H553.951C553.804 29.3415 553.663 29.2832 553.559 29.1794C553.455 29.0756 553.396 28.9348 553.396 28.7879Z" fill="#2F2E41"/>
<path d="M559.161 20.7227C558.273 17.8886 560.138 14.6407 562.897 13.5189C565.655 12.3971 568.955 13.1813 571.283 15.0346C573.61 16.888 575.054 19.664 575.82 22.5335C576.585 25.4031 576.73 28.3953 576.871 31.3611C580.26 31.9815 582.566 35.9877 581.392 39.2163C580.218 42.4449 575.872 44.0489 572.871 42.3614C569.87 40.6739 569.001 36.1376 571.167 33.4667C572.192 32.2029 572.764 30.6345 572.794 29.0098C572.823 27.3851 572.308 25.7971 571.329 24.4973C570.351 23.1974 568.966 22.26 567.392 21.8335C565.819 21.4071 564.148 21.5159 562.644 22.1428C560.973 22.839 558.878 21.0303 559.161 20.7227Z" fill="#2F2E41"/>
<path d="M521.08 40.9806C517.023 40.9541 513.016 40.0795 509.319 38.4133C509.098 38.3156 508.912 38.1561 508.781 37.9544C508.65 37.7527 508.581 37.5175 508.582 37.2773V27.1968C508.582 26.8665 508.714 26.5499 508.949 26.3164C509.183 26.0829 509.501 25.9515 509.832 25.9512H532.329C532.66 25.9515 532.978 26.0829 533.212 26.3164C533.447 26.5499 533.578 26.8665 533.579 27.1968V37.2774C533.58 37.5175 533.511 37.7527 533.38 37.9544C533.249 38.1561 533.062 38.3156 532.842 38.4134C529.145 40.0795 525.138 40.9541 521.08 40.9806Z" fill="#0080F6"/>
<path d="M521.077 32.8152C520.91 32.8153 520.745 32.7823 520.592 32.7179L502.752 25.2167C502.522 25.1199 502.326 24.9567 502.19 24.7481C502.054 24.5395 501.983 24.2951 501.988 24.0463C501.993 23.7975 502.072 23.5557 502.216 23.3522C502.359 23.1487 502.561 22.9928 502.794 22.9045L520.634 16.1595C520.922 16.0504 521.239 16.051 521.526 16.1614L539.127 22.9064C539.359 22.9954 539.56 23.1513 539.702 23.3544C539.845 23.5574 539.924 23.7982 539.928 24.046C539.933 24.2938 539.863 24.5374 539.728 24.7455C539.593 24.9537 539.399 25.1169 539.17 25.2144L521.569 32.7155C521.413 32.7814 521.246 32.8153 521.077 32.8152Z" fill="#0080F6"/>
<path d="M510.665 39.097C511.585 39.097 512.331 38.3534 512.331 37.4362C512.331 36.519 511.585 35.7754 510.665 35.7754C509.745 35.7754 508.999 36.519 508.999 37.4362C508.999 38.3534 509.745 39.097 510.665 39.097Z" fill="#3F3D56"/>
<path opacity="0.2" d="M539.231 24.1487L521.63 31.6498C521.493 31.7083 521.345 31.7386 521.196 31.739C521.046 31.7393 520.899 31.7097 520.761 31.6519L502.921 24.1509C502.697 24.0589 502.51 23.8952 502.39 23.6856C502.311 23.8215 502.263 23.9726 502.247 24.1287C502.232 24.2849 502.249 24.4426 502.3 24.5913C502.35 24.74 502.431 24.8764 502.539 24.9914C502.646 25.1063 502.776 25.1973 502.921 25.2581L520.761 32.7591C520.899 32.8169 521.046 32.8465 521.196 32.8462C521.345 32.8458 521.493 32.8155 521.63 32.757L539.231 25.2559C539.375 25.1945 539.505 25.1033 539.612 24.9883C539.718 24.8733 539.799 24.7371 539.848 24.5887C539.898 24.4403 539.916 24.283 539.9 24.1273C539.884 23.9717 539.836 23.8211 539.757 23.6855C539.638 23.8935 539.453 24.0563 539.231 24.1487Z" fill="black"/>
<path d="M510.805 37.4321C510.879 37.4321 510.949 37.4029 511.001 37.351C511.054 37.2991 511.083 37.2287 511.083 37.1553V27.8931L520.243 24.5673C520.317 24.5684 520.388 24.5403 520.441 24.4891C520.494 24.438 520.524 24.368 520.525 24.2946C520.526 24.2212 520.498 24.1503 520.447 24.0977C520.395 24.045 520.325 24.0148 520.251 24.0137L511.091 27.3395C511.017 27.3378 510.944 27.351 510.876 27.3784C510.807 27.4058 510.745 27.4467 510.693 27.4987C510.64 27.5501 510.599 27.6114 510.57 27.6792C510.542 27.7469 510.527 27.8197 510.527 27.8931V37.1553C510.527 37.2287 510.557 37.2991 510.609 37.351C510.661 37.4029 510.731 37.4321 510.805 37.4321Z" fill="#3F3D56"/>
</g>
<defs>
<linearGradient id="paint0_linear" x1="347.019" y1="90.0561" x2="347.019" y2="169.186" gradientUnits="userSpaceOnUse">
<stop stop-color="#56CCF2"/>
<stop offset="1" stop-color="#2F80ED"/>
</linearGradient>
<linearGradient id="paint1_linear" x1="-5.97176" y1="100.998" x2="1120.51" y2="100.998" gradientUnits="userSpaceOnUse">
<stop stop-color="#56CCF2"/>
<stop offset="1" stop-color="white" stop-opacity="0"/>
</linearGradient>
</defs>
</svg>
