<svg width="18" height="16" viewBox="0 0 18 16" fill="none" xmlns="http://www.w3.org/2000/svg">
<path d="M1.68691 0H16.3235C16.8275 0 17.2286 0.39 17.2286 0.88V15.12C17.2286 15.6 16.8275 16 16.3235 16H12.1269V9.8H14.2663L14.5852 7.39H12.1269V5.85C12.1269 5.15 12.3326 4.67 13.3612 4.67H14.6778V2.51C14.4515 2.48 13.6698 2.42 12.7646 2.42C10.8618 2.42 9.56577 3.54 9.56577 5.61V7.39H7.41606V9.8H9.56577V16H1.68691C1.4459 16 1.2146 15.9076 1.04322 15.7429C0.871833 15.5781 0.774192 15.3543 0.771484 15.12V0.88C0.771484 0.39 1.18291 0 1.68691 0Z" fill="white"/>
</svg>
