<svg width="346" height="392" viewBox="0 0 346 392" fill="none" xmlns="http://www.w3.org/2000/svg">
<g clip-path="url(#clip0)">
<path opacity="0.1" d="M346.003 311.517L232.478 376.892L74.7344 285.74L188.301 220.365L346.003 311.517Z" fill="#15D9FD"/>
<path opacity="0.2" d="M346.003 291.925L232.478 357.341L74.7344 266.19L188.301 200.773L346.003 291.925Z" fill="#15D9FD"/>
<path opacity="0.3" d="M346.003 272.375L232.478 337.749L74.7344 246.598L188.301 181.223L346.003 272.375Z" fill="#15D9FD"/>
<path opacity="0.4" d="M346.003 252.824L232.478 318.199L74.7344 227.048L188.301 161.632L346.003 252.824Z" fill="#15D9FD"/>
<path opacity="0.5" d="M346.003 233.232L232.478 298.607L74.7344 207.456L188.301 142.081L346.003 233.232Z" fill="#15D9FD"/>
<g style="mix-blend-mode:multiply" opacity="0.2">
<path d="M153.189 195.087C128.058 209.49 127.934 232.984 152.9 247.636C177.865 262.288 218.522 262.496 243.654 248.093C268.785 233.689 268.951 210.196 243.943 195.585C218.936 180.974 178.279 180.684 153.189 195.087Z" fill="#010958"/>
</g>
<path d="M108.019 322.64C97.1627 328.197 86.6044 334.321 76.388 340.987C73.5049 342.305 70.7353 343.86 68.1075 345.636C65.4417 347.927 63.5713 351.009 62.7666 354.435C62.4768 358.337 70.3432 361.243 73.3656 362.197C77.4399 363.521 81.7765 363.821 85.9933 363.069C89.8465 362.318 93.2761 360.14 95.5987 356.967C97.7908 353.811 100.737 351.257 104.169 349.537C107.647 348.666 111.787 349.039 114.271 346.549C115.505 345.169 116.336 343.474 116.673 341.651C117.501 338.289 117.335 334.719 118.163 331.44C119.107 328.985 119.638 326.39 119.736 323.761C119.516 322.644 118.983 321.612 118.198 320.789C117.413 319.965 116.41 319.383 115.306 319.112C113.036 318.554 110.639 318.881 108.599 320.025L108.019 322.64Z" fill="#1E1E1E"/>
<path d="M185.772 142.164C190.699 130.708 195.336 115.599 201.753 96.8379C203.514 91.7329 204.464 86.3824 204.569 80.9819C204.47 75.7303 203.045 70.5894 200.428 66.0391C199.973 64.8526 199.267 63.7786 198.36 62.8904C197.452 62.0021 196.364 61.3206 195.17 60.8921C194.036 60.8021 192.896 60.9472 191.82 61.3186C190.745 61.69 189.757 62.2795 188.918 63.0505C178.154 71.3521 172.358 84.8837 169.708 97.7926C167.389 109.788 167.969 124.067 167.017 136.353C167.017 138.678 167.845 158.726 175.297 155.322C180.146 152.221 183.831 147.593 185.772 142.164V142.164Z" fill="#B7794F"/>
<path d="M183.327 130.708C180.719 128.674 171.279 124.524 169.747 127.056C168.629 128.799 162.336 141.459 157.078 148.764C163.932 153.687 170.308 159.246 176.123 165.367C183.99 155.82 191.111 145.236 190.987 138.595C190.863 135.108 186.805 133.365 183.327 130.708Z" fill="#B7794F"/>
<path d="M154.929 346.134C145.704 353.873 136.9 362.103 128.556 370.789C126.073 373.169 123.775 375.736 121.683 378.468C119.562 380.717 118.352 383.676 118.288 386.77C118.868 390.589 127.065 391.668 130.171 391.917C134.408 392.297 138.673 391.627 142.591 389.966C146.251 388.488 149.211 385.668 150.872 382.08C152.224 378.563 154.447 375.449 157.331 373.031C160.27 371.08 164.41 370.706 166.315 367.718C167.21 366.127 167.627 364.311 167.516 362.488C167.516 359.043 166.688 355.681 166.77 352.318C167.162 349.788 167.162 347.212 166.77 344.681C166.308 343.667 165.569 342.805 164.639 342.195C163.708 341.586 162.624 341.253 161.512 341.236C159.188 341.179 156.932 342.027 155.219 343.602L154.929 346.134Z" fill="#1E1E1E"/>
<path d="M251.27 162.462C250.732 166.612 250.359 171.095 250.193 175.454C250.318 171.178 250.69 166.82 251.27 162.462Z" fill="#F3A984"/>
<path d="M250.11 175.537C250.11 178.152 250.11 180.808 250.11 183.465C250.027 180.767 250.027 178.152 250.11 175.537Z" fill="#F3A984"/>
<path d="M98.7848 226.674C92.4503 230.825 85.3704 258.386 109.756 259.424C122.177 259.964 133.811 252.866 145.114 247.262C160.723 239.625 177.449 234.519 193.224 227.255C198.128 225.159 202.758 222.468 207.011 219.244C212.043 215.113 215.99 209.81 218.509 203.797C221.028 197.785 222.041 191.246 221.46 184.751C221.365 182.92 220.9 181.127 220.094 179.48C215.954 171.926 189.166 174.458 182.832 177.529C159.978 188.944 105.285 222.399 98.7848 226.674Z" fill="#262626"/>
<path d="M91.3358 246.308C91.667 253.032 92.2881 259.673 93.2817 266.398C94.3996 273.828 95.5589 281.299 95.9315 288.812C96.3041 296.325 95.9315 305 95.9315 313.094C95.7204 318.176 96.1376 323.265 97.1736 328.244C97.554 330.668 98.8058 332.867 100.693 334.429C103.237 335.914 106.053 336.874 108.973 337.252C110.964 337.565 112.999 337.438 114.935 336.878C121.311 334.803 121.56 325.837 122.843 320.275C124.127 314.713 124.913 310.022 125.617 304.792C126.942 294.623 127.397 284.371 127.977 274.118C128.35 267.269 128.681 260.462 128.432 253.655C128.703 247.409 127.571 241.182 125.12 235.433C123.485 232.699 121.294 230.34 118.691 228.509C116.087 226.679 113.129 225.417 110.008 224.807C106.826 223.987 103.461 224.266 100.456 225.599C97.4512 226.932 94.9822 229.241 93.4473 232.154C91.607 235.869 90.7922 240.011 91.0874 244.149L91.3358 246.308Z" fill="#262626"/>
<path d="M140.475 250.334C134.761 255.066 129.793 284.121 152.896 283.54C164.861 283.208 175.253 275.239 185.645 268.514C218.767 247.511 260.169 240.164 254.042 198.449C253.462 194.63 252.427 178.401 249.488 176.574C247.335 175.246 235.369 179.48 232.678 179.937C206.802 184.087 203.448 184.336 199.184 187.283C198.438 206.751 195.333 210.154 184.693 216.339C179.89 219.411 144.905 246.806 140.475 250.334Z" fill="#333333"/>
<path d="M135.468 269.801C136.296 276.484 137.331 283.083 138.78 289.725C140.395 297.072 142.051 304.418 142.921 311.89C143.79 319.361 143.873 328.078 144.535 336.13C144.673 341.211 145.423 346.257 146.771 351.156C147.328 353.522 148.745 355.594 150.746 356.967C153.393 358.286 156.281 359.049 159.233 359.209C161.238 359.4 163.259 359.145 165.154 358.462C171.406 355.971 171.033 347.005 171.944 341.402C172.775 336.232 173.342 331.023 173.641 325.795C174.304 315.501 174.097 305.041 173.973 294.955C173.973 288.147 173.724 281.34 173.062 274.533C172.866 268.294 171.312 262.174 168.507 256.601C166.692 253.978 164.345 251.768 161.62 250.116C158.894 248.464 155.852 247.407 152.692 247.013C149.511 246.443 146.231 246.949 143.368 248.452C140.505 249.955 138.221 252.369 136.876 255.315C135.232 259.113 134.659 263.291 135.22 267.393L135.468 269.801Z" fill="#333333"/>
<path d="M251.27 78.5747C239.343 71.4703 226.574 65.8925 213.263 61.9715C192.272 55.3718 189.332 63.0507 183.329 79.8199C177.698 95.4683 179.189 121.328 181.838 137.931C183.169 146.731 183.984 155.601 184.281 164.496C184.212 167.767 183.894 171.028 183.329 174.25C182.992 175.613 182.992 177.038 183.329 178.401C184.534 180.207 186.082 181.758 187.883 182.967C194.552 188.236 202.675 191.323 211.151 191.808C223.148 192.384 235.145 190.68 246.509 186.786C248.938 186.232 251.145 184.96 252.844 183.133C254.024 181.304 254.722 179.204 254.872 177.031C255.859 170.156 256.398 163.223 256.487 156.277C256.487 153.164 256.487 150.01 256.735 146.855C257.195 142.269 257.97 137.72 259.054 133.24C260.42 127.014 261.787 120.788 263.194 114.686C263.898 111.573 264.643 108.502 265.389 105.43C266.154 103.308 266.601 101.084 266.713 98.8305C266.299 89.6572 258.226 83.3066 251.27 78.5747Z" fill="#F2994A"/>
<path d="M223.819 125.188C219.43 147.145 214.793 169.726 193.554 180.725C191.903 181.561 190.324 182.533 188.834 183.631C195.255 188.498 202.953 191.383 210.984 191.932C223.044 192.49 235.099 190.743 246.508 186.785C248.937 186.232 251.144 184.959 252.842 183.133C254.023 181.304 254.721 179.204 254.871 177.031C255.857 170.155 256.397 163.223 256.486 156.277C256.486 153.164 256.485 150.009 256.734 146.855C257.194 142.269 257.968 137.72 259.052 133.24C260.419 127.014 261.785 120.788 263.193 114.686C263.897 111.573 264.642 108.502 265.387 105.43C266.153 103.308 266.599 101.084 266.712 98.8302C266.657 97.5779 266.448 96.3372 266.091 95.136C262.53 96.6303 258.928 97.9585 255.368 99.2868C242.491 104.517 226.386 111.615 223.819 125.188Z" fill="#B7794F"/>
<path d="M262.909 170.182C266.553 158.27 269.575 142.746 274.005 123.403C275.224 118.142 275.602 112.72 275.123 107.339C274.501 102.109 272.532 97.1308 269.41 92.8947C268.836 91.7668 268.023 90.7777 267.03 89.9964C266.036 89.2151 264.884 88.6602 263.655 88.3704C262.514 88.4008 261.392 88.6672 260.359 89.1529C259.326 89.6386 258.404 90.3331 257.651 91.1929C247.797 100.449 243.326 114.603 242.208 127.72C241.173 139.923 238.441 151.919 237.53 164.164C237.261 166.55 237.261 168.958 237.53 171.345C238.937 182.469 246.969 188.529 254.091 184.336C258.512 180.727 261.614 175.749 262.909 170.182V170.182Z" fill="#F2994A"/>
<path d="M212.764 174.333L205.685 180.393C202.538 175.412 202.455 174.997 199.516 169.975C199.516 140.338 200.675 112.486 207.796 84.095L214.669 88.9514C210.261 117.201 209.62 145.914 212.764 174.333V174.333Z" fill="#4F4F4F"/>
<path d="M204.816 83.2234C204.791 83.3606 204.791 83.5012 204.816 83.6385C204.971 84.5572 205.25 85.4508 205.644 86.295C206.235 88.0407 206.997 89.7231 207.921 91.3174C208.345 92.2042 209.042 92.9314 209.908 93.3928C210.437 93.5637 210.997 93.615 211.548 93.5433C212.1 93.4715 212.628 93.2784 213.096 92.9777C214.214 92.3551 216.201 91.442 215.953 90.0722C215.715 88.8537 215.368 87.659 214.918 86.5025C214.278 83.8684 212.83 81.5019 210.777 79.7367C208.335 78.1179 206.637 80.5669 205.312 82.3933C205.091 82.6327 204.922 82.9153 204.816 83.2234V83.2234Z" fill="#444444"/>
<path d="M235.743 71.1861C235.743 65.209 231.603 63.6317 232.721 52.3C233.135 48.4813 237.275 43.0023 226.511 43.2098C223.559 43.3243 220.642 43.8841 217.857 44.8701C207.797 48.1908 206.348 50.6812 205.727 71.5597C214.297 70.7295 221.874 61.2657 230.568 66.8693C232.77 68.5727 234.496 70.8175 235.578 73.386C235.675 72.6565 235.731 71.922 235.743 71.1861V71.1861Z" fill="#EE9C76"/>
<path d="M230.613 66.8693C221.877 61.2657 214.3 70.7295 205.771 71.5597C205.791 71.8637 205.791 72.1688 205.771 72.4728C205.357 87.2911 233.552 87.7477 235.705 73.386C234.6 70.808 232.845 68.5623 230.613 66.8693V66.8693Z" fill="#F5A783"/>
<path d="M210.78 81.3969C210.241 83.1817 207.881 83.8044 206.35 84.8006C205.687 85.2571 204.486 86.1288 203.617 85.9628C202.748 85.7967 202.168 84.593 201.878 83.8459C199.648 78.4615 198.468 72.6988 198.4 66.8692C198.295 65.9392 198.393 64.9976 198.686 64.109C198.979 63.2205 199.461 62.4062 200.098 61.7222C200.806 61.1593 201.65 60.7938 202.544 60.6626C203.438 60.5315 204.351 60.6392 205.19 60.9751C206.888 61.7222 207.302 65.1258 206.681 66.6201C205.756 69.2057 205.654 72.0152 206.388 74.6616C207.122 77.3079 208.656 79.6611 210.78 81.3969V81.3969Z" fill="white"/>
<path d="M210.529 81.48C212.227 84.1126 214.244 86.5245 216.533 88.6608C217.319 89.408 217.982 90.2796 219.058 89.9476C224.399 88.2458 235.619 78.782 237.813 72.8463C238.642 70.6879 237.068 67.9899 235.868 66.2881C235.619 65.9976 233.922 63.6731 233.59 63.4656C232.787 66.0262 231.704 68.4901 230.361 70.8125C227.97 73.8679 224.973 76.3933 221.56 78.2294C218.147 80.0654 214.391 81.1722 210.529 81.48Z" fill="white"/>
<path d="M192.313 16.0634C189.937 19.778 188.686 24.1032 188.711 28.5158C188.731 30.4529 189.067 32.3736 189.704 34.2023C190.571 35.8474 191.146 37.6312 191.402 39.4738C191.001 41.8347 190.232 44.1178 189.125 46.2396C188.322 48.0903 188.219 50.1709 188.835 52.0922C189.353 53.127 189.963 54.1133 190.657 55.0393C193.596 59.6466 190.657 66.4539 195.915 69.733C197.177 70.4501 198.604 70.8223 200.055 70.8122C204.754 70.1123 209.354 68.8584 213.759 67.0765C217.561 64.817 220.893 61.8433 223.572 58.3184C226.181 55.8439 228.476 53.0556 230.403 50.0168C230.817 49.1452 229.823 48.9791 230.693 48.5641C231.562 48.149 231.893 44.9114 232.473 44.8283C233.303 44.588 234.067 44.1622 234.709 43.5831C235.868 42.836 236.406 45.617 236.779 44.2887C238.762 38.7936 239.893 33.0262 240.133 27.1875C240.634 22.0251 239.41 16.8421 236.655 12.4522C233.95 9.04243 230.352 6.45528 226.263 4.98082C220.066 2.69993 213.282 2.58293 207.011 4.64876C200.96 6.66937 195.777 10.6952 192.313 16.0634Z" fill="#FFBFA2"/>
<path d="M240.137 27.1878C240.638 22.0254 239.414 16.8424 236.659 12.4525C233.954 9.04266 230.356 6.45551 226.267 4.98106C222.555 3.57944 218.592 2.97148 214.633 3.19622C208.754 14.9844 217.282 30.1348 210.865 42.3796C208.712 45.2852 204.406 47.4436 204.406 51.0132C202.957 57.4885 209.375 63.4656 205.855 69.6918C208.586 68.9934 211.269 68.1199 213.887 67.0768C217.645 64.8043 220.934 61.8314 223.576 58.3186C226.185 55.8441 228.48 53.0558 230.407 50.0171C230.821 49.1454 229.827 48.9794 230.697 48.5643C231.566 48.1492 231.898 44.9116 232.477 44.8286C233.307 44.5882 234.071 44.1625 234.713 43.5833C235.872 42.8362 236.41 45.6172 236.783 44.289C238.766 38.7938 239.897 33.0264 240.137 27.1878Z" fill="#F8B495"/>
<path d="M244.029 26.3576C244.278 10.5431 233.513 7.59605 233.513 7.59605C231.53 4.88456 228.862 2.75161 225.784 1.41658C222.706 0.0815556 219.329 -0.407363 216 0.000111754C209.297 0.353018 202.796 2.42538 197.12 6.01875L196.458 6.43383C193.65 8.14478 191.225 10.4201 189.337 13.1166C184.493 20.671 191.034 26.6896 198.942 25.5689C202.616 24.7053 206.205 23.5106 209.665 21.9993C212.059 20.8935 214.784 20.745 217.283 21.5842C218.429 22.2029 219.406 23.0942 220.128 24.1798C220.85 25.2654 221.295 26.5121 221.424 27.8104C222.293 33.4969 220.306 39.1835 220.14 44.8286C220.083 45.6704 220.239 46.5131 220.596 47.2775C221.755 49.2699 223.866 48.1907 225.067 46.904C226.268 45.6172 226.433 45.1606 227.179 44.289C227.882 43.4045 228.857 42.7772 229.952 42.5041C230.353 42.4521 230.76 42.4811 231.149 42.5894C231.538 42.6977 231.902 42.8831 232.218 43.1346C232.535 43.3861 232.798 43.6986 232.992 44.0537C233.186 44.4089 233.307 44.7994 233.347 45.2021C233.521 46.6953 233.38 48.2083 232.933 49.6435C232.933 49.9755 232.064 52.5905 233.14 52.5905C234.217 52.5905 243.615 42.8362 244.029 26.3576Z" fill="#37404A"/>
<path d="M212.81 21.0447C214.313 20.7553 215.867 20.914 217.281 21.5013C218.427 22.1201 219.403 23.0114 220.125 24.0969C220.847 25.1825 221.292 26.4292 221.421 27.7275C222.291 33.4141 220.303 39.1006 220.138 44.7457C220.08 45.5875 220.237 46.4302 220.593 47.1947C221.752 49.187 223.864 48.1078 225.065 46.8211C226.265 45.5344 226.431 45.0778 227.176 44.2061C227.88 43.3217 228.855 42.6944 229.95 42.4213C230.351 42.3693 230.758 42.3983 231.147 42.5065C231.536 42.6148 231.899 42.8002 232.216 43.0517C232.532 43.3032 232.795 43.6158 232.989 43.9709C233.183 44.326 233.304 44.7165 233.345 45.1193C233.518 46.6125 233.377 48.1255 232.931 49.5606C232.931 49.8927 232.062 52.5077 233.138 52.5077C234.215 52.5077 243.613 42.8363 244.027 26.3577C244.275 10.5432 233.511 7.59619 233.511 7.59619C229.798 8.45282 226.284 10.017 223.16 12.2036C219.399 14.7635 215.928 17.7282 212.81 21.0447V21.0447Z" fill="#242A31"/>
<path d="M233.674 49.353C231.521 52.3831 228.043 53.5038 225.932 52.0925C224.859 50.9783 224.26 49.4902 224.26 47.9417C224.26 46.3932 224.859 44.9052 225.932 43.791C228.085 40.7609 231.563 39.6402 233.715 41.0514C234.773 42.1759 235.359 43.6651 235.351 45.2105C235.343 46.756 234.743 48.2392 233.674 49.353V49.353Z" fill="#FFBFA2"/>
<path d="M231.855 44.3303C232.187 44.7091 232.37 45.1959 232.37 45.7001C232.37 46.2042 232.187 46.6911 231.855 47.0698C231.027 47.9415 229.454 48.0245 228.957 49.1452C228.75 49.5603 228.75 50.1414 228.336 50.3074C227.922 50.4735 227.342 50.3074 227.301 49.6018C227.304 49.3529 227.357 49.1071 227.457 48.879C227.556 48.6509 227.7 48.4451 227.88 48.2736C228.24 47.928 228.535 47.5203 228.75 47.0698C228.875 46.5515 228.875 46.0109 228.75 45.4925C228.696 45.1089 228.775 44.7185 228.973 44.3857C229.17 44.0529 229.475 43.7977 229.837 43.6622C230.199 43.5267 230.596 43.5191 230.963 43.6405C231.33 43.762 231.645 44.0054 231.855 44.3303V44.3303Z" fill="#F3A984"/>
<path d="M148.302 193.966C147.149 196.081 145.76 198.059 144.162 199.86C143.127 200.939 143.831 196.54 142.382 196.581C140.105 196.581 137.662 198.117 135.923 196.581C134.517 195.449 133.264 194.137 132.197 192.679C131.125 191.198 130.572 189.403 130.623 187.574C130.658 186.868 130.871 186.182 131.244 185.581C131.532 185.196 131.866 184.848 132.238 184.544L138.283 179.189C138.708 178.775 139.18 178.412 139.691 178.11C140.395 177.742 141.174 177.544 141.968 177.529C143.35 177.506 144.721 177.783 145.986 178.342C147.251 178.901 148.38 179.728 149.296 180.767C150.33 181.797 151.098 183.065 151.532 184.461C151.548 185.653 151.248 186.827 150.662 187.864C149.999 189.944 149.211 191.982 148.302 193.966V193.966Z" fill="#F8B495"/>
<path d="M150.95 188.529C150.95 191.476 151.24 194.423 151.405 197.37C151.55 198.5 151.55 199.643 151.405 200.773C151.145 201.619 150.841 202.45 150.494 203.264C150.246 204.011 150.039 204.8 149.708 205.547C148.474 207.648 146.663 209.348 144.491 210.445C143.68 211.026 142.767 211.449 141.8 211.69C141.494 211.784 141.166 211.774 140.866 211.661C140.567 211.549 140.313 211.34 140.144 211.067C140.082 210.78 140.082 210.483 140.144 210.196C140.257 209.327 140.554 208.492 141.013 207.747C141.761 207.011 142.549 206.319 143.373 205.671C143.906 204.938 144.246 204.083 144.362 203.183C144.478 202.283 144.366 201.369 144.036 200.524C143.456 198.781 142.421 197.245 141.717 195.585C141.299 194.785 141.053 193.906 140.996 193.005C140.939 192.104 141.072 191.201 141.386 190.355C141.696 189.787 142.071 189.258 142.504 188.778C143.433 187.61 144.606 186.66 145.94 185.997C147.106 185.453 148.424 185.336 149.666 185.665C150.867 186.038 150.908 187.242 150.95 188.529Z" fill="#F8B495"/>
<path d="M137.333 192.182C138.989 191.434 142.343 195.046 142.633 196C143.336 198.325 140.977 196.374 137.954 201.023C137.022 202.277 136.309 203.681 135.843 205.173C135.553 206.336 135.429 207.788 134.352 208.245C133.949 208.405 133.504 208.422 133.09 208.293C132.676 208.165 132.318 207.899 132.075 207.539C131.785 209.158 129.342 207.83 128.846 206.211C127.893 203.015 125.492 205.921 125.119 200.317L124.209 200.732C120.482 197.661 128.349 188.695 131.661 185.208C137.623 179.024 138.989 188.695 137.333 192.182Z" fill="#F8B495"/>
<path d="M176.045 164.703C170.29 158.892 166.978 148.1 160.147 143.41C152.592 153.889 145.758 164.872 139.694 176.284C136.63 183.091 149.672 189.4 152.819 185.914C155.427 183.05 169.048 173.212 176.045 164.703Z" fill="#B7794F"/>
<path d="M170.123 159.473C167.961 158.682 165.729 158.098 163.457 157.73C162.008 157.73 165.32 160.22 164.202 161.05C163.084 161.881 159.813 162.794 159.482 164.786C159.173 166.385 159.089 168.02 159.234 169.642C159.344 171.438 160.146 173.119 161.469 174.333C161.947 174.797 162.53 175.139 163.167 175.329C163.621 175.37 164.079 175.37 164.533 175.329H172.275C172.841 175.371 173.408 175.371 173.973 175.329C174.712 175.166 175.405 174.84 176.002 174.374C177.013 173.614 177.838 172.631 178.412 171.501C178.986 170.372 179.295 169.125 179.314 167.858C179.433 166.562 179.204 165.258 178.651 164.08C178.113 163.167 176.788 162.794 175.877 162.296C174.032 161.212 172.108 160.269 170.123 159.473V159.473Z" fill="#FFBFA2"/>
<path d="M175.467 161.59L170.25 155.364C169.607 154.518 168.839 153.777 167.973 153.164C167.268 152.727 166.535 152.339 165.778 152.002C165.139 151.602 164.475 151.241 163.791 150.923C161.551 150.217 159.162 150.131 156.877 150.673C155.929 150.756 155.003 151.009 154.144 151.421C153.648 151.711 153.151 152.251 153.358 152.79C153.485 153.041 153.688 153.244 153.937 153.372C154.552 153.926 155.29 154.324 156.09 154.534C157.043 154.741 158.078 154.534 159.113 154.534C159.935 154.693 160.705 155.058 161.349 155.595C161.993 156.132 162.491 156.823 162.798 157.605C163.46 159.1 163.667 160.76 164.205 162.296C164.416 163.104 164.799 163.856 165.328 164.501C165.857 165.146 166.519 165.668 167.269 166.031C167.839 166.257 168.439 166.397 169.049 166.446C170.417 166.706 171.822 166.706 173.19 166.446C174.355 166.134 175.387 165.449 176.129 164.496C176.957 163.333 176.212 162.503 175.467 161.59Z" fill="#FFBFA2"/>
<path d="M173.888 172.341C175.126 174.006 176.682 175.407 178.467 176.462C180.251 177.517 182.228 178.204 184.28 178.484C193.472 180.891 240.96 190.521 253.754 183.423C256.983 181.597 255.907 177.197 256.155 172.839C256.155 169.559 246.301 161.258 242.782 161.175C237.234 161.175 198.357 157.024 181.589 158.477C179.359 158.495 177.184 159.173 175.337 160.428C174.066 162.107 173.262 164.095 173.007 166.188C172.753 168.281 173.057 170.404 173.888 172.341V172.341Z" fill="#F2994A"/>
<path d="M92.4904 107.589L87.7705 110.204C87.9642 110.086 88.1861 110.024 88.4122 110.024C88.6384 110.024 88.8603 110.086 89.054 110.204L93.7738 107.921C93.613 107.749 93.4071 107.627 93.18 107.569C92.9528 107.51 92.7138 107.517 92.4904 107.589V107.589Z" fill="#37404A"/>
<path d="M89.0529 110.328L93.7728 107.921C93.6146 107.805 93.429 107.734 93.2345 107.713L88.5146 110.328C88.6906 110.278 88.8769 110.278 89.0529 110.328V110.328Z" fill="#37404A"/>
<path d="M88.5163 110.12L93.2362 107.505C93.0095 107.419 92.7591 107.419 92.5324 107.505L87.8125 110.12C88.0399 110.038 88.2889 110.038 88.5163 110.12Z" fill="#37404A"/>
<path d="M87.8119 110.163L92.5318 107.548L92.4904 107.589L87.7705 110.204L87.8119 110.163Z" fill="#37404A"/>
<path d="M148.51 143.244L153.229 140.629L93.7755 107.713L89.0557 110.328L148.51 143.244Z" fill="#37404A"/>
<path d="M150.287 146.232L155.007 143.617C154.975 143.012 154.795 142.423 154.485 141.903C154.175 141.382 153.743 140.945 153.227 140.629L148.507 143.244C149.023 143.56 149.455 143.997 149.765 144.518C150.076 145.038 150.255 145.627 150.287 146.232Z" fill="#37404A"/>
<path d="M149.376 143.991L154.096 141.376C153.846 141.084 153.553 140.832 153.227 140.629L148.507 143.244C148.833 143.447 149.126 143.699 149.376 143.991Z" fill="#37404A"/>
<path d="M150 144.946L154.72 142.331C154.552 141.989 154.343 141.668 154.099 141.376L149.379 143.991C149.633 144.276 149.842 144.598 150 144.946V144.946Z" fill="#37404A"/>
<path d="M89.0567 110.328C88.063 109.747 87.2764 110.328 87.2764 111.283L101.56 143.493L164.616 178.484L150.539 146.191C150.26 144.997 149.534 143.957 148.511 143.285L89.0567 110.328Z" fill="#10191B"/>
<path d="M164.617 178.442L169.337 175.827L154.722 142.33L150.002 144.904L164.617 178.442Z" fill="#242A31"/>
<path d="M245.147 25.7768C245.098 27.3745 244.96 28.9681 244.733 30.5502C239.494 33.9642 233.95 36.8823 228.172 39.2668C224.032 41.1762 219.063 42.2969 215.751 43.4176C215.318 42.0776 215.233 40.6492 215.503 39.2668C215.834 38.4367 219.643 37.648 222.707 36.6519C230.835 33.6425 238.406 29.2936 245.105 23.7844C245.147 24.4485 245.147 25.1127 245.147 25.7768Z" fill="#BECEF9"/>
<path d="M225.974 30.3425L227.05 30.9651C226.381 30.6817 225.651 30.5713 224.927 30.6438C224.204 30.7163 223.511 30.9695 222.91 31.3802L221.875 30.7991C222.459 30.3705 223.145 30.1028 223.864 30.0227C224.583 29.9426 225.31 30.0528 225.974 30.3425V30.3425Z" fill="white"/>
<path d="M222.74 31.3807L221.705 30.7996C222.28 30.4483 222.91 30.1957 223.568 30.0525L224.603 30.6751C223.96 30.8021 223.343 31.0409 222.782 31.3807H222.74Z" fill="white"/>
<path d="M224.559 30.6745L223.565 30.0519C224.357 29.8513 225.193 29.9396 225.925 30.3009L226.96 30.9235C226.234 30.5433 225.39 30.4543 224.6 30.6745H224.559Z" fill="white"/>
<path d="M226.921 30.9236L225.886 30.301L226.962 30.9236H226.921Z" fill="white"/>
<path d="M218.519 45.6589L217.484 45.0363C216.867 44.6136 216.376 44.0317 216.063 43.3521C215.75 42.6725 215.625 41.9206 215.703 41.176C215.812 39.0875 216.413 37.0546 217.457 35.2437C218.5 33.4328 219.957 31.8955 221.707 30.7576L222.742 31.3387C220.998 32.4839 219.547 34.023 218.505 35.8324C217.462 37.6417 216.857 39.671 216.738 41.7571C216.653 42.5084 216.773 43.2689 217.087 43.9565C217.4 44.6441 217.896 45.2328 218.519 45.6589V45.6589Z" fill="white"/>
<path d="M218.519 45.6588L217.484 45.0362C216.867 44.6135 216.376 44.0316 216.063 43.352C215.75 42.6725 215.625 41.9206 215.703 41.176C215.724 39.5933 216.091 38.0345 216.78 36.6101L217.815 37.1912C217.155 38.6255 216.788 40.1782 216.738 41.7571C216.653 42.5083 216.773 43.2688 217.087 43.9564C217.4 44.6441 217.896 45.2327 218.519 45.6588Z" fill="white"/>
<path d="M217.815 37.3573L216.78 36.7762C217.286 35.5734 217.97 34.454 218.809 33.4556L219.844 34.0782C219.029 35.0785 218.347 36.1807 217.815 37.3573V37.3573Z" fill="white"/>
<path d="M219.845 33.9534L218.81 33.2063C219.6 32.179 220.585 31.3185 221.708 30.6743L222.743 31.2554C221.634 31.937 220.653 32.808 219.845 33.8289V33.9534Z" fill="white"/>
<path d="M222.744 31.3801C226.097 29.4708 228.788 31.0065 228.788 34.8253C228.686 36.9153 228.088 38.9508 227.044 40.7627C226 42.5747 224.54 44.1108 222.785 45.2437C219.473 47.1946 216.782 45.6588 216.74 41.7986C216.859 39.7124 217.464 37.6831 218.506 35.8738C219.549 34.0644 221 32.5253 222.744 31.3801V31.3801Z" fill="#F4F4F4"/>
<path d="M225.72 36.6101C225.662 37.6377 225.366 38.6376 224.855 39.5308C224.345 40.424 223.635 41.1862 222.781 41.757C221.704 42.3797 220.752 42.2551 220.255 41.5495C219.939 41.1175 219.778 40.5907 219.8 40.0552C219.853 39.0216 220.152 38.0157 220.67 37.1206C221.188 36.2256 221.912 35.4672 222.781 34.9083C223.072 34.7015 223.41 34.5705 223.764 34.527C224.118 34.4835 224.477 34.529 224.809 34.6592C225.125 34.8697 225.376 35.1629 225.537 35.5069C225.698 35.8509 225.761 36.2325 225.72 36.6101Z" fill="#BECEF9"/>
<path d="M225.223 36.1537C225.203 37.2229 224.92 38.2706 224.4 39.2044C223.881 40.1382 223.139 40.9294 222.242 41.5082C221.958 41.7114 221.627 41.8405 221.28 41.884C220.933 41.9275 220.581 41.8839 220.255 41.7573C219.939 41.3253 219.778 40.7984 219.8 40.263C219.853 39.2294 220.152 38.2234 220.67 37.3284C221.188 36.4334 221.912 35.675 222.781 35.116C223.072 34.9092 223.41 34.7782 223.764 34.7348C224.118 34.6913 224.477 34.7367 224.809 34.867C225.056 35.2529 225.198 35.6962 225.223 36.1537V36.1537Z" fill="#05DCFF"/>
<path d="M219.434 33.8708V45.659C219.422 45.7571 219.385 45.8504 219.327 45.9303C219.269 46.0102 219.192 46.074 219.102 46.1156C215.157 48.1212 210.795 49.1664 206.371 49.1664C201.947 49.1664 197.586 48.1212 193.64 46.1156C192.176 45.4685 190.914 44.436 189.988 43.1279C189.063 41.8197 188.508 40.2847 188.382 38.6857V26.856C188.53 28.4591 189.098 29.9946 190.029 31.3067C190.959 32.6188 192.219 33.6609 193.681 34.3274C197.627 36.333 201.989 37.3781 206.413 37.3781C210.836 37.3781 215.198 36.333 219.144 34.3274C219.225 34.2805 219.294 34.2145 219.345 34.135C219.395 34.0554 219.426 33.9647 219.434 33.8708V33.8708Z" fill="#F4F4F4"/>
<path d="M219.434 33.8708V45.659C219.422 45.7571 219.385 45.8504 219.327 45.9303C219.269 46.0102 219.192 46.074 219.102 46.1156C215.157 48.1212 210.795 49.1664 206.371 49.1664C201.947 49.1664 197.586 48.1212 193.64 46.1156C192.176 45.4685 190.914 44.436 189.988 43.1279C189.063 41.8197 188.508 40.2847 188.382 38.6857V26.856C188.53 28.4591 189.098 29.9946 190.029 31.3067C190.959 32.6188 192.219 33.6609 193.681 34.3274C197.627 36.333 201.989 37.3781 206.413 37.3781C210.836 37.3781 215.198 36.333 219.144 34.3274C219.225 34.2805 219.294 34.2145 219.345 34.135C219.395 34.0554 219.426 33.9647 219.434 33.8708V33.8708Z" fill="#F4F4F4"/>
<path d="M219.434 33.8708V45.659C219.422 45.7571 219.385 45.8504 219.327 45.9303C219.269 46.0102 219.192 46.074 219.102 46.1156C215.157 48.1212 210.795 49.1664 206.371 49.1664C201.947 49.1664 197.586 48.1212 193.64 46.1156C192.176 45.4685 190.914 44.436 189.988 43.1279C189.063 41.8197 188.508 40.2847 188.382 38.6857V26.856C188.53 28.4591 189.098 29.9946 190.029 31.3067C190.959 32.6188 192.219 33.6609 193.681 34.3274C197.627 36.333 201.989 37.3781 206.413 37.3781C210.836 37.3781 215.198 36.333 219.144 34.3274C219.225 34.2805 219.294 34.2145 219.345 34.135C219.395 34.0554 219.426 33.9647 219.434 33.8708V33.8708Z" fill="#F4F4F4"/>
<path d="M219.103 33.4143C218.867 33.2906 218.604 33.226 218.337 33.226C218.07 33.226 217.808 33.2906 217.571 33.4143C214.137 35.2575 210.288 36.1864 206.393 36.1123C202.485 36.1806 198.624 35.2522 195.172 33.4143C193.173 32.3994 191.612 30.6871 190.784 28.5994C190.204 28.9729 189.625 29.3465 189.045 29.8031C190.114 31.7204 191.709 33.2904 193.641 34.3274C197.586 36.3331 201.948 37.3782 206.372 37.3782C210.796 37.3782 215.157 36.3331 219.103 34.3274C219.192 34.2887 219.267 34.2249 219.32 34.1438C219.373 34.0627 219.401 33.9678 219.401 33.8709C219.401 33.7739 219.373 33.6791 219.32 33.598C219.267 33.5169 219.192 33.453 219.103 33.4143V33.4143Z" fill="white"/>
<path d="M216.206 39.1007V44.0401C212.551 45.3701 208.663 45.9347 204.782 45.6991C200.901 45.4635 197.11 44.4327 193.641 42.6704C191.619 41.6382 189.969 39.9983 188.922 37.98C188.533 37.1197 188.335 36.185 188.342 35.2405V30.301C188.489 31.8994 189.057 33.4299 189.988 34.7356C190.919 36.0412 192.18 37.075 193.641 37.7309C197.005 39.4359 200.672 40.4568 204.431 40.7346C208.19 41.0124 211.967 40.5418 215.543 39.3497L216.206 39.1007Z" fill="#BECEF9"/>
<path d="M215.544 39.3497V43.5005C211.856 44.7486 207.954 45.2304 204.074 44.9164C200.195 44.6023 196.42 43.4992 192.98 41.6742C191.298 40.7569 189.874 39.4292 188.84 37.8139C188.451 36.9537 188.253 36.0189 188.26 35.0744V30.301C188.407 31.8994 188.975 33.4299 189.906 34.7356C190.837 36.0412 192.098 37.075 193.559 37.7309C196.934 39.4471 200.616 40.474 204.39 40.7519C208.164 41.0298 211.955 40.5532 215.544 39.3497V39.3497Z" fill="#05DCFF"/>
<path d="M167.142 165.202C169.461 164.662 169.75 159.141 169.212 158.104C167.887 155.655 167.183 159.017 160.062 157.315C157.992 156.938 155.995 156.238 154.142 155.24C152.858 154.492 151.492 153.372 150.001 153.745C149.489 153.891 149.049 154.222 148.766 154.675C148.483 155.127 148.378 155.668 148.47 156.194C146.772 154.991 145.406 157.938 146.358 159.681C148.18 163.043 143.211 162.379 147.683 167.36L146.399 167.692C145.323 173.005 161.014 174.79 167.515 175.246C178.9 176.077 171.862 166.903 167.142 165.202Z" fill="#FFBFA2"/>
<path style="mix-blend-mode:screen" opacity="0.4" d="M121.972 285.449L0 214.346L0.621036 3.07153L122.593 74.133L121.972 285.449Z" fill="url(#paint0_linear)"/>
<path d="M13.2869 51.677L9.43652 52.7562C12.0856 58.6699 16.4034 63.6768 21.8572 67.1594V61.6389C18.0985 59.2203 15.1212 55.7596 13.2869 51.677Z" fill="#8763CD"/>
<path d="M31.795 59.6882C30.2217 63.2579 26.3713 64.2541 21.8584 61.6391V67.1597C28.3586 70.9369 33.9065 69.5256 36.225 64.3371L31.795 59.6882Z" fill="#8763CD"/>
<path d="M21.8623 36.7759V31.2139C15.4036 27.4782 9.85564 28.8895 7.53711 34.0779L11.9258 38.7268C13.5405 35.1156 17.3909 34.1609 21.8623 36.7759Z" fill="#98A4E0"/>
<path d="M11.1369 42.9606C11.1215 41.5383 11.3889 40.1273 11.9235 38.8098L7.53485 34.0779C6.70768 36.018 6.29853 38.1114 6.33418 40.221C6.46135 44.5478 7.52064 48.7957 9.43936 52.6734L13.2898 51.5942C11.9579 48.9062 11.2234 45.9607 11.1369 42.9606V42.9606Z" fill="#8763CD"/>
<path d="M30.4687 46.7378L34.3192 45.6586C31.67 39.7449 27.3523 34.738 21.8984 31.2554V36.7759C25.6651 39.1853 28.6447 42.6487 30.4687 46.7378V46.7378Z" fill="#50CEF5"/>
<path d="M32.6248 55.413C32.646 56.8399 32.3637 58.2549 31.7967 59.5638L36.2268 64.3372C37.0076 62.3587 37.3604 60.2365 37.2619 58.111C37.1399 53.7885 36.0951 49.5423 34.1981 45.6587L30.3477 46.7794C31.7226 49.4575 32.4997 52.4036 32.6248 55.413V55.413Z" fill="#50CEF5"/>
<g opacity="0.4">
<path opacity="0.4" d="M109.426 114.686H109.219L48.3574 79.4459V49.8093H48.5644L109.426 85.0495V114.686ZM48.6058 79.1969L109.136 114.188V85.1325L48.6058 50.1829V79.1969Z" fill="#CDDCFB"/>
<path opacity="0.4" d="M48.5756 54.6764L48.4307 54.928L109.242 90.1266L109.387 89.875L48.5756 54.6764Z" fill="#CDDCFB"/>
<path opacity="0.4" d="M48.5834 59.5743L48.4385 59.8259L109.249 95.0246L109.394 94.7729L48.5834 59.5743Z" fill="#CDDCFB"/>
<path opacity="0.4" d="M48.559 64.4513L48.4141 64.7029L109.225 99.9015L109.37 99.6499L48.559 64.4513Z" fill="#CDDCFB"/>
<path opacity="0.4" d="M48.5668 69.3494L48.4219 69.6011L109.233 104.8L109.378 104.548L48.5668 69.3494Z" fill="#CDDCFB"/>
<path opacity="0.4" d="M48.5746 74.2476L48.4297 74.4993L109.241 109.698L109.386 109.446L48.5746 74.2476Z" fill="#CDDCFB"/>
<path opacity="0.4" d="M103.343 81.6045H103.053V110.909H103.343V81.6045Z" fill="#CDDCFB"/>
<path opacity="0.4" d="M97.2547 78.0764H96.9648V107.381H97.2547V78.0764Z" fill="#CDDCFB"/>
<path opacity="0.4" d="M91.1658 74.5894H90.876V103.894H91.1658V74.5894Z" fill="#CDDCFB"/>
<path opacity="0.4" d="M85.1248 71.0613H84.835V100.366H85.1248V71.0613Z" fill="#CDDCFB"/>
<path opacity="0.4" d="M79.0359 67.5332H78.7461V96.8377H79.0359V67.5332Z" fill="#CDDCFB"/>
<path opacity="0.4" d="M72.948 64.0051H72.6582V93.3097H72.948V64.0051Z" fill="#CDDCFB"/>
<path opacity="0.4" d="M66.866 60.4766H66.5762V89.7811H66.866V60.4766Z" fill="#CDDCFB"/>
<path opacity="0.4" d="M60.7771 56.9902H60.4873V86.2948H60.7771V56.9902Z" fill="#CDDCFB"/>
<path opacity="0.4" d="M54.6951 53.4622H54.4053V82.7667H54.6951V53.4622Z" fill="#CDDCFB"/>
</g>
<path d="M54.5715 82.7666L48.4854 79.2384V54.8318L54.5715 58.36V82.7666Z" fill="#98A4E0"/>
<path d="M63.6779 88.0378L57.5918 84.5512V69.7744L63.6779 73.3026V88.0378Z" fill="#98A4E0"/>
<path d="M100.155 109.166L94.0684 105.638V90.9023L100.155 94.4305V109.166Z" fill="#98A4E0"/>
<path d="M81.9367 98.6227L75.8506 95.0945V89.74L81.9367 93.2682V98.6227Z" fill="#98A4E0"/>
<path d="M109.26 114.437L103.215 110.951V98.7058L109.26 102.234V114.437Z" fill="#98A4E0"/>
<path d="M72.7834 93.3513L66.6973 89.8231V70.2314L72.7834 73.7596V93.3513Z" fill="#98A4E0"/>
<path d="M91.0422 103.894L84.9561 100.366V74.2991L91.0422 77.8272V103.894Z" fill="#98A4E0"/>
<path d="M17.2645 102.773L15.1943 106.551C17.1186 108.725 19.3672 110.587 21.8601 112.071V106.634C20.1416 105.588 18.5919 104.287 17.2645 102.773V102.773Z" fill="#50CEF5"/>
<path d="M36.2688 95.7586L31.8387 95.468C32.3362 97.1391 32.6009 98.8712 32.6253 100.615C32.7304 101.852 32.5455 103.097 32.0854 104.25C31.6253 105.403 30.9029 106.433 29.9756 107.256L33.5776 112.943C34.9234 111.73 35.9601 110.211 36.6011 108.514C37.2422 106.817 37.4689 104.991 37.2624 103.188C37.2703 100.678 36.9359 98.1783 36.2688 95.7586V95.7586Z" fill="#50CEF5"/>
<path d="M21.8584 106.633V112.071C23.5301 113.333 25.543 114.06 27.6336 114.156C29.7243 114.253 31.7952 113.714 33.5753 112.61L29.9733 106.924C28.7483 107.699 27.3187 108.086 25.8711 108.034C24.4235 107.982 23.0251 107.494 21.8584 106.633V106.633Z" fill="#50CEF5"/>
<path d="M11.9252 93.1434L7.49512 92.6453C9.03673 97.7807 11.6632 102.523 15.196 106.55L17.2661 102.773C14.8341 99.9727 13.0146 96.6922 11.9252 93.1434V93.1434Z" fill="#98A4E0"/>
<path d="M31.8399 95.4678L36.27 95.9659C34.7472 90.7604 32.1203 85.9463 28.5691 81.8533L26.499 85.6305C28.9564 88.4918 30.7772 91.8455 31.8399 95.4678V95.4678Z" fill="#8763CD"/>
<path d="M26.4955 85.6305L28.5656 81.8533C26.6449 79.6361 24.3801 77.744 21.8584 76.2498V81.7703C23.5979 82.8033 25.163 84.1062 26.4955 85.6305V85.6305Z" fill="#8763CD"/>
<path d="M11.1342 87.9965C11.0306 86.763 11.212 85.5222 11.6643 84.3704C12.1167 83.2185 12.8279 82.1868 13.7426 81.3553L10.1406 75.6687C8.81017 76.8545 7.77338 78.3344 7.11226 79.9914C6.45114 81.6485 6.18384 83.437 6.33153 85.2155C6.35829 87.7353 6.74876 90.2378 7.4908 92.6454L11.9209 93.1435C11.4234 91.4724 11.1587 89.7403 11.1342 87.9965V87.9965Z" fill="#98A4E0"/>
<path d="M21.8575 81.7705V76.2499C20.1925 74.9759 18.1811 74.2383 16.0891 74.1345C13.9971 74.0307 11.9229 74.5657 10.1406 75.6688L13.7426 81.3554C14.9799 80.598 16.4162 80.2324 17.864 80.3065C19.3118 80.3805 20.7036 80.8908 21.8575 81.7705V81.7705Z" fill="#98A4E0"/>
<g opacity="0.4">
<path opacity="0.4" d="M109.426 159.68H109.219L48.3574 124.523V94.6792H48.5644L109.426 129.919V159.68ZM48.6058 124.191L109.136 159.224V130.168L48.6058 95.1773V124.191Z" fill="#CDDCFB"/>
<path opacity="0.4" d="M48.5668 99.6707L48.4219 99.9224L109.233 135.121L109.378 134.869L48.5668 99.6707Z" fill="#CDDCFB"/>
<path opacity="0.4" d="M48.5756 104.569L48.4307 104.821L109.242 140.019L109.387 139.768L48.5756 104.569Z" fill="#CDDCFB"/>
<path opacity="0.4" d="M48.5834 109.467L48.4385 109.718L109.249 144.917L109.394 144.665L48.5834 109.467Z" fill="#CDDCFB"/>
<path opacity="0.4" d="M48.559 114.344L48.4141 114.595L109.225 149.794L109.37 149.542L48.559 114.344Z" fill="#CDDCFB"/>
<path opacity="0.4" d="M48.5668 119.242L48.4219 119.493L109.233 154.692L109.378 154.44L48.5668 119.242Z" fill="#CDDCFB"/>
<path opacity="0.4" d="M103.343 126.599H103.053V155.903H103.343V126.599Z" fill="#CDDCFB"/>
<path opacity="0.4" d="M97.2547 123.112H96.9648V152.417H97.2547V123.112Z" fill="#CDDCFB"/>
<path opacity="0.4" d="M91.1658 119.584H90.876V148.889H91.1658V119.584Z" fill="#CDDCFB"/>
<path opacity="0.4" d="M85.1248 116.056H84.835V145.36H85.1248V116.056Z" fill="#CDDCFB"/>
<path opacity="0.4" d="M79.0359 112.528H78.7461V141.832H79.0359V112.528Z" fill="#CDDCFB"/>
<path opacity="0.4" d="M72.948 108.999H72.6582V138.304H72.948V108.999Z" fill="#CDDCFB"/>
<path opacity="0.4" d="M66.866 105.513H66.5762V134.817H66.866V105.513Z" fill="#CDDCFB"/>
<path opacity="0.4" d="M60.7771 101.985H60.4873V131.289H60.7771V101.985Z" fill="#CDDCFB"/>
<path opacity="0.4" d="M54.6951 98.4565H54.4053V127.761H54.6951V98.4565Z" fill="#CDDCFB"/>
</g>
<path d="M54.5715 127.802L48.4854 124.274V110.743L54.5715 114.271V127.802Z" fill="#98A4E0"/>
<path d="M63.6779 133.074L57.5918 129.546V125.354L63.6779 128.84V133.074Z" fill="#98A4E0"/>
<path d="M100.155 154.16L94.0684 150.673V128.757L100.155 132.244V154.16Z" fill="#98A4E0"/>
<path d="M81.9367 143.617L75.8506 140.089V130.127L81.9367 133.655V143.617Z" fill="#98A4E0"/>
<path d="M109.26 159.431L103.215 155.945V147.643L109.26 151.171V159.431Z" fill="#98A4E0"/>
<path d="M72.7834 138.346L66.6973 134.817V108.917L72.7834 112.445V138.346Z" fill="#98A4E0"/>
<path d="M91.0422 148.889L84.9561 145.36V128.799L91.0422 132.327V148.889Z" fill="#98A4E0"/>
<path d="M17.2645 146.066L15.1943 149.843C17.1099 152.049 19.3593 153.94 21.8601 155.447V149.926C20.1337 148.892 18.5825 147.589 17.2645 146.066V146.066Z" fill="#98A4E0"/>
<path d="M36.2688 139.051L31.8387 138.553C32.3362 140.224 32.6009 141.956 32.6253 143.7C32.7304 144.938 32.5455 146.183 32.0854 147.336C31.6253 148.489 30.9029 149.518 29.9756 150.341L33.5776 156.028C34.8933 154.836 35.912 153.352 36.5519 151.694C37.1918 150.036 37.4352 148.251 37.2624 146.481C37.2703 143.971 36.9359 141.471 36.2688 139.051V139.051Z" fill="#8763CD"/>
<path d="M21.8584 149.926V155.447C23.5234 156.721 25.5348 157.458 27.6268 157.562C29.7188 157.666 31.793 157.131 33.5753 156.028L29.9733 150.341C28.736 151.099 27.2997 151.464 25.8519 151.39C24.4041 151.316 23.0123 150.806 21.8584 149.926V149.926Z" fill="#98A4E0"/>
<path d="M11.9252 136.436L7.49512 135.938C9.04506 141.07 11.6706 145.811 15.196 149.843L17.2661 146.066C14.8341 143.266 13.0146 139.985 11.9252 136.436V136.436Z" fill="#98A4E0"/>
<path d="M31.8399 138.553L36.27 139.051C34.7284 133.916 32.1019 129.173 28.5691 125.146L26.499 128.923C28.9311 131.724 30.7505 135.004 31.8399 138.553V138.553Z" fill="#8763CD"/>
<path d="M26.4955 128.923L28.5656 125.146C26.6456 122.917 24.3811 121.011 21.8584 119.501V125.063C23.5979 126.096 25.163 127.399 26.4955 128.923V128.923Z" fill="#50CEF5"/>
<path d="M11.1352 131.289C11.0118 130.036 11.1835 128.77 11.6365 127.595C12.0895 126.42 12.8112 125.368 13.7436 124.523L10.1416 118.837C8.76937 120.053 7.70753 121.58 7.04485 123.292C6.38216 125.003 6.13791 126.849 6.33253 128.674C6.36274 131.194 6.75313 133.696 7.4918 136.104L11.9219 136.602C11.4091 134.878 11.1442 133.089 11.1352 131.289V131.289Z" fill="#98A4E0"/>
<path d="M21.8575 125.063V119.501C20.1858 118.239 18.1729 117.512 16.0823 117.416C13.9916 117.319 11.9207 117.858 10.1406 118.961L13.7426 124.523C14.9921 123.784 16.4353 123.439 17.8833 123.535C19.3313 123.632 20.7165 124.164 21.8575 125.063V125.063Z" fill="#98A4E0"/>
<g opacity="0.4">
<path opacity="0.4" d="M109.426 202.973H109.219L48.3164 167.609V137.972H48.5234L109.385 173.212L109.426 202.973ZM48.6062 167.484L109.137 202.475V173.42L48.6062 138.47V167.484Z" fill="#CDDCFB"/>
<path opacity="0.4" d="M48.5824 142.984L48.4375 143.236L109.249 178.434L109.393 178.183L48.5824 142.984Z" fill="#CDDCFB"/>
<path opacity="0.4" d="M48.5902 147.882L48.4453 148.134L109.256 183.333L109.401 183.081L48.5902 147.882Z" fill="#CDDCFB"/>
<path opacity="0.4" d="M48.559 152.759L48.4141 153.011L109.225 188.21L109.37 187.958L48.559 152.759Z" fill="#CDDCFB"/>
<path opacity="0.4" d="M109.219 193.094L48.3984 157.896L48.564 157.646L109.343 192.845L109.219 193.094Z" fill="#CDDCFB"/>
<path opacity="0.4" d="M48.5746 162.514L48.4297 162.765L109.241 197.964L109.386 197.712L48.5746 162.514Z" fill="#CDDCFB"/>
<path opacity="0.4" d="M103.343 169.891H103.053V199.196H103.343V169.891Z" fill="#CDDCFB"/>
<path opacity="0.4" d="M97.2547 166.363H96.9648V195.668H97.2547V166.363Z" fill="#CDDCFB"/>
<path opacity="0.4" d="M91.1658 162.877H90.876V192.181H91.1658V162.877Z" fill="#CDDCFB"/>
<path opacity="0.4" d="M85.1248 159.349H84.835V188.653H85.1248V159.349Z" fill="#CDDCFB"/>
<path opacity="0.4" d="M79.0359 155.821H78.7461V185.125H79.0359V155.821Z" fill="#CDDCFB"/>
<path opacity="0.4" d="M72.9539 152.292H72.6641V181.597H72.9539V152.292Z" fill="#CDDCFB"/>
<path opacity="0.4" d="M66.865 148.764H66.5752V178.068H66.865V148.764Z" fill="#CDDCFB"/>
<path opacity="0.4" d="M60.7771 145.277H60.4873V174.582H60.7771V145.277Z" fill="#CDDCFB"/>
<path opacity="0.4" d="M54.6951 141.749H54.4053V171.054H54.6951V141.749Z" fill="#CDDCFB"/>
</g>
<path d="M54.5715 171.054L48.4854 167.567V157.563L54.5715 161.092V171.054Z" fill="#98A4E0"/>
<path d="M63.6779 176.325L57.5918 172.839V146.772L63.6779 150.3V176.325Z" fill="#98A4E0"/>
<path d="M100.155 197.453L94.0684 193.925V188.446L100.155 191.974V197.453Z" fill="#98A4E0"/>
<path d="M81.9367 186.91L75.8506 183.382V162.835L81.9367 166.363V186.91Z" fill="#98A4E0"/>
<path d="M109.26 202.724L103.215 199.196V186.993L109.26 190.521V202.724Z" fill="#98A4E0"/>
<path d="M72.7834 181.638L66.6973 178.11V163.375L72.7834 166.861V181.638Z" fill="#98A4E0"/>
<path d="M91.0422 192.181L84.9561 188.653V175.619L91.0422 179.148V192.181Z" fill="#98A4E0"/>
<g opacity="0.4">
<path opacity="0.4" d="M113.524 275.363H113.317L6.33301 213.309V161.424H6.54002L113.524 223.478V275.363ZM6.62283 213.143L113.234 274.865V223.603L6.62283 161.881V213.143Z" fill="#CDDCFB"/>
<path opacity="0.4" d="M6.53456 170.116L6.38965 170.367L113.311 232.255L113.456 232.004L6.53456 170.116Z" fill="#CDDCFB"/>
<path opacity="0.4" d="M6.54335 178.729L6.39844 178.98L113.32 240.868L113.465 240.617L6.54335 178.729Z" fill="#CDDCFB"/>
<path opacity="0.4" d="M6.51796 187.3L6.37305 187.552L113.294 249.44L113.439 249.188L6.51796 187.3Z" fill="#CDDCFB"/>
<path opacity="0.4" d="M6.52675 195.913L6.38184 196.165L113.303 258.053L113.448 257.801L6.52675 195.913Z" fill="#CDDCFB"/>
<path opacity="0.4" d="M113.316 266.647L6.37305 204.758L6.53866 204.509L113.44 266.397L113.316 266.647Z" fill="#CDDCFB"/>
<path opacity="0.4" d="M102.844 217.335H102.554V268.888H102.844V217.335Z" fill="#CDDCFB"/>
<path opacity="0.4" d="M92.1609 211.15H91.8711V262.703H92.1609V211.15Z" fill="#CDDCFB"/>
<path opacity="0.4" d="M81.4783 204.966H81.1885V256.519H81.4783V204.966Z" fill="#CDDCFB"/>
<path opacity="0.4" d="M70.7566 198.781H70.4668V250.334H70.7566V198.781Z" fill="#CDDCFB"/>
<path opacity="0.4" d="M60.074 192.596H59.7842V244.149H60.074V192.596Z" fill="#CDDCFB"/>
<path opacity="0.4" d="M49.3914 186.412H49.1016V237.965H49.3914V186.412Z" fill="#CDDCFB"/>
<path opacity="0.4" d="M38.7097 180.227H38.4199V231.78H38.7097V180.227Z" fill="#CDDCFB"/>
<path opacity="0.4" d="M27.9871 174.042H27.6973V225.595H27.9871V174.042Z" fill="#CDDCFB"/>
<path opacity="0.4" d="M17.3045 167.858H17.0146V219.411H17.3045V167.858Z" fill="#CDDCFB"/>
</g>
<path d="M17.1428 219.41L6.46094 213.226V170.265L17.1428 176.45V219.41Z" fill="#15D9FD"/>
<path d="M33.2023 228.667L22.5205 222.482V196.581L33.2023 202.766V228.667Z" fill="#98A4E0"/>
<path d="M97.3361 265.816L86.6543 259.632V233.689L97.3361 239.874V265.816Z" fill="#8763CD"/>
<path d="M65.2906 247.262L54.5674 241.077V231.655L65.2906 237.881V247.262Z" fill="#15D9FD"/>
<path d="M113.404 275.114L102.681 268.929V247.428L113.404 253.613V275.114Z" fill="#15D9FD"/>
<path d="M49.2297 237.965L38.5479 231.78V197.37L49.2297 203.555V237.965Z" fill="#8763CD"/>
<path d="M81.3166 256.518L70.6348 250.334V204.509L81.3166 210.735V256.518Z" fill="#98A4E0"/>
<path style="mix-blend-mode:screen" opacity="0.4" d="M192.149 38.6022L0.621036 3.07153L0 214.346L121.972 285.449L192.149 38.6022Z" fill="url(#paint1_linear)"/>
</g>
<defs>
<linearGradient id="paint0_linear" x1="61.6085" y1="38.7171" x2="60.8092" y2="307.438" gradientUnits="userSpaceOnUse">
<stop stop-color="#1F0159"/>
<stop offset="0.17" stop-color="#1A2B79"/>
<stop offset="0.58" stop-color="#0F8AC0"/>
<stop offset="0.86" stop-color="#08C5EE"/>
<stop offset="1" stop-color="#05DCFF"/>
</linearGradient>
<linearGradient id="paint1_linear" x1="2826.51" y1="9835.47" x2="10562.3" y2="5924.27" gradientUnits="userSpaceOnUse">
<stop stop-color="#1F0159"/>
<stop offset="0.17" stop-color="#1A2B79"/>
<stop offset="0.58" stop-color="#0F8AC0"/>
<stop offset="0.86" stop-color="#08C5EE"/>
<stop offset="1" stop-color="#05DCFF"/>
</linearGradient>
<clipPath id="clip0">
<rect width="346" height="392" fill="white"/>
</clipPath>
</defs>
</svg>
