<svg width="17" height="16" viewBox="0 0 17 16" fill="none" xmlns="http://www.w3.org/2000/svg">
<path d="M8.59745 5.3321C7.08652 5.3321 5.85348 6.53089 5.85348 7.99985C5.85348 9.46882 7.08652 10.6676 8.59745 10.6676C10.1084 10.6676 11.3414 9.46882 11.3414 7.99985C11.3414 6.53089 10.1084 5.3321 8.59745 5.3321ZM16.8273 7.99985C16.8273 6.89513 16.8376 5.80041 16.7738 4.69768C16.71 3.41684 16.4094 2.28009 15.4461 1.34348C14.4806 0.404861 13.3135 0.11467 11.996 0.0526294C10.8597 -0.00941132 9.73374 0.000595279 8.59951 0.000595279C7.46322 0.000595279 6.33723 -0.00941132 5.203 0.0526294C3.88556 0.11467 2.71633 0.406862 1.75296 1.34348C0.787522 2.28209 0.48904 3.41684 0.425227 4.69768C0.361414 5.80241 0.371706 6.89713 0.371706 7.99985C0.371706 9.10258 0.361414 10.1993 0.425227 11.302C0.48904 12.5829 0.789581 13.7196 1.75296 14.6562C2.71839 15.5948 3.88556 15.885 5.203 15.9471C6.33928 16.0091 7.46528 15.9991 8.59951 15.9991C9.7358 15.9991 10.8618 16.0091 11.996 15.9471C13.3135 15.885 14.4827 15.5928 15.4461 14.6562C16.4115 13.7176 16.71 12.5829 16.7738 11.302C16.8397 10.1993 16.8273 9.10458 16.8273 7.99985ZM8.59745 12.1045C6.26106 12.1045 4.37548 10.2713 4.37548 7.99985C4.37548 5.72836 6.26106 3.89515 8.59745 3.89515C10.9338 3.89515 12.8194 5.72836 12.8194 7.99985C12.8194 10.2713 10.9338 12.1045 8.59745 12.1045ZM12.9923 4.68567C12.4468 4.68567 12.0063 4.25739 12.0063 3.72704C12.0063 3.1967 12.4468 2.76841 12.9923 2.76841C13.5378 2.76841 13.9784 3.1967 13.9784 3.72704C13.9785 3.85298 13.9531 3.9777 13.9036 4.09408C13.8541 4.21046 13.7815 4.3162 13.6899 4.40525C13.5983 4.4943 13.4896 4.5649 13.3699 4.61302C13.2502 4.66114 13.1219 4.68583 12.9923 4.68567Z" fill="white"/>
</svg>
