<svg width="16" height="16" viewBox="0 0 16 16" fill="none" xmlns="http://www.w3.org/2000/svg">
<g clip-path="url(#clip0)">
<path fill-rule="evenodd" clip-rule="evenodd" d="M2.6665 1.89233C2.6665 1.56735 2.7956 1.25568 3.0254 1.02589C3.25519 0.796091 3.56686 0.666994 3.89184 0.666994H16.1065C16.2676 0.666731 16.4271 0.698236 16.5759 0.759705C16.7248 0.821174 16.8601 0.9114 16.974 1.02522C17.0879 1.13904 17.1783 1.27421 17.24 1.423C17.3016 1.57179 17.3333 1.73128 17.3332 1.89233V14.107C17.3333 14.2681 17.3018 14.4276 17.2402 14.5765C17.1787 14.7253 17.0884 14.8606 16.9745 14.9745C16.8606 15.0885 16.7254 15.1788 16.5766 15.2405C16.4278 15.3021 16.2683 15.3337 16.1072 15.3337H3.89184C3.73087 15.3337 3.57148 15.3019 3.42277 15.2403C3.27406 15.1787 3.13895 15.0884 3.02516 14.9745C2.91137 14.8607 2.82113 14.7255 2.75959 14.5768C2.69805 14.428 2.66642 14.2686 2.6665 14.1077V1.89233ZM8.47184 6.25899H10.4578V7.25633C10.7445 6.68299 11.4778 6.16699 12.5798 6.16699C14.6925 6.16699 15.1932 7.30899 15.1932 9.40433V13.2857H13.0552V9.88166C13.0552 8.68833 12.7685 8.01499 12.0405 8.01499C11.0305 8.01499 10.6105 8.74099 10.6105 9.88166V13.2857H8.47184V6.25899ZM4.80517 13.1943H6.94384V6.16699H4.80517V13.1943ZM7.24984 3.87499C7.25387 4.05811 7.22129 4.24019 7.154 4.41054C7.08671 4.58089 6.98607 4.73608 6.85799 4.86702C6.72991 4.99795 6.57697 5.10198 6.40814 5.173C6.23931 5.24402 6.058 5.28061 5.87484 5.28061C5.69168 5.28061 5.51036 5.24402 5.34153 5.173C5.17271 5.10198 5.01976 4.99795 4.89168 4.86702C4.7636 4.73608 4.66297 4.58089 4.59568 4.41054C4.52839 4.24019 4.49581 4.05811 4.49984 3.87499C4.50775 3.51556 4.65609 3.17352 4.91309 2.92212C5.17009 2.67071 5.51532 2.52994 5.87484 2.52994C6.23436 2.52994 6.57958 2.67071 6.83658 2.92212C7.09358 3.17352 7.24192 3.51556 7.24984 3.87499Z" fill="white"/>
</g>
<defs>
<clipPath id="clip0">
<rect width="16" height="16" fill="white"/>
</clipPath>
</defs>
</svg>
