<?xml version="1.0" encoding="utf-8"?>
<!-- Generator: Adobe Illustrator 19.0.0, SVG Export Plug-In . SVG Version: 6.00 Build 0)  -->
<svg version="1.1" xmlns="http://www.w3.org/2000/svg" xmlns:xlink="http://www.w3.org/1999/xlink" x="0px" y="0px"
	 viewBox="0 0 858.4 683" style="enable-background:new 0 0 858.4 683;" xml:space="preserve">
<style type="text/css">
	.st0{fill:#80C2FF;}
	.st1{fill:none;}
	.st2{fill:url(#XMLID_14_);}
	.st3{fill:url(#XMLID_15_);}
	.st4{clip-path:url(#XMLID_16_);fill:url(#XMLID_24_);}
	.st5{clip-path:url(#XMLID_16_);fill:#005FB3;}
	.st6{clip-path:url(#XMLID_16_);fill:#00529C;}
	.st7{clip-path:url(#XMLID_16_);fill:#00437D;}
	.st8{fill:#E6E6E6;}
	.st9{fill:#E32222;}
	.st10{fill:#911919;}
	.st11{clip-path:url(#XMLID_30_);fill:url(#XMLID_31_);}
	.st12{clip-path:url(#XMLID_30_);fill:url(#XMLID_32_);}
	.st13{clip-path:url(#XMLID_30_);fill:url(#XMLID_33_);}
	.st14{clip-path:url(#XMLID_30_);fill:#9E2A2A;}
	.st15{clip-path:url(#XMLID_30_);fill:#A33C3C;}
	.st16{clip-path:url(#XMLID_30_);fill:#0163BA;}
	.st17{clip-path:url(#XMLID_30_);fill:#0156A3;}
	.st18{clip-path:url(#XMLID_30_);fill:url(#XMLID_34_);}
	.st19{clip-path:url(#XMLID_30_);fill:#FF8000;}
	.st20{clip-path:url(#XMLID_30_);fill:#FFFFFF;}
	.st21{clip-path:url(#XMLID_35_);fill:url(#XMLID_36_);}
	.st22{clip-path:url(#XMLID_35_);}
	.st23{fill:#FF7824;}
	.st24{fill:#64DFFF;}
	.st25{fill:#F8FF41;}
	.st26{fill:#35D153;}
	.st27{fill:#FF0F0F;}
	.st28{fill:#5C0000;}
	.st29{fill:#BD0000;}
	.st30{fill:#FFF700;}
	.st31{clip-path:url(#XMLID_35_);fill:#FFD500;}
	.st32{fill:#D9D9D9;}
	.st33{fill:#9E9E9E;}
	.st34{clip-path:url(#XMLID_35_);fill:url(#XMLID_37_);}
	.st35{fill:#02417C;}
	.st36{clip-path:url(#XMLID_35_);fill:#0584FF;}
	.st37{clip-path:url(#XMLID_35_);fill:#03417D;}
	.st38{clip-path:url(#XMLID_38_);fill:#0280F4;}
	.st39{clip-path:url(#XMLID_39_);fill:#0280F4;}
	.st40{clip-path:url(#XMLID_39_);fill:url(#XMLID_40_);}
	.st41{fill:#000E36;}
	.st42{fill:url(#XMLID_41_);}
	.st43{fill:url(#XMLID_42_);}
	.st44{fill:url(#XMLID_43_);}
	.st45{fill:url(#XMLID_44_);}
	.st46{fill:url(#XMLID_45_);}
	.st47{fill:#29398C;}
	.st48{fill:#69A3FF;}
	.st49{fill:#69FBFF;}
	.st50{fill:url(#XMLID_46_);}
	.st51{fill:url(#XMLID_47_);}
	.st52{fill:url(#XMLID_48_);}
	.st53{fill:#3602F4;}
	.st54{fill:url(#XMLID_49_);}
	.st55{fill:url(#XMLID_50_);}
	.st56{fill:url(#XMLID_51_);}
	.st57{fill:url(#XMLID_52_);}
	.st58{fill:url(#XMLID_53_);}
	.st59{fill:url(#XMLID_54_);}
	.st60{fill:url(#XMLID_55_);}
	.st61{fill:#29ABE2;}
	.st62{fill:#F2F2F2;}
	.st63{fill:#0071BC;}
	.st64{fill:url(#XMLID_56_);}
	.st65{fill:url(#XMLID_58_);}
	.st66{fill:url(#XMLID_59_);}
	.st67{fill:url(#XMLID_60_);}
	.st68{fill:url(#XMLID_61_);}
	.st69{fill:url(#XMLID_62_);}
	.st70{fill:url(#XMLID_63_);}
	.st71{fill:#8BC2F4;}
	.st72{fill:#6EB4F4;}
	.st73{fill:url(#XMLID_64_);}
	.st74{fill:url(#XMLID_65_);}
	.st75{fill:url(#XMLID_66_);}
	.st76{fill:#ADD2F4;}
	.st77{fill:#F4F4F4;}
	.st78{fill:#782B2B;}
	.st79{opacity:0.5;}
	.st80{fill:#0080F6;}
	.st81{fill:#EFA422;}
	.st82{fill:#DB3127;}
	.st83{fill:#64BC4B;}
	.st84{fill:url(#XMLID_67_);}
	.st85{display:none;}
</style>
<g id="Layer_10">
	<path id="XMLID_174_" class="st0" d="M420.1,21.2c14.2,3.3,26.8,21.1,26.1,39.4c-1,25.4-24.1,38.3-40.2,65.2
		c-27.3,45.6-16.9,69.8-27.3,70.8c-11.4,1.1-31.6-46.5-27.6-92.4C356.1,46.9,395.1,15.4,420.1,21.2z"/>
	<path id="XMLID_173_" class="st0" d="M428.9,520.6c1.4-8.1,35.4-2,77.9-22.2c34.4-16.3,43.8-28.5,65.8-29.1
		c35-1.1,59.9,26.3,58.1,46.1c-2,21.5-41.5,36.4-64.1,39.7C494.6,565.3,426.6,533.5,428.9,520.6z"/>
	<path id="XMLID_172_" class="st0" d="M648.6,9c-29.5,17.7-62.5,44.8-81.2,86c-23.4,51.6-3,78.2-23.2,135.5
		c-29.4,83.7-107.3,125.2-121.5,132.7c-77.1,41-160.8,26.4-191.9,19.6c27.1-8.2,80.3-29.2,129.3-78c57.2-56.9,22.1-136.6,72.5-183
		c19-17.5,42.9-58.9,30.1-93.7c-2.8-7.7-5.8-14.9-13.6-19.3H648.6z"/>
	<line id="XMLID_169_" class="st1" x1="648.4" y1="9" x2="648.4" y2="9"/>
	<path id="XMLID_168_" class="st1" d="M664.3,0.2c-5,2.6-10.3,5.5-15.7,8.8"/>
	<path id="XMLID_167_" class="st1" d="M230.9,382.9c-3.3-0.7-6-1.3-8-1.8"/>
	<path id="XMLID_164_" class="st1" d="M224.9,400.5c-2.7-1.3-5.3-2.5-7.8-3.8"/>
	<path id="XMLID_256_" class="st0" d="M858.4,9v340.2c-4.9-4.1-10.2-8.1-15.8-11.8c-85.7-57.1-193-23.5-221.8-14.5
		C517.5,355.3,508.3,411.5,423,430.6c-69,15.5-150.3-7.8-198.1-30.1c-8-7.9-12.2-13-12.2-13s6.8-1.2,18.1-4.6
		c31.1,6.8,114.8,21.4,191.9-19.6c14.2-7.5,92.1-49,121.5-132.7c20.1-57.3-0.3-83.9,23.2-135.5c18.7-41.3,51.7-68.4,81.2-86H858.4z"
		/>
	<path id="XMLID_252_" class="st0" d="M858.4,349.2V547c-44.5,10.5-98.8,13.8-148.4-10.2c-60.5-29.3-69.2-77.3-123.4-88.5
		c-52.1-10.8-71.7,40.4-139.6,44.3c-110.8,6.4-192.4-62.6-222.1-92.1c47.8,22.4,129.1,45.6,198.1,30.1
		c85.2-19.2,94.5-75.4,197.7-107.7c28.9-9,136.1-42.6,221.8,14.5C848.3,341.2,853.5,345.1,858.4,349.2z"/>
</g>
<g id="Layer_7">
</g>
<g id="Layer_8">
	<linearGradient id="XMLID_14_" gradientUnits="userSpaceOnUse" x1="360.1884" y1="184.6828" x2="404.9231" y2="12.9015">
		<stop  offset="0" style="stop-color:#012C54"/>
		<stop  offset="1" style="stop-color:#000D1A"/>
	</linearGradient>
	<path id="XMLID_137_" class="st2" d="M411.1,12.2c14.2,3.3,26.8,21.1,26.1,39.4c-1,25.4-24.1,38.3-40.2,65.2
		c-27.3,45.6-16.9,69.8-27.3,70.8c-11.4,1.1-31.6-46.5-27.6-92.4C347.1,37.9,386.1,6.4,411.1,12.2z"/>
	<linearGradient id="XMLID_15_" gradientUnits="userSpaceOnUse" x1="423.6617" y1="518.8192" x2="617.8104" y2="496.4519">
		<stop  offset="0" style="stop-color:#006DCF"/>
		<stop  offset="1" style="stop-color:#00437D"/>
	</linearGradient>
	<path id="XMLID_148_" class="st3" d="M419.9,511.6c1.4-8.1,35.4-2,77.9-22.2c34.4-16.3,43.8-28.5,65.8-29.1
		c35-1.1,59.9,26.3,58.1,46.1c-2,21.5-41.5,36.4-64.1,39.7C485.6,556.3,417.6,524.5,419.9,511.6z"/>
	<g id="XMLID_182_">
		<defs>
			<path id="XMLID_136_" d="M858.4,348.2v187.6c-46,12.2-104.4,17.7-157.4-8c-60.5-29.3-69.2-77.3-123.4-88.5
				c-52.1-10.8-71.7,40.4-139.6,44.3c-110.8,6.4-192.4-62.6-222.1-92.1c47.8,22.4,129.1,45.6,198.1,30.1
				c85.2-19.2,94.5-75.4,197.7-107.7c28.9-9,136.1-42.6,221.8,14.5C842.9,334.6,851.1,341.3,858.4,348.2z"/>
		</defs>
		<use xlink:href="#XMLID_136_"  style="overflow:visible;fill:#0058A6;"/>
		<clipPath id="XMLID_16_">
			<use xlink:href="#XMLID_136_"  style="overflow:visible;"/>
		</clipPath>
		<linearGradient id="XMLID_24_" gradientUnits="userSpaceOnUse" x1="215.9023" y1="420.9635" x2="858.4324" y2="420.9635">
			<stop  offset="0" style="stop-color:#0073D9"/>
			<stop  offset="1" style="stop-color:#005EB3"/>
		</linearGradient>
		<path id="XMLID_162_" class="st4" d="M858.4,348.2v187.6c-46,12.2-104.4,17.7-157.4-8c-60.5-29.3-69.2-77.3-123.4-88.5
			c-52.1-10.8-71.7,40.4-139.6,44.3c-110.8,6.4-192.4-62.6-222.1-92.1c47.8,22.4,129.1,45.6,198.1,30.1
			c85.2-19.2,94.5-75.4,197.7-107.7c28.9-9,136.1-42.6,221.8,14.5C842.9,334.6,851.1,341.3,858.4,348.2z"/>
		<path id="XMLID_158_" class="st5" d="M776.7,192.3c-54.4,2.5-125.1,5.7-174.9,64.2c-23.9,28.1-35.5,60.1-72.8,81.3
			c-8.7,5-27.1,14-44.7,36.6c-7.2,9.2-22.8,29.2-18.9,45.5c3.3,14,17.8,12.1,25.8,30.6c6.4,14.6,2,26.3,3.4,35.8
			c6.1,38.6,107.1,23.3,212.8,52.2c68.6,18.8,104.3,46.6,177.8,40.3c33.3-2.9,49-10.6,60.8-24.6c25.2-30.1,24.4-79.7,21.8-174.6
			c-2-71.9-3-107.8-13.2-127.6C920.2,185.8,836.1,189.6,776.7,192.3z"/>
		<path id="XMLID_157_" class="st6" d="M707.7,283.6c-36.7-19.3-66.8,34.9-78.9,53.9c-12.2,19-62.8,9.8-80.1,38.6
			s13.5,90.4,51.7,120.8c38.3,30.4,62.5-11.1,107.3-12.1c44.7-1,89.5,60.7,114.3,18.5c24.8-42.1,19.9-107.7-46.9-117.5
			C708.3,376,765.9,314.2,707.7,283.6z"/>
		<path id="XMLID_156_" class="st7" d="M662.4,481.3c23.8,5.6,35.7-26.3,40.9-37.6c5.2-11.4,36.1-12.7,43.2-29.8
			s-17.6-45.4-43.5-56.6c-25.9-11.2-35.8,13.4-62.1,19.3c-26.3,5.9-59.4-20.7-69.5,4.3c-10.1,24.9-0.3,58.4,40.3,55.4
			C652.2,433.3,624.7,472.5,662.4,481.3z"/>
	</g>
	<path id="XMLID_100_" class="st8" d="M548.9,323.3c-1.4,2.3-4.6,4-5.9,7.9c-1.4,4.2-7,3.4-9.6,8.2c-1.9,3.5,0.4,5.1-0.8,9.9
		c-1.7,6.7-6.8,6.4-9.9,12.9c-3.1,6.7-1.3,14.9,1.6,20c2.9,5.1,5.2,4,9,9.9c5.2,7.9,2.4,11.8,6.6,15.1c4.8,3.7,9.2-1,19.4,2.5
		c5.9,2,6.1,4.1,9.6,3.8c6.3-0.5,6.6-7.4,14.5-10.4c6.5-2.4,9.4,1.1,14.2-2.2c3.6-2.5,2.4-4.8,6.8-9.3c5.2-5.4,8.7-3.9,10.4-7.7
		c2.4-5.2-3.9-8.6-2.5-16.7c1-5.7,4.6-6.8,4.7-12c0-3.9-2.5-4.2-4.1-9.9c-1.9-6.6-2.5-8.1-4.4-10.7c-3.7-5.2-9.2-0.2-16.9-5.7
		c-6.2-4.4-6.7-6.7-12.1-8.7c-5-1.9-3.9-0.3-13.9,1.5C554.6,323.5,550.8,320,548.9,323.3z"/>
	<g id="XMLID_74_">
		<path id="XMLID_99_" class="st9" d="M749.4,479.6c7,14.6,29.9,7.3,46.6-4c21.4-14.4,28.7-41,15.7-50.8c-7-5.3-20.8-4.4-27.4,2.2
			c-5.8,5.8-7.8,10.3-14.5,15.3c-5.9,4.4-10.4,7.2-16.5,10.8C744.6,458.2,744.7,470,749.4,479.6z"/>
		<path id="XMLID_93_" class="st10" d="M774.6,445c-5.9,5.7-9,4.5-14.1,10.6c-2.3,2.7-4.4,7.2-2.9,9.1c2.3,2.9,15.4-1.5,25.2-11.1
			c9.6-9.4,15.2-22.3,12.6-24.4c-1.8-1.4-7.7,1.7-10.1,3.7C779.4,437.8,779.6,440.2,774.6,445z"/>
	</g>
	<g id="XMLID_129_">
		<path id="XMLID_131_" class="st9" d="M641.7,426.9c-9.9,5.9-3.3,21.7,5.8,33c11.6,14.3,31,17.9,37.1,8c3.3-5.3,1.8-15.1-3.3-19.4
			c-4.5-3.8-7.8-4.9-11.8-9.3c-3.5-3.9-5.8-6.9-8.7-11.1C656.7,422.1,648.3,423,641.7,426.9z"/>
		<path id="XMLID_130_" class="st10" d="M667.9,442.7c-4.4-3.8-3.7-6.1-8.4-9.4c-2-1.4-5.4-2.7-6.7-1.5c-1.9,1.8,2.1,10.9,9.5,17.2
			c7.3,6.2,16.8,9.4,18.1,7.5c0.9-1.3-1.7-5.4-3.3-7C673.3,445.7,671.7,446,667.9,442.7z"/>
	</g>
	<g id="XMLID_159_">
		<path id="XMLID_194_" class="st9" d="M695.3,361.9c-3.7-4.7-11.3-0.2-16.5,5.2c-6.5,6.9-7,17.1-1.5,19.5c3,1.3,7.8-0.1,9.7-3
			c1.6-2.6,2-4.3,4-6.7c1.8-2.1,3.1-3.4,5.1-5.2C698.7,369.3,697.7,365,695.3,361.9z"/>
		<path id="XMLID_160_" class="st10" d="M689,376.4c1.7-2.5,2.9-2.3,4.2-4.9c0.6-1.1,1-3,0.3-3.5c-1.1-0.9-5.4,1.8-8.2,6
			c-2.7,4.2-3.7,9.3-2.6,9.8c0.7,0.4,2.6-1.2,3.3-2.2C687.9,379.4,687.6,378.6,689,376.4z"/>
	</g>
</g>
<g id="Layer_12">
	<g id="XMLID_75_">
		<defs>
			<path id="XMLID_57_" d="M858.4,0v348.2c-7.3-6.9-15.6-13.6-24.8-19.8c-85.7-57.1-193-23.5-221.8-14.5
				C508.5,346.3,499.3,402.5,414,421.6c-69,15.5-150.3-7.8-198.1-30.1c-8-7.9-12.2-13-12.2-13s8.5-1.7,19.8-5.1
				c31.1,6.8,113.1,21.9,190.2-19.1c14.2-7.5,92.1-49,121.5-132.7c20.1-57.3-0.3-83.9,23.2-135.5c18.7-41.3,51.7-68.4,81.2-86H858.4
				z"/>
		</defs>
		<clipPath id="XMLID_30_">
			<use xlink:href="#XMLID_57_"  style="overflow:visible;"/>
		</clipPath>
		<linearGradient id="XMLID_31_" gradientUnits="userSpaceOnUse" x1="531.0724" y1="234.7165" x2="531.0724" y2="2.7444">
			<stop  offset="0" style="stop-color:#004480"/>
			<stop  offset="1.095087e-002" style="stop-color:#004581"/>
			<stop  offset="1" style="stop-color:#0280F4"/>
		</linearGradient>
		<path id="XMLID_161_" class="st11" d="M858.4,0v348.2c-7.3-6.9-15.6-13.6-24.8-19.8c-85.7-57.1-193-23.5-221.8-14.5
			C508.5,346.3,499.3,402.5,414,421.6c-69,15.5-150.3-7.8-198.1-30.1c-8-7.9-12.2-13-12.2-13s6.8-1.2,18.1-4.6
			c31.1,6.8,114.8,21.4,191.9-19.6c14.2-7.5,92.1-49,121.5-132.7c20.1-57.3-0.3-83.9,23.2-135.5c18.7-41.3,51.7-68.4,81.2-86H858.4z
			"/>
		<linearGradient id="XMLID_32_" gradientUnits="userSpaceOnUse" x1="700.4324" y1="242.9248" x2="700.4324" y2="166.9989">
			<stop  offset="0" style="stop-color:#004480"/>
			<stop  offset="1.095087e-002" style="stop-color:#004581"/>
			<stop  offset="1" style="stop-color:#0280F4"/>
		</linearGradient>
		<path id="XMLID_2_" class="st12" d="M542,208.9c0,0,25.7-5,43.6-13.8c17.9-8.8,46.5-26.1,51.8-26.1s40.6,15.3,48.6,22.3l37.2-10.3
			l72.7,29.3c0,0,26.4-15,32.5-15.2c6.2-0.3,16.4,15.9,23.3,18.3c6.9,2.5,17.7,2.8,17.7,2.8V243h-338L542,208.9z"/>
		<linearGradient id="XMLID_33_" gradientUnits="userSpaceOnUse" x1="694.1437" y1="149.2894" x2="694.1437" y2="-8.2925">
			<stop  offset="0" style="stop-color:#C69C6D"/>
			<stop  offset="1" style="stop-color:#6B553C"/>
		</linearGradient>
		<path id="XMLID_220_" class="st13" d="M605.7,3.6c0,0,7.6,62.9,48.7,61.6s57.8,8,57,23s0.4,33.3,13.7,36.4
			c13.3,3.1,10.6,33.3,10.6,33.3h29.7c0,0,17.9-9.9,17.1-38.7c-0.8-28.8-19.4-22.2-31.6-46.6s-1.1-28.4-6.1-46.6
			C739.9,8,720.5,2.6,722.8-21.3L605.7,3.6z"/>
		<path id="XMLID_222_" class="st14" d="M849.9,245.3l-36.5,7l-213.9,2.6c0,0,33.2-4.6,71.4-30.9l0,0l0,0h0l48.1-9.5l22.5,4.5
			l-6.1-10.5l7-13.9l-17.7,9.5l19-16.7l-1.2-5.1l4.5-7.2l-1.3-9.9l7.6-11.4c4.7,0.7,9.6,2.2,13.8,5.1c0,0,37.3,68,82.3,77.5
			L849.9,245.3z"/>
		<path id="XMLID_225_" class="st15" d="M747.1,175.2l-4.5,7.2l1.2,5.1l-19,16.7l17.7-9.5l-7,13.9l6.1,10.5l-22.5-4.5L671,224h0
			c21.9-15.1,45.3-37.3,65-70c0,0,8.3-1.5,17.4-0.2l-7.6,11.4L747.1,175.2z"/>
		<path id="XMLID_201_" class="st16" d="M859.9,315.8l-1.5,35.3c0,0-27.6-31.4-79.1-47.5C813,308.6,848.2,313.3,859.9,315.8z"/>
		<path id="XMLID_213_" class="st16" d="M858.4,236v25c-5.7-0.8-14.9-1.5-30-1.5c-39,0-64,9.2-118.4,9.2s-79.9-11.4-112.2-8.8
			c-26.3,2.2-74.8,4.4-88.8,4.4c6.8-10.8,12.1-22,15.5-33.2c0,0,44.8,3,61,4.3c16.2,1.3,69.7-13,113-13
			c43.3,0,102.7,13.5,122.4,13.5S858.4,236,858.4,236z"/>
		<path id="XMLID_246_" class="st16" d="M858.4,258.6v58.5c-10.8-2.1-42-8.1-73.1-12.4c0,0,0,0,0,0c-19-2.6-37.9-4.5-52.1-4.5
			c-2.8,0-5.7,0-8.7,0.1c-8.2,0.2-17.1,0.6-26.1,1.1c-15.4,0.9-31.3,2.2-45.8,3.5c0,0,0,0,0,0c-21.1,1.8-39.2,3.8-48.2,3.8
			c-0.7,0-1.4,0.4-2.1,0.4h-0.1c-0.6,0-1.2-0.5-1.8-0.5c-0.4,0-0.8-0.3-1.2-0.3c-0.2,0-0.3-0.1-0.5-0.1c-0.4,0-0.8-0.1-1.3-0.2
			c-0.3,0-0.6-0.1-0.9-0.1c-0.3,0-0.7-0.1-1-0.1c-0.3,0-0.5-0.1-0.8-0.1c-0.3,0-0.5-0.1-0.8-0.1c-0.7-0.1-1.4-0.2-2.1-0.3
			c-0.7-0.1-1.4-0.3-2.1-0.4c-0.7-0.1-1.4-0.3-2.1-0.4c0,0,0,0,0,0c-1.2-0.3-2.5-0.5-3.7-0.8c-1.6-0.4-3.3-0.8-5-1.2
			c-1.6-0.4-3.3-0.8-5.1-1.2c-1.4-0.3-2.9-0.7-4.4-1c-0.4-0.1-0.9-0.2-1.3-0.3c-0.7-0.1-1.3-0.3-2-0.4c-1.1-0.2-2.3-0.5-3.5-0.7
			c-0.7-0.1-1.3-0.3-2-0.4c-1.9-0.3-3.9-0.6-5.9-0.9c-0.7-0.1-1.3-0.2-2-0.3c-0.6-0.1-1.1-0.1-1.7-0.2c-0.6-0.1-1.3-0.1-2-0.2
			c-3.6-0.4-7.3-0.6-11.4-0.8c-0.7,0-1.5,0-2.3-0.1c-1.4,0-2.9-0.1-4.4-0.1c-21.8,0-44.4,3.7-55,6.7c14.2-13.9,26.5-28.9,36-44.5
			c14,0,59.5-0.3,85.8-2.5c4.3-0.4,8.4-0.5,12.5-0.4c0.4,0,0.9,0,1.3,0c0.4,0,0.9,0,1.3,0c1.6,0.1,3.1,0.2,4.7,0.3
			c0.4,0,0.7,0.1,1.1,0.1c1.2,0.1,2.3,0.2,3.5,0.3c0.6,0.1,1.2,0.1,1.8,0.2c0.8,0.1,1.6,0.2,2.4,0.3c0.4,0,0.7,0.1,1.1,0.1
			c0.8,0.1,1.6,0.2,2.4,0.3c0.7,0.1,1.4,0.2,2.1,0.3c0.4,0.1,0.8,0.1,1.1,0.2c0.4,0.1,0.8,0.1,1.2,0.2c2.7,0.4,5.4,0.8,8.2,1.2
			c1.2,0.2,2.4,0.4,3.6,0.6c0.8,0.1,1.6,0.3,2.5,0.4c0.8,0.1,1.5,0.2,2.3,0.4c0.2,0,0.4,0.1,0.6,0.1c0.7,0.1,1.4,0.2,2.2,0.3
			c0.9,0.1,1.7,0.3,2.6,0.4c0.8,0.1,1.6,0.2,2.3,0.3c4.7,0.7,9.7,1.3,15,1.8c0.6,0.1,1.2,0.1,1.8,0.2c2.4,0.2,4.8,0.4,7.4,0.6
			c1.3,0.1,2.5,0.2,3.8,0.3c0.7,0.1,1.4,0.1,2.1,0.1c1.6,0.1,3.3,0.2,5,0.3c0.6,0,1.2,0.1,1.9,0.1c1.1,0,2.2,0.1,3.3,0.1
			c0.9,0,1.8,0.1,2.7,0.1c2.7,0.1,5.4,0.1,8.3,0.1c0.8,0,1.7,0,2.5,0c1.7,0,3.3,0,4.9-0.1c3.1-0.1,6-0.1,8.9-0.2
			c0.5,0,1,0.1,1.6,0.1c3.5-0.2,6.8-0.4,10-0.4h0c4.8-1,9.4-0.9,13.8-1.3c0.6-0.1,1.3-0.2,1.9-0.3c0.2,0,0.3-0.1,0.5-0.1
			c1-0.1,2-0.2,2.9-0.3c2.6-0.3,5.1-0.6,7.5-0.9c1.7-0.2,3.4-0.4,5-0.6c2-0.3,4-0.5,5.9-0.8c0.9-0.1,1.8-0.3,2.7-0.4
			c0.5-0.1,1.1-0.1,1.7-0.2c2.2-0.3,4.4-0.6,6.5-0.9c2.2-0.3,4.3-0.6,6.5-0.8c1.5-0.2,3.1-0.4,4.6-0.5c1-0.1,2.1-0.2,3.1-0.3
			c0.7-0.1,1.3-0.1,2-0.2c1.6-0.2,3.3-0.3,4.9-0.4c0.6-0.1,1.1-0.1,1.7-0.1c3.5-0.3,7.1-0.5,10.7-0.6c0.8,0,1.7-0.1,2.5-0.1
			c1.9-0.1,3.8-0.1,5.8-0.1C843.5,257,852.8,257.7,858.4,258.6z"/>
		<path id="XMLID_240_" class="st16" d="M652.6,302.9c-54.3,11.6-104.1,35.9-148.4,71.5c-64.1,51.6-145.8,75.9-276.8,21.5v-26
			c0,0,1.4,0.6,4.3,1.6c10.5,3.5,41.2,11.1,98.5,6.9c37.2-2.8,83.2-22.8,122.3-51.8c10.1-7.5,20.7-17.7,29.5-26.2
			c10.7-2.9,27.2-4.3,49.1-4.3c1.5,0,3,0,4.4,0.1c0.8,0,1.5,0,2.3,0.1c4,0.1,7.8,0.4,11.4,0.8c0.7,0.1,1.3,0.1,2,0.2
			c0.6,0.1,1.2,0.1,1.7,0.2c0.7,0.1,1.4,0.2,2,0.3c2.1,0.3,4,0.6,5.9,0.9c0.7,0.1,1.4,0.2,2,0.4c1.2,0.2,2.4,0.4,3.5,0.7
			c0.7,0.1,1.4,0.3,2,0.4c0.4,0.1,0.9,0.2,1.3,0.3c1.5,0.3,3,0.7,4.4,1c1.7,0.4,3.4,0.8,5.1,1.2c1.7,0.4,3.3,0.8,5,1.1
			c1.3,0.3,2.5,0.6,3.7,0.8c0,0,0,0,0,0c0.7,0.1,1.4,0.3,2.1,0.4c0.7,0.1,1.4,0.3,2.1,0.4c0.7,0.1,1.4,0.2,2.1,0.3
			c0.5,0.1,1.1,0.2,1.6,0.2c0.3,0.1,0.7,0.1,1,0.1c0.3,0,0.6,0.1,0.9,0.1c0.4,0.1,0.8,0.1,1.3,0.1c0.2,0,0.3,0,0.5,0
			c0.4,0,0.8,0.5,1.2,0.5c0.6,0,1.2,0.5,1.8,0.5h0.1c0.7,0,1.4-0.3,2.1-0.3C613.4,306.7,631.5,304.7,652.6,302.9z"/>
		<path id="XMLID_211_" class="st17" d="M765.4,229"/>
		<path id="XMLID_178_" class="st17" d="M747.4,234h0.3c-29.8,7-54,13.1-54,13.1L738,268h0l19.4,9l-32.8,24
			c-8.2,0.2-17.1,0.5-26.1,1v-27.8l0.3-0.1l-5.3-3.3l-4.5-2.8l-29.5-18.2"/>
		<linearGradient id="XMLID_34_" gradientUnits="userSpaceOnUse" x1="227.4324" y1="350.4649" x2="698.4324" y2="350.4649">
			<stop  offset="0" style="stop-color:#014280"/>
			<stop  offset="1" style="stop-color:#014A8C"/>
		</linearGradient>
		<path id="XMLID_238_" class="st18" d="M698.4,274.2V302c-15.4,0.9-31.3,2.1-45.8,3.3c0,0,0,0,0,0
			c-54.3,11.4-104.1,35.2-148.4,70.1c-64.1,50.6-145.8,74.5-276.8,21.1v-23.2l4.3-0.7c10.5,3.4,41.2,10.9,98.5,6.8
			c37.2-2.7,83.2-22.4,122.3-50.8l117.1-25.9l123.8-27.4l0,0L698.4,274.2z"/>
		<path id="XMLID_17_" class="st19" d="M768.2,157.2c-4.8-4.6-10.3-6-14.2-6.9c-8.9-2.1-17.1-1.2-19.1,1.3c-0.5,0.6-1.1,1.5-1.1,1.5
			c-1.4,2-2.1,3.7-2.4,4.4c-0.5,1.1-4.2,9.5-7.8,12.8c-0.2,0.2-0.8,0.8-0.7,1.3c0.2,0.9,2.2,1.6,3.6,1.6c3.5,0,5.5-4.4,13.3-12.5
			c1.7-1.8,3-3,4-2.7c1.5,0.5,1.7,4.3,1.5,6.6c-0.5,5.3-3.2,7.2-2.2,11c0.1,0.5,0.7,2.5,1.6,2.6c1.8,0.1,3.3-7.4,8.6-13.7
			c0.7-0.9,2-2.2,3-1.9c0.5,0.1,1,0.7,1.6,3.2c1.2,4.7,0.4,6.6,2,8.3c0.1,0.2,1.4,1.6,2.7,1.2c0.9-0.2,1.4-1.3,1.6-1.8
			c1.4-3.5-1.1-6.2,0.4-9c0.4-0.7,0.8-1.4,1.4-1.6c2.8-0.6,6.5,10.2,12.4,19.8c9.8,16.1,12.7,18.7,15.4,18.5c0.2,0,3.2-0.2,3.8-1.8
			c0.4-1.1-0.5-2.4-0.8-2.8c-4.8-6.6-9.1-13.6-14-20.2c-3.4-4.6-5.5-8.1-11.4-15.8C770.1,159.3,769.3,158.4,768.2,157.2z"/>
		<path id="XMLID_78_" class="st20" d="M577.2,135.4c54.9-2.9,94.3-4.8,101.9-4.5c1,0,4.5,0.2,6-1.9c1.5-2.1,0.8-6.3-1.5-8.6
			c-4.3-4.5-11.2,0.7-18-3.4c-4.4-2.6-3.4-5.7-7.5-10.5c-5.9-6.9-17.8-12-26.7-9c-10.4,3.5-8.4,15.3-21.8,21.1
			c-2.5,1.1-9.2,4-15.8,1.5c-5.6-2.1-6-6.2-10.9-7.1c-5.9-1.2-15.3,3-15.8,10.2C566.7,128.1,570.8,133.5,577.2,135.4z"/>
		<path id="XMLID_94_" class="st20" d="M795.7,174c13.2,1.1,32.6,2.9,57.3,5.2c3.1-1.7,3.7-3,3.7-3.9c0-1.9-2.7-2.3-4.8-5.4
			c-2.4-3.6-2.8-5.7-4.7-7c-3.2-2.4-7.3,4.1-11.7,2c-3.8-1.9-1.1-8.1-5.3-12.3c-4.5-4.5-14.3-4.4-20.3-0.4c-5.9,3.9-4.8,9.3-10.3,11
			c-4.6,1.4-7.5-1.7-11.8,0.7c-2.4,1.3-4.7,4-4.2,6.1C784.5,173.1,792.2,173.7,795.7,174z"/>
		<g style="clip-path:url(#XMLID_30_);">
			
				<image style="overflow:visible;" width="949" height="417" id="XMLID_11_" xlink:href="../../../Untitled-1.png"  transform="matrix(0.4977 0 0 0.4977 386.1295 -2.6)">
			</image>
		</g>
	</g>
</g>
<g id="Layer_13">
	<g id="XMLID_177_">
		<defs>
			<path id="XMLID_72_" d="M639.6,0c-29.5,17.7-62.5,44.8-81.2,86c-23.4,51.6-3,78.2-23.2,135.5c-29.4,83.7-107.3,125.2-121.5,132.7
				c-77.1,41-159.1,25.9-190.2,19.1c27.1-8.2,78.6-28.7,127.6-77.5c57.2-56.9,22.1-136.6,72.5-183c19-17.5,42.9-58.9,30.1-93.7
				c-2.8-7.7-7.4-14.9-15.2-19.3H639.6z"/>
		</defs>
		<clipPath id="XMLID_35_">
			<use xlink:href="#XMLID_72_"  style="overflow:visible;"/>
		</clipPath>
		<linearGradient id="XMLID_36_" gradientUnits="userSpaceOnUse" x1="216.9661" y1="369.3169" x2="636.7086" y2="-4.9321">
			<stop  offset="0" style="stop-color:#024380"/>
			<stop  offset="1" style="stop-color:#000D1A"/>
		</linearGradient>
		<path id="XMLID_166_" class="st21" d="M639.6,0c-29.5,17.7-62.5,44.8-81.2,86c-23.4,51.6-3,78.2-23.2,135.5
			c-29.4,83.7-107.3,125.2-121.5,132.7c-77.1,41-160.8,26.4-191.9,19.6c27.1-8.2,80.3-29.2,129.3-78c57.2-56.9,22.1-136.6,72.5-183
			c19-17.5,42.9-58.9,30.1-93.7c-2.8-7.7-7.4-14.9-15.2-19.3H639.6z"/>
		<g id="XMLID_111_" class="st22">
			<path id="XMLID_127_" class="st23" d="M482.4,250.2c-0.1,0.1-0.2,0.1-0.3,0.1c-0.3,0.1-0.7,0.1-1.1,0c-0.1,0-0.1,0-0.2-0.1
				c-0.1,0-0.2-0.1-0.3-0.1c-0.1,0-0.1-0.1-0.2-0.1c-0.2-0.1-0.4-0.2-0.6-0.4c-0.1-0.1-0.2-0.1-0.2-0.2c-2-1.5-4.7-4.8-7.7-9.4
				c-2-3.2-4.2-7-6.4-11.2c-0.2-0.4-0.4-0.8-0.7-1.3c0-0.1-0.1-0.1-0.1-0.2c-0.3-0.5-0.5-1-0.8-1.5c0,0-0.1-0.1-0.1-0.1
				c-0.2-0.5-0.5-0.9-0.7-1.4c-0.1-0.2-0.2-0.3-0.2-0.5c-0.3-0.6-0.6-1.3-0.9-1.9c-0.2-0.3-0.3-0.6-0.5-1c-0.5-1-0.9-1.9-1.4-2.9
				c0,0,0,0,0,0c-0.3-0.7-0.6-1.3-0.9-2c0,0,0,0,0,0c-0.3-0.7-0.6-1.4-0.9-2.1c-0.3-0.7-0.6-1.4-0.9-2.1c-0.3-0.7-0.6-1.4-0.9-2.1
				c-10.2-24.1-15.2-45.1-11.2-46.8c0,0,0,0,0,0c0,0,0.1,0,0.1,0c4.2-1.3,15.6,16.8,25.7,40.7c3.5,8.3,6.4,16.2,8.5,23
				c1.1,3.5,1.9,6.7,2.6,9.6C483.9,243.8,484.1,249,482.4,250.2z"/>
			<path id="XMLID_126_" class="st24" d="M458.9,274.4c-8.2,4.2-17.6,6.6-27.5,6.6c-29.3,0-53.8-20.8-59.4-48.5
				c-0.8-3.9-1.2-7.9-1.2-12.1c0-0.9,0-1.9,0.1-2.8c0-0.1,0-0.2,0-0.4c0.4-6.9,1.9-13.6,4.4-19.7c6.6-16.2,20-28.8,36.6-34.5
				c-5.1,2.2,1.2,28.9,14.2,59.6c0.4,0.9,0.8,1.8,1.2,2.7c0.4,0.9,0.8,1.8,1.2,2.7c0.4,0.9,0.8,1.8,1.2,2.6c0,0,0,0,0,0
				c0.4,0.9,0.8,1.7,1.2,2.6c0,0,0,0,0,0c0.6,1.3,1.2,2.5,1.8,3.8c0.2,0.4,0.4,0.8,0.6,1.2c0.4,0.8,0.8,1.6,1.2,2.4
				c0.1,0.2,0.2,0.4,0.3,0.6c0.3,0.6,0.6,1.2,0.9,1.7c0,0.1,0.1,0.1,0.1,0.2c0.3,0.6,0.6,1.3,1,1.9c0,0.1,0.1,0.2,0.1,0.2
				c0.3,0.5,0.6,1.1,0.8,1.6c2.9,5.4,5.6,10.3,8.2,14.3c3.8,5.9,7.2,10.1,9.8,12c0.1,0.1,0.2,0.2,0.3,0.2c0.3,0.2,0.5,0.3,0.8,0.5
				c0.1,0,0.1,0.1,0.2,0.1c0.1,0.1,0.2,0.1,0.4,0.2c0.1,0,0.2,0.1,0.2,0.1C458,274.6,458.5,274.6,458.9,274.4z"/>
			<path id="XMLID_125_" class="st25" d="M479.7,243.8c-0.1,0-0.2,0.1-0.2,0.1c-0.3,0.1-0.6,0.1-1,0c-0.1,0-0.1,0-0.2-0.1
				c-0.1,0-0.2-0.1-0.2-0.1c0,0-0.1,0-0.1-0.1c-0.2-0.1-0.3-0.2-0.5-0.3c-0.1,0-0.1-0.1-0.2-0.1c-1.7-1.3-4-4.1-6.6-8.1
				c-1.7-2.7-3.6-5.9-5.5-9.6c-0.2-0.3-0.4-0.7-0.6-1.1c0-0.1-0.1-0.1-0.1-0.2c-0.2-0.4-0.4-0.8-0.6-1.3c0,0,0-0.1-0.1-0.1
				c-0.2-0.4-0.4-0.8-0.6-1.2c-0.1-0.1-0.1-0.3-0.2-0.4c-0.3-0.5-0.5-1.1-0.8-1.6c-0.1-0.3-0.3-0.6-0.4-0.8
				c-0.4-0.8-0.8-1.7-1.2-2.5c0,0,0,0,0,0c-0.3-0.6-0.5-1.1-0.8-1.7c0,0,0,0,0,0c-0.3-0.6-0.5-1.2-0.8-1.8c-0.3-0.6-0.5-1.2-0.8-1.8
				c-0.3-0.6-0.5-1.2-0.8-1.8c-8.7-20.6-13-38.4-9.5-39.9c0,0,0,0,0,0c0,0,0.1,0,0.1,0c3.5-1.1,13.3,14.3,21.9,34.7
				c3,7.1,5.4,13.8,7.3,19.7c0.9,3,1.7,5.7,2.2,8.2C480.9,238.3,481.1,242.8,479.7,243.8z"/>
			<g id="XMLID_123_">
				<path id="XMLID_124_" class="st26" d="M407.4,212.2c0.3,0.7,0.4,1.5,0.4,2.2c0,2.5-1.5,4.9-4.1,5.9l-31.7,12.2
					c-0.8-3.9-1.2-7.9-1.2-12.1c0-0.9,0-1.9,0.1-2.8c0-0.1,0-0.2,0-0.4c0.4-6.9,1.9-13.6,4.4-19.7l25-9.6c3.2-1.2,6.9,0.4,8.1,3.6
					c0.3,0.7,0.4,1.5,0.4,2.2c0,2.5-1.5,4.9-4,5.9l-15.7,6c-1.6,0.6-2.4,2.4-1.8,4.1c0.6,1.6,2.4,2.4,4.1,1.8l7.8-3
					C402.6,207.3,406.2,209,407.4,212.2z"/>
			</g>
			<g id="XMLID_116_">
				<path id="XMLID_122_" class="st27" d="M482.1,250.3c-6.5,3.3-13.8,5.2-21.6,5.2c-0.6,0-1.2,0-1.8,0c-0.6,0-1.3-0.1-1.9-0.1
					c-5.3-0.4-10.4-1.7-15.1-3.7c-1.4-2.5-2.9-5.1-4.4-8c-0.2-0.5-0.5-0.9-0.7-1.4c0-0.1-0.1-0.1-0.1-0.2c-0.3-0.5-0.6-1.1-0.8-1.6
					c0-0.1-0.1-0.1-0.1-0.2c-0.2-0.5-0.5-1-0.8-1.5c-0.1-0.2-0.2-0.4-0.3-0.6c-0.3-0.7-0.7-1.4-1-2.1c-0.2-0.4-0.3-0.7-0.5-1.1
					c-0.5-1.1-1-2.2-1.5-3.3c0,0,0,0,0,0c-0.3-0.7-0.7-1.5-1-2.2c0,0,0,0,0,0c-0.3-0.8-0.7-1.5-1-2.3c-0.4-0.8-0.7-1.6-1-2.4
					c-0.3-0.8-0.7-1.6-1-2.4c-4.9-11.6-8.7-22.5-11.1-31.4c0.1-0.3,0.2-0.6,0.4-0.9c1.8-4.5,4.3-8.7,7.4-12.3c0.4-0.5,0.8-1,1.3-1.5
					c5.4-6,12.3-10.6,20.1-13.3c-4,1.8,1,22.7,11.2,46.8c0.3,0.7,0.6,1.4,0.9,2.1c0.3,0.7,0.6,1.4,0.9,2.1c0.3,0.7,0.6,1.4,0.9,2.1
					c0,0,0,0,0,0c0.3,0.7,0.6,1.3,0.9,2c0,0,0,0,0,0c0.5,1,0.9,2,1.4,2.9c0.2,0.3,0.3,0.6,0.5,1c0.3,0.6,0.6,1.3,0.9,1.9
					c0.1,0.2,0.2,0.3,0.2,0.5c0.2,0.5,0.5,0.9,0.7,1.4c0,0,0.1,0.1,0.1,0.2c0.2,0.5,0.5,1,0.7,1.5c0,0.1,0.1,0.1,0.1,0.2
					c0.2,0.4,0.4,0.8,0.6,1.3c2.2,4.3,4.4,8.1,6.5,11.2c3,4.7,5.6,8,7.7,9.4c0.1,0.1,0.2,0.1,0.2,0.2c0.2,0.1,0.4,0.3,0.6,0.4
					c0.1,0,0.1,0.1,0.2,0.1c0.1,0,0.2,0.1,0.3,0.1c0.1,0,0.1,0,0.2,0.1C481.4,250.4,481.8,250.4,482.1,250.3z"/>
				<path id="XMLID_121_" class="st28" d="M423.9,177.6c-3.1,3.7-5.6,7.8-7.4,12.3c-0.1,0.3-0.2,0.6-0.4,0.9
					c-3.2-11.8-3.9-19.9-1.4-21c0,0,0,0,0,0c0.1,0,0.1,0,0.2-0.1C416.8,169.2,420,172.2,423.9,177.6z"/>
				<path id="XMLID_120_" class="st28" d="M459.3,274.2c-0.1,0.1-0.2,0.1-0.4,0.2c-0.4,0.2-0.9,0.2-1.5,0c-0.1,0-0.2,0-0.2-0.1
					c-0.1,0-0.2-0.1-0.4-0.2c-0.1,0-0.1-0.1-0.2-0.1c-0.2-0.1-0.5-0.3-0.8-0.5c-0.1-0.1-0.2-0.1-0.3-0.2c-2.6-1.9-6-6.1-9.8-12
					c-2-3.1-4.2-6.8-6.3-10.8c-0.6-1.1-1.2-2.3-1.9-3.5c-0.3-0.5-0.6-1.1-0.8-1.6c0-0.1-0.1-0.2-0.1-0.2c-0.3-0.6-0.6-1.2-1-1.9
					c0-0.1-0.1-0.1-0.1-0.2c-0.3-0.6-0.6-1.1-0.9-1.7c-0.1-0.2-0.2-0.4-0.3-0.6c-0.4-0.8-0.8-1.6-1.2-2.4c-0.2-0.4-0.4-0.8-0.6-1.2
					c-0.6-1.2-1.2-2.5-1.8-3.8c0,0,0,0,0,0c-0.4-0.8-0.8-1.7-1.2-2.6c0,0,0,0,0,0c-0.4-0.9-0.8-1.7-1.2-2.6
					c-0.4-0.9-0.8-1.8-1.2-2.7c-0.4-0.9-0.8-1.8-1.2-2.7c-4.5-10.6-8.1-20.6-10.8-29.4c-5.1-16.7-6.7-28.7-3.4-30.2c0,0,0,0,0,0
					c0.1,0,0.1,0,0.2-0.1c2.6-0.8,7.3,4.3,13,13.1c-0.4,0.5-0.8,1-1.3,1.5c-3.9-5.5-7.1-8.4-8.9-7.8c-0.1,0-0.1,0-0.2,0.1
					c0,0,0,0,0,0c-2.6,1.1-1.9,9.2,1.4,21c2.4,8.9,6.2,19.8,11.1,31.4c0.3,0.8,0.7,1.6,1,2.4c0.3,0.8,0.7,1.6,1,2.4
					c0.3,0.8,0.7,1.5,1,2.3c0,0,0,0,0,0c0.3,0.8,0.7,1.5,1,2.2c0,0,0,0,0,0c0.5,1.1,1,2.2,1.5,3.3c0.2,0.4,0.3,0.7,0.5,1.1
					c0.3,0.7,0.7,1.4,1,2.1c0.1,0.2,0.2,0.4,0.3,0.6c0.3,0.5,0.5,1,0.8,1.5c0,0.1,0.1,0.1,0.1,0.2c0.3,0.6,0.6,1.1,0.8,1.6
					c0,0.1,0.1,0.1,0.1,0.2c0.2,0.5,0.5,0.9,0.7,1.4c1.5,2.9,3,5.6,4.4,8c1,1.6,1.9,3.1,2.8,4.5c3.3,5.2,6.3,8.9,8.6,10.6
					c0.1,0.1,0.2,0.1,0.3,0.2c0.2,0.2,0.5,0.3,0.7,0.4c0.1,0,0.1,0.1,0.2,0.1c0.1,0.1,0.2,0.1,0.3,0.1c0.1,0,0.1,0,0.2,0.1
					c0.5,0.2,0.9,0.2,1.3,0c0.1-0.1,0.2-0.1,0.3-0.2c1.6-1.1,1.7-5.5,0.5-12.1c0.6,0.1,1.3,0.1,1.9,0.1c0.1,0.3,0.1,0.6,0.2,0.9
					C461.2,266.1,461.5,272.8,459.3,274.2z"/>
				<path id="XMLID_119_" class="st28" d="M456.4,267.5c-0.1,0.1-0.2,0.1-0.3,0.2c-0.4,0.1-0.8,0.1-1.3,0c-0.1,0-0.1,0-0.2-0.1
					c-0.1,0-0.2-0.1-0.3-0.1c-0.1,0-0.1-0.1-0.2-0.1c-0.2-0.1-0.4-0.2-0.7-0.4c-0.1-0.1-0.2-0.1-0.3-0.2c-2.3-1.7-5.3-5.4-8.6-10.6
					c-0.9-1.4-1.8-2.9-2.8-4.5c4.7,2,9.8,3.3,15.1,3.7C458.1,262,458,266.4,456.4,267.5z"/>
				<path id="XMLID_118_" class="st29" d="M423.9,177.6c-3.1,3.7-5.6,7.8-7.4,12.3c-0.1,0.3-0.2,0.6-0.4,0.9
					c-3.2-11.8-3.9-19.9-1.4-21c0,0,0,0,0,0c0.1,0,0.1,0,0.2-0.1C416.8,169.2,420,172.2,423.9,177.6z"/>
				<path id="XMLID_117_" class="st29" d="M456.4,267.5c-0.1,0.1-0.2,0.1-0.3,0.2c-0.4,0.1-0.8,0.1-1.3,0c-0.1,0-0.1,0-0.2-0.1
					c-0.1,0-0.2-0.1-0.3-0.1c-0.1,0-0.1-0.1-0.2-0.1c-0.2-0.1-0.4-0.2-0.7-0.4c-0.1-0.1-0.2-0.1-0.3-0.2c-2.3-1.7-5.3-5.4-8.6-10.6
					c-0.9-1.4-1.8-2.9-2.8-4.5c4.7,2,9.8,3.3,15.1,3.7C458.1,262,458,266.4,456.4,267.5z"/>
			</g>
			<g id="XMLID_114_">
				<path id="XMLID_115_" class="st26" d="M445.8,261.4L419,271.7c-0.7,0.3-1.5,0.4-2.3,0.4c-2.5,0-4.9-1.5-5.9-4
					c-1.2-3.3,0.4-6.9,3.6-8.1l7.8-3c1.6-0.6,2.4-2.4,1.8-4.1c-0.6-1.6-2.4-2.4-4.1-1.8l-15.7,6c-0.7,0.3-1.5,0.4-2.3,0.4
					c-2.5,0-4.9-1.5-5.9-4c-1.2-3.2,0.4-6.9,3.6-8.1l31-11.9c0.6,1.3,1.2,2.5,1.8,3.8c0.2,0.4,0.4,0.8,0.6,1.2
					c0.4,0.8,0.8,1.6,1.2,2.4c0.1,0.2,0.2,0.4,0.3,0.6c0.3,0.6,0.6,1.2,0.9,1.7c0,0.1,0.1,0.1,0.1,0.2c0.3,0.6,0.6,1.3,1,1.9
					c0,0.1,0.1,0.2,0.1,0.2c0.3,0.5,0.6,1.1,0.8,1.6C440.5,252.5,443.2,257.3,445.8,261.4z"/>
			</g>
			<path id="XMLID_113_" class="st26" d="M459.3,274.2c-0.1,0.1-0.2,0.1-0.3,0.2c0,0-0.1,0-0.1,0
				C459.1,274.4,459.2,274.3,459.3,274.2z"/>
			<circle id="XMLID_112_" class="st30" cx="477" cy="199.4" r="19"/>
		</g>
		<circle id="XMLID_110_" class="st31" cx="458.4" cy="50.9" r="9.5"/>
		<g id="XMLID_101_" class="st22">
			<circle id="XMLID_109_" class="st32" cx="537" cy="140.6" r="17.7"/>
			
				<ellipse id="XMLID_107_" transform="matrix(0.7524 0.6587 -0.6587 0.7524 216.9146 -315.382)" class="st33" cx="528" cy="130.9" rx="1.5" ry="2.9"/>
			
				<ellipse id="XMLID_106_" transform="matrix(0.5213 0.8534 -0.8534 0.5213 390.4522 -392.0092)" class="st33" cx="544.6" cy="152" rx="2.1" ry="4.2"/>
			<circle id="XMLID_105_" class="st33" cx="529.4" cy="144.1" r="3"/>
			<circle id="XMLID_104_" class="st33" cx="540.1" cy="128.8" r="2"/>
			<circle id="XMLID_103_" class="st33" cx="535.4" cy="147.4" r="1.4"/>
			
				<ellipse id="XMLID_102_" transform="matrix(0.9648 -0.263 0.263 0.9648 -16.8556 149.3552)" class="st33" cx="549.4" cy="137.6" rx="2.2" ry="3.1"/>
		</g>
		<linearGradient id="XMLID_37_" gradientUnits="userSpaceOnUse" x1="370.6815" y1="161.7332" x2="370.6815" y2="372.0083">
			<stop  offset="0" style="stop-color:#0162BD"/>
			<stop  offset="1" style="stop-color:#012B54"/>
		</linearGradient>
		<path id="XMLID_215_" class="st34" d="M511.4,157.5c-1.7,0.9-3.4,1.7-5.1,2.6c4.1,7.2,8.7,17.9,7.3,30.3
			c-1.6,14.1-9.4,17.7-16,33.2c-10.9,25.4,2,34.9-8,52.9c-9.3,16.6-30.1,25.9-47,27c-24.2,1.5-29.2-14.3-52.5-12.4
			c-19.4,1.6-24.3,13.2-47.4,23.7c-13.8,6.2-35.3,12.6-66.7,9.8c-22.6,17.5-45.2,35-67.8,52.5c46.9,5.8,93.8,11.7,140.8,17.5
			c55.8-31.4,111.6-62.7,167.4-94.1c5.7-28.4,11.4-56.9,17.1-85.3c-1-3.7-2.6-9.7-4-17.1c-2.6-13.3-2.3-18.2-5.5-25.2
			C522,168.8,518.5,163.2,511.4,157.5z"/>
		<g id="XMLID_227_" class="st22">
			<g id="XMLID_181_">
				<path id="XMLID_228_" class="st35" d="M506.8,142.8c2.1,4.5,3.3,9,3.3,12l-5.9,2.7c-2.3-2-4.9-5.9-7-10.4
					c-3.6-7.8-4.4-15.1-1.7-16.4C498.1,129.6,503.2,135,506.8,142.8z"/>
				<line id="XMLID_226_" class="st35" x1="509.8" y1="155" x2="504.2" y2="157.6"/>
			</g>
			<path id="XMLID_191_" class="st35" d="M501.2,152.2c0.9,1.1,1.8,2.3,2.8,3.4c-0.5,0.3-1.6,1-2.4,2.5c-0.7,1.4-0.7,2.8-0.6,3.3
				c-0.2-0.2-2.5-2.4-2-5.5C499.3,153.8,500.8,152.5,501.2,152.2z"/>
			<path id="XMLID_214_" class="st35" d="M508.3,149c0.3,1.4,0.5,2.9,0.8,4.3c0.5-0.2,1.8-0.6,3.5-0.2c1.6,0.4,2.5,1.3,2.9,1.7
				c0-0.3-0.2-3.4-2.9-5.1C510.7,148.6,508.8,148.9,508.3,149z"/>
		</g>
		
			<ellipse id="XMLID_212_" transform="matrix(0.9087 -0.4175 0.4175 0.9087 -11.4324 220.4557)" class="st36" cx="498.2" cy="136.4" rx="1.8" ry="4.5"/>
		<circle id="XMLID_230_" class="st37" cx="370.7" cy="286.5" r="2"/>
		<circle id="XMLID_233_" class="st37" cx="430" cy="134.3" r="2.1"/>
		<circle id="XMLID_234_" class="st37" cx="463" cy="100.6" r="1"/>
		<circle id="XMLID_236_" class="st37" cx="476.3" cy="22.1" r="1.6"/>
		<circle id="XMLID_237_" class="st37" cx="492.2" cy="47.2" r="1.7"/>
		<circle id="XMLID_239_" class="st37" cx="552.3" cy="9.3" r="0.7"/>
		<circle id="XMLID_244_" class="st37" cx="501.9" cy="172.6" r="1.2"/>
		<circle id="XMLID_245_" class="st37" cx="481" cy="272.1" r="1.1"/>
		<g class="st22">
			
				<image style="overflow:visible;" width="949" height="417" id="XMLID_10_" xlink:href="../../../Untitled-1.png"  transform="matrix(0.4977 0 0 0.4977 386.1295 -2.6)">
			</image>
		</g>
	</g>
</g>
<g id="Layer_11">
	<g id="XMLID_9_">
		<defs>
			<path id="XMLID_8_" d="M662.2,0c-0.7,1-1.5,1-2.4,1.5c-4,2.4-9.8,6-17.1,11c-7.3,4.9-15.9,11.2-25.3,19c-9.4,7.8-19.7,17-29.5,28
				c-4.9,5.5-9.7,11.5-13.9,18c-2.2,3.2-4.1,6.6-5.9,10.1l-0.7,1.3l-0.3,0.7c0,0,0,0,0,0c0,0,0,0,0,0l-0.1,0.2l-0.2,0.4
				c-0.5,1-0.9,2-1.4,3c-0.5,1-0.8,1.9-1.2,2.9c-0.4,0.9-0.8,1.8-1.2,2.8c-1.5,3.9-2.9,7.8-4,11.9c-1.1,4.1-2.1,8.3-2.8,12.6
				c-1.5,8.6-2,17.7-2.4,27.3c-0.3,9.6-0.6,19.8-1.8,30.1c-1.2,10.3-3.3,20.8-6.4,30.9c-1.6,5-3.3,10.1-5.2,15
				c-2,5-4.1,9.8-6.4,14.6c-4.6,9.6-10,18.8-16,27.6c-12,17.6-26.4,33.3-42,46.9c-15.6,13.6-32.4,25.3-49.5,34.9
				c-4.3,2.4-8.6,4.7-12.9,6.8c-2.2,1-4.3,2.1-6.4,3.1c-2.2,1-4.4,1.9-6.6,2.9c-8.7,3.6-17.5,6.7-26.1,9.1
				c-8.6,2.5-17.2,4.4-25.5,5.9c-8.3,1.5-16.4,2.4-24.2,3.1c-15.6,1.3-29.9,1.2-42.5,0.5c-6.3-0.4-12.2-0.9-17.6-1.5
				c-5.4-0.6-10.4-1.3-14.9-2c-9-1.4-15.9-2.8-20.7-3.8c-4.5-1-6.9-1.5-7.2-1.6c0.3,0.1,2.8,0.6,7.3,1.4c4.8,0.9,11.8,2.1,20.8,3.2
				c4.5,0.5,9.5,1.1,14.9,1.5c5.4,0.4,11.3,0.7,17.6,0.9c12.6,0.3,26.8-0.1,42.1-1.9c7.7-0.9,15.6-2.2,23.7-3.9
				c8.1-1.7,16.4-3.9,24.8-6.6c8.4-2.7,16.8-6,25.1-9.9c2.1-1,4.1-2,6.2-3c2.1-1,4.2-2.2,6.3-3.3c4.1-2.2,8.3-4.6,12.3-7.1
				c16.3-10,32.2-21.9,46.8-35.6c14.6-13.7,27.8-29.3,38.5-46.3c5.4-8.5,10.1-17.4,14.1-26.5c2-4.6,3.8-9.2,5.4-13.8
				c1.7-4.8,3.1-9.4,4.3-14.2c2.5-9.5,4.1-19,4.8-28.5c0.8-9.5,0.7-19.1,0.7-28.9c0-9.8,0.2-19.8,1.5-29.6c0.7-4.9,1.6-9.8,2.7-14.5
				c1.2-4.7,2.6-9.4,4.1-13.8c0.4-1.1,0.8-2.3,1.3-3.4c0.4-1.1,0.9-2.3,1.3-3.3c0.4-1,0.8-2,1.3-3l0.1-0.4l0.1-0.2l0.2-0.3l0.4-0.8
				l0.8-1.6c2-4.3,4.2-8.3,6.5-12.2c4.7-7.7,9.8-14.5,15-20.8c10.4-12.5,21.1-22.8,30.9-31.4c6.4-5.6,12.5-10,18-15H662.2z"/>
		</defs>
		<clipPath id="XMLID_38_">
			<use xlink:href="#XMLID_8_"  style="overflow:visible;"/>
		</clipPath>
		<path id="XMLID_232_" class="st38" d="M662.2,0c-0.7,1-1.5,1-2.4,1.5c-4,2.4-9.8,6-17.1,11c-7.3,4.9-15.9,11.2-25.3,19
			c-9.4,7.8-19.7,17-29.5,28c-4.9,5.5-9.7,11.5-13.9,18c-2.2,3.2-4.1,6.6-5.9,10.1l-0.7,1.3l-0.3,0.7c0,0,0,0,0,0c0,0,0,0,0,0
			l-0.1,0.2l-0.2,0.4c-0.5,1-0.9,2-1.4,3c-0.5,1-0.8,1.9-1.2,2.9c-0.4,0.9-0.8,1.8-1.2,2.8c-1.5,3.9-2.9,7.8-4,11.9
			c-1.1,4.1-2.1,8.3-2.8,12.6c-1.5,8.6-2,17.7-2.4,27.3c-0.3,9.6-0.6,19.8-1.8,30.1c-1.2,10.3-3.3,20.8-6.4,30.9
			c-1.6,5-3.3,10.1-5.2,15c-2,5-4.1,9.8-6.4,14.6c-4.6,9.6-10,18.8-16,27.6c-12,17.6-26.4,33.3-42,46.9
			c-15.6,13.6-32.4,25.3-49.5,34.9c-4.3,2.4-8.6,4.7-12.9,6.8c-2.2,1-4.3,2.1-6.4,3.1c-2.2,1-4.4,1.9-6.6,2.9
			c-8.7,3.6-17.5,6.7-26.1,9.1c-8.6,2.5-17.2,4.4-25.5,5.9c-8.3,1.5-16.4,2.4-24.2,3.1c-15.6,1.3-29.9,1.2-42.5,0.5
			c-6.3-0.4-12.2-0.9-17.6-1.5c-5.4-0.6-10.4-1.3-14.9-2c-9-1.4-15.9-2.8-20.7-3.8c-4.5-1-6.9-1.5-7.2-1.6c0.3,0.1,2.8,0.6,7.3,1.4
			c4.8,0.9,11.8,2.1,20.8,3.2c4.5,0.5,9.5,1.1,14.9,1.5c5.4,0.4,11.3,0.7,17.6,0.9c12.6,0.3,26.8-0.1,42.1-1.9
			c7.7-0.9,15.6-2.2,23.7-3.9c8.1-1.7,16.4-3.9,24.8-6.6c8.4-2.7,16.8-6,25.1-9.9c2.1-1,4.1-2,6.2-3c2.1-1,4.2-2.2,6.3-3.3
			c4.1-2.2,8.3-4.6,12.3-7.1c16.3-10,32.2-21.9,46.8-35.6c14.6-13.7,27.8-29.3,38.5-46.3c5.4-8.5,10.1-17.4,14.1-26.5
			c2-4.6,3.8-9.2,5.4-13.8c1.7-4.8,3.1-9.4,4.3-14.2c2.5-9.5,4.1-19,4.8-28.5c0.8-9.5,0.7-19.1,0.7-28.9c0-9.8,0.2-19.8,1.5-29.6
			c0.7-4.9,1.6-9.8,2.7-14.5c1.2-4.7,2.6-9.4,4.1-13.8c0.4-1.1,0.8-2.3,1.3-3.4c0.4-1.1,0.9-2.3,1.3-3.3c0.4-1,0.8-2,1.3-3l0.1-0.4
			l0.1-0.2l0.2-0.3l0.4-0.8l0.8-1.6c2-4.3,4.2-8.3,6.5-12.2c4.7-7.7,9.8-14.5,15-20.8c10.4-12.5,21.1-22.8,30.9-31.4
			c6.4-5.6,12.5-10,18-15H662.2z"/>
		<g style="clip-path:url(#XMLID_38_);">
			
				<image style="overflow:visible;" width="949" height="417" id="XMLID_1_" xlink:href="../../../Untitled-1.png"  transform="matrix(0.4977 0 0 0.4977 386.1295 -2.6)">
			</image>
		</g>
	</g>
	<g id="XMLID_6_">
		<defs>
			<path id="XMLID_5_" d="M858.4,333.7v32.2c-3.9-3.7-7.7-7.4-11.6-11c-2.7-2.5-5.3-4.9-8-7.3c-2.7-2.4-5.4-4.7-8-6.8
				c-0.7-0.5-1.3-1-1.9-1.5l-1.7-1.2l-2.3-1.5c-0.8-0.5-1.6-1.1-2.3-1.5c-2.8-1.8-5.8-3.6-8.8-5.3c-6.1-3.4-12.3-6.5-18.8-9.1
				c-12.9-5.4-26.5-9.2-40.4-11.7c-13.9-2.5-28.2-3.6-42.5-3.5c-14.3,0-28.7,1.2-43,3.3c-14.3,2.1-28.5,5.1-42.5,8.9
				c-3.5,0.9-7,1.9-10.5,3l-2.5,0.8L611,322l-5.3,1.6c-3.5,1.1-6.8,2.3-10.2,3.5l-5.1,1.9l-2.5,1l-2.5,1l-5,2.1
				c-1.7,0.7-3.3,1.5-4.9,2.2c-3.3,1.4-6.5,3.1-9.8,4.7c-6.4,3.3-12.7,6.8-18.9,10.6c-12.3,7.6-24.1,16.3-35.8,25.3
				c-11.7,9-23.6,18.2-36.6,26c-13,7.8-26.9,14.3-41.4,18.6l-2.7,0.8l-2.7,0.7c-1.8,0.5-3.6,1-5.5,1.4l-5.5,1.3l-1.4,0.3l-0.3,0.1
				l-0.4,0.1l-0.7,0.1l-2.7,0.5l-2.7,0.5l-2.8,0.4c-1.9,0.3-3.8,0.6-5.6,0.8c-1.9,0.2-3.7,0.5-5.6,0.6l-5.6,0.5
				c-15,1.1-30,0.8-44.8-0.6c-14.9-1.4-29.6-3.9-44.1-7.2c-14.5-3.3-28.8-7.5-42.8-12.4c-14-4.9-27.7-10.5-41.1-17
				c6.8,3,13.6,5.8,20.6,8.4c6.9,2.6,13.9,5,21,7.2c14.1,4.4,28.5,8,42.9,10.8c14.5,2.8,29.1,4.8,43.8,5.6
				c14.7,0.9,29.4,0.7,43.9-0.9l5.4-0.7c1.8-0.3,3.6-0.5,5.4-0.8c1.8-0.3,3.6-0.6,5.3-1l2.7-0.5l2.7-0.6l2.7-0.6l0.7-0.2l0.3-0.1
				l0.3-0.1l1.3-0.4l5.3-1.4c1.8-0.5,3.5-1.1,5.2-1.6l2.6-0.8l2.6-0.9c13.7-4.7,26.7-11.2,38.8-19.1c12.1-7.9,23.4-17.3,34.8-26.7
				c11.4-9.4,23.3-18.8,35.9-27.2c6.3-4.2,12.8-8.1,19.4-11.8c3.4-1.8,6.7-3.6,10.1-5.3c1.7-0.8,3.4-1.7,5.1-2.5l5.2-2.4l2.6-1.2
				l2.6-1.1l5.3-2.2c3.5-1.4,7.2-2.8,10.7-4.1l5.2-1.8l2.6-0.9l2.8-0.9c3.5-1.2,7.1-2.3,10.7-3.4c28.8-8.9,58.8-14.8,89.4-15.9
				c15.3-0.6,30.7,0.1,46,2.3c15.3,2.2,30.5,5.9,45.2,11.4c7.3,2.7,14.5,5.9,21.5,9.6c3.5,1.8,6.9,3.7,10.4,5.8
				c0.9,0.5,1.7,1,2.4,1.5l2.4,1.5c2.1,1.4,3.7,2.6,5.4,3.8c3.2,2.5,6.2,4.9,9.1,7.4C855.6,331.2,857,332.4,858.4,333.7z"/>
		</defs>
		<clipPath id="XMLID_39_">
			<use xlink:href="#XMLID_5_"  style="overflow:visible;"/>
		</clipPath>
		<path id="XMLID_229_" class="st39" d="M858.4,333.7v32.2c-3.9-3.7-7.7-7.4-11.6-11c-2.7-2.5-5.3-4.9-8-7.3c-2.7-2.4-5.4-4.7-8-6.8
			c-0.7-0.5-1.3-1-1.9-1.5l-1.7-1.2l-2.3-1.5c-0.8-0.5-1.6-1.1-2.3-1.5c-2.8-1.8-5.8-3.6-8.8-5.3c-6.1-3.4-12.3-6.5-18.8-9.1
			c-12.9-5.4-26.5-9.2-40.4-11.7c-13.9-2.5-28.2-3.6-42.5-3.5c-14.3,0-28.7,1.2-43,3.3c-14.3,2.1-28.5,5.1-42.5,8.9
			c-3.5,0.9-7,1.9-10.5,3l-2.5,0.8L611,322l-5.3,1.6c-3.5,1.1-6.8,2.3-10.2,3.5l-5.1,1.9l-2.5,1l-2.5,1l-5,2.1
			c-1.7,0.7-3.3,1.5-4.9,2.2c-3.3,1.4-6.5,3.1-9.8,4.7c-6.4,3.3-12.7,6.8-18.9,10.6c-12.3,7.6-24.1,16.3-35.8,25.3
			c-11.7,9-23.6,18.2-36.6,26c-13,7.8-26.9,14.3-41.4,18.6l-2.7,0.8l-2.7,0.7c-1.8,0.5-3.6,1-5.5,1.4l-5.5,1.3l-1.4,0.3l-0.3,0.1
			l-0.4,0.1l-0.7,0.1l-2.7,0.5l-2.7,0.5l-2.8,0.4c-1.9,0.3-3.8,0.6-5.6,0.8c-1.9,0.2-3.7,0.5-5.6,0.6l-5.6,0.5
			c-15,1.1-30,0.8-44.8-0.6c-14.9-1.4-29.6-3.9-44.1-7.2c-14.5-3.3-28.8-7.5-42.8-12.4c-14-4.9-27.7-10.5-41.1-17
			c6.8,3,13.6,5.8,20.6,8.4c6.9,2.6,13.9,5,21,7.2c14.1,4.4,28.5,8,42.9,10.8c14.5,2.8,29.1,4.8,43.8,5.6
			c14.7,0.9,29.4,0.7,43.9-0.9l5.4-0.7c1.8-0.3,3.6-0.5,5.4-0.8c1.8-0.3,3.6-0.6,5.3-1l2.7-0.5l2.7-0.6l2.7-0.6l0.7-0.2l0.3-0.1
			l0.3-0.1l1.3-0.4l5.3-1.4c1.8-0.5,3.5-1.1,5.2-1.6l2.6-0.8l2.6-0.9c13.7-4.7,26.7-11.2,38.8-19.1c12.1-7.9,23.4-17.3,34.8-26.7
			c11.4-9.4,23.3-18.8,35.9-27.2c6.3-4.2,12.8-8.1,19.4-11.8c3.4-1.8,6.7-3.6,10.1-5.3c1.7-0.8,3.4-1.7,5.1-2.5l5.2-2.4l2.6-1.2
			l2.6-1.1l5.3-2.2c3.5-1.4,7.2-2.8,10.7-4.1l5.2-1.8l2.6-0.9l2.8-0.9c3.5-1.2,7.1-2.3,10.7-3.4c28.8-8.9,58.8-14.8,89.4-15.9
			c15.3-0.6,30.7,0.1,46,2.3c15.3,2.2,30.5,5.9,45.2,11.4c7.3,2.7,14.5,5.9,21.5,9.6c3.5,1.8,6.9,3.7,10.4,5.8
			c0.9,0.5,1.7,1,2.4,1.5l2.4,1.5c2.1,1.4,3.7,2.6,5.4,3.8c3.2,2.5,6.2,4.9,9.1,7.4C855.6,331.2,857,332.4,858.4,333.7z"/>
		<linearGradient id="XMLID_40_" gradientUnits="userSpaceOnUse" x1="677.9006" y1="0.3681" x2="677.9006" y2="189.6542">
			<stop  offset="0" style="stop-color:#FFFFFF"/>
			<stop  offset="1" style="stop-color:#000000"/>
		</linearGradient>
		<path id="XMLID_7_" class="st40" d="M533.9,0.1c0,0,13.6,15.3,13.6,53.9s-15.9,47.2-29.9,65.1c-14,17.9-20.3,71.9-20.3,71.9h361.1
			V0L533.9,0.1z"/>
	</g>
</g>
<g id="people">
	<path id="XMLID_19_" class="st41" d="M186.3,663.9l-17.2,0.2l-1.9,18.9h37.7c0,0,2.4-5.4-7.7-5.4S186.3,669.2,186.3,663.9z"/>
	<path id="XMLID_79_" class="st41" d="M231,663.9l-17.2,0.2l-1.9,18.9h37.7c0,0,2.4-5.4-7.7-5.4S231,669.2,231,663.9z"/>
	<path id="XMLID_149_" class="st41" d="M77.2,682.4c0,0,0.2-5.4-7.3-5.4c-7.5,0-14.5-4-14.5-8H39.1l-3,13.3L77.2,682.4z"/>
	<path id="XMLID_83_" class="st41" d="M114,682.4c0,0-0.2-5.8-7.8-5.8s-14-3.6-14-7.6H75.9l-3,13.3L114,682.4z"/>
	<linearGradient id="XMLID_41_" gradientUnits="userSpaceOnUse" x1="204.4457" y1="408.9387" x2="204.4457" y2="424.4014">
		<stop  offset="0" style="stop-color:#DB6565"/>
		<stop  offset="1" style="stop-color:#F79B7C"/>
	</linearGradient>
	<path id="XMLID_82_" class="st42" d="M214.6,419.1c0,0-3,5.3-9.9,5.3s-10.4-5.9-10.4-5.9l1.7-14.6l17.9,3.9
		c-0.2,2.1-0.3,4.4,0.2,7.8C214.2,416.8,214.4,418.4,214.6,419.1z"/>
	<linearGradient id="XMLID_42_" gradientUnits="userSpaceOnUse" x1="195.9842" y1="369.413" x2="212.4333" y2="405.811">
		<stop  offset="0" style="stop-color:#DB6565"/>
		<stop  offset="1" style="stop-color:#F79B7C"/>
	</linearGradient>
	<path id="XMLID_4_" class="st43" d="M218.4,353.7c5.5,4,7,10.8,10.1,24.6c3.5,15.7,1.1,20.9-0.3,23.2c-2,3.2-4.5,4.9-5.9,5.9
		c-8.7,5.9-21.6,5.8-31.2,1c-11.7-5.7-22.5-20.2-18.7-35.4c4.2-17.3,23.9-22,25-22.2C200.4,350.2,210.5,348,218.4,353.7z"/>
	<linearGradient id="XMLID_43_" gradientUnits="userSpaceOnUse" x1="234.5233" y1="535.1396" x2="193.212" y2="662.1057">
		<stop  offset="0" style="stop-color:#205080"/>
		<stop  offset="1" style="stop-color:#1F3A57"/>
	</linearGradient>
	<path id="XMLID_23_" class="st44" d="M213.1,670.8c-7-47.9-10.4-96.1-17.4-143.9c15.2-0.9,24.5-1.5,39.7-2.5
		c0.3,26.2,0.4,52.9,0,80.2c-0.3,20.7-2.8,46.1-3.5,66.2H213.1z"/>
	<linearGradient id="XMLID_44_" gradientUnits="userSpaceOnUse" x1="202.6198" y1="548.6176" x2="145.3903" y2="666.4877">
		<stop  offset="0" style="stop-color:#205080"/>
		<stop  offset="1" style="stop-color:#1F3A57"/>
	</linearGradient>
	<path id="XMLID_29_" class="st45" d="M187.2,670.8c5.7-29.2,10.5-61.3,17.5-91.8c4.7-20.6,9.5-40.8,14.5-60.6
		c-18.1,2.8-31.7,5.6-49.8,8.4c-0.6,21.8-1.1,43.6-1.6,65.4c-0.6,25.3,1.2,53.2,0.7,78.5H187.2z"/>
	<linearGradient id="XMLID_45_" gradientUnits="userSpaceOnUse" x1="168.4835" y1="369.3506" x2="230.8453" y2="369.3506">
		<stop  offset="0" style="stop-color:#000F4A"/>
		<stop  offset="1" style="stop-color:#243191"/>
	</linearGradient>
	<path id="XMLID_21_" class="st46" d="M219.5,362.8c0,0-8,10-17.4,13.8c-9.4,3.8-18.1,4.3-18.1,4.3l2.7,10.8c0,0-5.1-2.1-8.6-1.1
		s-1.1,5.3-1.1,5.3s-11-11.3-7.8-24.2c3.2-13,15.1-20.8,29.4-25.9c14.3-5.1,29.8-3,31.8,0c2,3-1.4,7-4.3,10.3c0,0,4.3,7.3,1,15.4
		C226.9,371.5,223.7,364.5,219.5,362.8z"/>
	<g id="XMLID_88_">
		<g id="XMLID_26_">
			<g id="XMLID_27_">
				<path id="XMLID_80_" class="st47" d="M186,381.6c0.7,3.1,2.7,5.9,5.2,7.6c2.5,1.7,5.7,2.7,8.8,2.3l10-1.5c0.6-0.1,1-0.7,0.9-1.3
					l0,0c-0.1-0.6,0.5-1.2,1.3-1.3l2.4-0.4c0.9-0.1,1.7,0.3,1.8,0.9l0,0c0.1,0.6,0.8,1.1,1.4,1l9.3-1.4c5-0.7,8.8-4.6,9-9.6
					c0.2-4.2-2.1-8-5.2-10.3c-2.4-1.7-5.4-2.6-8.3-2.2l-27.9,3.7C188.5,369.8,184.5,375.4,186,381.6z"/>
			</g>
			<path id="XMLID_25_" class="st47" d="M188.5,372c0,0-5.6,4.5-7.8,9s1.9,12.3,6.8,13.6c5,1.2,12.9,0.4,15.9,0
				c3-0.4,7.6-4.2,10.4-4.6c2.8-0.4,5.2,2.1,8.6,1.7c3.4-0.4,4.1-0.6,7-1.1c2.9-0.5,4.2-2.4,6.6-12.1
				C238.1,370.1,188.5,372,188.5,372z"/>
		</g>
		<path id="XMLID_90_" class="st48" d="M197.8,390c-5,0-9.7-3.7-10.8-8.5c-0.6-2.7-0.2-5.4,1.3-7.5c1.5-2.2,3.8-3.5,6.5-3.9
			l28.3-3.8c0.4-0.1,0.9-0.1,1.3-0.1c4.9,0,9.4,3.6,10.5,8.4c0.6,2.6,0.2,5.3-1.3,7.4c-1.4,2.1-3.6,3.4-6.1,3.8l-28.2,4.2
			C198.8,390,198.3,390,197.8,390L197.8,390z"/>
		<path id="XMLID_18_" class="st49" d="M199.2,389.1l28.2-4.2c4.8-0.7,7.8-5.3,6.7-10.1l0,0c-1.1-4.9-6-8.3-10.9-7.7l-28.3,3.8
			c-5.1,0.7-8.3,5.3-7.1,10.4l0,0C189,386.3,194.1,389.8,199.2,389.1z"/>
	</g>
	<linearGradient id="XMLID_46_" gradientUnits="userSpaceOnUse" x1="52.3221" y1="586.0312" x2="52.3221" y2="665.0958">
		<stop  offset="0" style="stop-color:#DB7B65"/>
		<stop  offset="1" style="stop-color:#F79B7C"/>
	</linearGradient>
	<path id="XMLID_77_" class="st50" d="M40.7,590.7c0,0-2.5,9.1-3.5,27.4c-1.1,18.3,2,50.9,2,50.9h16.3c0,0,3.8-40.5,12.3-82.5
		L40.7,590.7z"/>
	<linearGradient id="XMLID_47_" gradientUnits="userSpaceOnUse" x1="89.1012" y1="586.588" x2="89.1012" y2="665.7015">
		<stop  offset="0" style="stop-color:#DB7B65"/>
		<stop  offset="1" style="stop-color:#F79B7C"/>
	</linearGradient>
	<path id="XMLID_84_" class="st51" d="M77.5,590.7c0,0-2.5,9.1-3.5,27.4c-1.1,18.3,2,50.9,2,50.9h16.3c0,0,3.8-40.5,12.3-82.5
		L77.5,590.7z"/>
	<linearGradient id="XMLID_48_" gradientUnits="userSpaceOnUse" x1="232.9417" y1="490.7966" x2="253.7751" y2="478.5103">
		<stop  offset="0" style="stop-color:#DB6565"/>
		<stop  offset="1" style="stop-color:#F79B7C"/>
	</linearGradient>
	<path id="XMLID_205_" class="st52" d="M323.6,458c-1,2.7-3,4.1-8.2,7.1c-6.1,3.5-9.1,4.9-10.6,5.5c-3.9,3.4-14.2,12-24.9,18.9
		c-13.6,8.8-28.4,17.2-32.6,15.9c-4.3-1.3-8.7-7.2-13.5-16.5c-6-11.7-7.8-20.5-7.8-20.5l19.3-4.3c2,8,4.8,15.8,6.2,19.7
		c0.5,1.3,2,1.9,3.2,1.2c2.8-1.6,7.9-4.4,13.7-7.6c7.9-4.4,26.2-15.3,29.9-17.5c1.6-3.5,5.4-6.2,7.9-7.5c1.6-0.9,5.6-3,10.7-2.4
		c1.8,0.2,5.3,0.7,6.6,3.2C324.6,455,323.8,457.4,323.6,458z"/>
	<path id="XMLID_207_" class="st53" d="M159.1,462.1c-2.1-1.1-3.7-2.6-5.7-4.3v0C155.4,459.5,157.1,461,159.1,462.1z"/>
	<g id="XMLID_22_">
		<linearGradient id="XMLID_49_" gradientUnits="userSpaceOnUse" x1="186.4812" y1="541.6768" x2="249.6081" y2="440.0683">
			<stop  offset="0" style="stop-color:#3E0080"/>
			<stop  offset="1" style="stop-color:#7702F4"/>
		</linearGradient>
		<path id="XMLID_206_" class="st54" d="M241.2,524.6c0.1,4.7-2.1,8.9-5.5,10.4c-8,3.6-18.3,7.1-30.3,8.6
			c-13.2,1.6-24.7,0.4-33.8-1.6c-4.4-0.9-7.4-6.2-6.8-11.9c1.1-11.3,2-22.3,3-33.3c5.6,1.1,12.1,2.3,18.4,2.9
			c13.6,1.4,28.1,0.4,32.2,0.4h0c1.6,0,4.8,0.1,12.2-0.6c5.6-0.5,8.1-1.1,10.1-3.3C240.7,505.9,241,515.2,241.2,524.6z"/>
		<linearGradient id="XMLID_50_" gradientUnits="userSpaceOnUse" x1="161.4042" y1="526.097" x2="224.5311" y2="424.4886">
			<stop  offset="0" style="stop-color:#3E0080"/>
			<stop  offset="1" style="stop-color:#7702F4"/>
		</linearGradient>
		<path id="XMLID_208_" class="st55" d="M243.3,468.5c-1.3,0.8-2.5,1.4-3.6,1.9c0.2,6,0.3,12,0.5,18c-0.6-0.5-1.2-0.9-1.7-1.2
			c-4.3-2.8-8.9-2.6-10.7-2.5c-2.9,0.1-7.3,1.2-10.4,3.2h0c-6.2-1-25-2.8-33.2-4c-6-0.9-11.4-2-14.7-2h0c0.6-6,0.9-11.1,1.9-16.7
			c0,0,0,0,0,0l-1.1,0c-4-0.2-7.9-1.3-11.3-3.2c-2.1-1.1-4-2.6-5.7-4.3c0,0,0,0,0,0s0,0,0,0l-0.8-0.8c1.7-6.5,4.9-15,11.3-23.4
			c2.1-2.8,3.6-4.4,5.7-6.1c1.8-1.5,3.5-2.4,6.5-3.4c0.4-0.2,0.9-0.3,1.4-0.5c2.7-0.9,6.3-1.9,11.5-3.5c2.4-0.7,4.4-1.3,5.5-1.7
			c0,0,3.5,5.9,10.4,5.9c7,0,9.9-5.3,9.9-5.3c2.2-0.4,9.2,2,14.9,4.9c3.6,1.8,5.7,4.3,6.9,5.8c3.5,4.3,4.6,8.4,6.6,16.2
			c2,8,3.6,14.7,4.7,19.3C246.5,466.3,245,467.5,243.3,468.5z"/>
	</g>
	<linearGradient id="XMLID_51_" gradientUnits="userSpaceOnUse" x1="52.1562" y1="346.7486" x2="103.9458" y2="271.5383">
		<stop  offset="0" style="stop-color:#4A0000"/>
		<stop  offset="1" style="stop-color:#912424"/>
	</linearGradient>
	<path id="XMLID_185_" class="st56" d="M112.3,302.9c3.6-14.5-4-36.4-19.9-44.2c-14-6.9-28.7-0.2-38,8c-19,16.7-11.8,40.9-8.7,50.2
		c3.7,10.9,7.2,20.1,10.3,25.4c20.2,0,32.5,0.9,52.7,0.9c-2.1-5.4-2.4-13.5-1.4-23.1C108.3,311.9,110.8,308.9,112.3,302.9z
		 M104.2,316.1c-2.3,3-5,4.5-6.5,5.2c-1.7,0.9-3.4,1.5-5.3,2v6.5c-2,2.5-5.1,7-14.1,7c-9,0-11.6-10.1-11.6-10.1l0.8-7.9
		c-0.3-0.2-0.7-0.4-1-0.7c-0.4-0.3-0.8-0.5-1.2-0.8c0.3-1.8,0.4-3.8,0.5-5.9c0.1-7.8-1.7-14.2-3.2-18.2c2.5,0.3,6.8,0.4,11.5-1.5
		c10.6-4.4,13.7-15.5,14.1-17c1.9,0.5,11,3,16.5,12.1c0.8,1.4,1.5,2.7,2,4.1c0.1,0.5,0.1,1,0.2,1.5
		C108.8,309,105.9,313.9,104.2,316.1z"/>
	<linearGradient id="XMLID_52_" gradientUnits="userSpaceOnUse" x1="147.4167" y1="475.0195" x2="174.2903" y2="482.3965">
		<stop  offset="0" style="stop-color:#DB6565"/>
		<stop  offset="1" style="stop-color:#F79B7C"/>
	</linearGradient>
	<path id="XMLID_217_" class="st57" d="M243,493.1c0.1,2.3-1.7,4-2.2,4.5c-0.1,0.1-0.2,0.2-0.4,0.3c-2,1.7-4.5,2.3-10.1,2.7
		c-7.3,0.5-10.6,0.4-12.2,0.4h0c-4.2,0-18.7,0.8-32.2-0.3c-6.3-0.5-12.7-1.3-18.4-2.1c-8.8-1.3-15.6-3.1-17.2-5.2
		c-2.6-3.6-2.5-11-0.7-21.3c1-5.8,2.4-10.6,3.6-14.1c1.7,1.7,3.6,3.1,5.7,4.2c3.5,1.9,7.3,3,11.3,3.2l1.1,0c0,0,0,0,0,0
		c-2,5.4-3.7,10.4-4.6,13.3c-0.4,1.3,0.5,2.9,1.8,3.1c0.2,0,0.5,0.3,0.8,0.3h0c3.3,0,8.7,1.1,14.7,2c8.2,1.2,27.1,3,33.2,4h0
		c3-2,7.5-3.1,10.4-3.2c1.8-0.1,6.4-0.3,10.7,2.6c0.5,0.3,1.1,0.7,1.7,1.2C241.6,489.6,243,491.1,243,493.1z"/>
	<linearGradient id="XMLID_53_" gradientUnits="userSpaceOnUse" x1="157.98" y1="424.3235" x2="179.6407" y2="430.0997">
		<stop  offset="0" style="stop-color:#DB7B65"/>
		<stop  offset="1" style="stop-color:#F79B7C"/>
	</linearGradient>
	<path id="XMLID_89_" class="st58" d="M161.7,433.6c0.5,1,1.5,2.1,15.6,5.6c6.9,1.7,9.9,2.2,12.9,0.7c0.7-0.4,3.3-1.7,4.1-4.3
		c1-3.3-1.7-6.6-3.1-8.3c-3.9-4.8-9.2-6.2-11.3-6.8c-4.3-1.1-12-2.2-16.5,2.1C160.4,425.4,159.7,430,161.7,433.6z"/>
	<linearGradient id="XMLID_54_" gradientUnits="userSpaceOnUse" x1="112.3211" y1="521.4075" x2="30.6863" y2="526.985">
		<stop  offset="0" style="stop-color:#202F80"/>
		<stop  offset="1" style="stop-color:#1F2357"/>
	</linearGradient>
	<path id="XMLID_242_" class="st59" d="M114.8,549.5c0,13.5-0.3,47.3-0.3,47.3s-17,4.9-42.3,4.9c-25.3,0-42.6-8.4-42.6-8.4
		s3.3-19.4,2.7-36.4c-0.6-17-11.6-94.9-11.6-94.9l43.3,1.6c0.4-2.6,0.9-6.2,1.5-10.7c0.2-1.9,0.5-4,0.7-6.3c3.5,0.3,7.2,0.6,9.7,0.6
		c2.7,0,14.6-0.2,17.9-0.4c-0.4,2.3-0.7,4.4-1,6.2c-1,6-1.7,9.7-1.9,11.2l15.5,0.9C106.5,465.1,114.8,536,114.8,549.5z"/>
	<linearGradient id="XMLID_55_" gradientUnits="userSpaceOnUse" x1="29.4735" y1="463.9352" x2="60.74" y2="360.2007">
		<stop  offset="0" style="stop-color:#DB2910"/>
		<stop  offset="1" style="stop-color:#DB5542"/>
	</linearGradient>
	<path id="XMLID_249_" class="st60" d="M69.5,399.3c-0.7,31.3-5,62.9-6.1,67.7c-0.6,2.5-0.7,4.7-1.5,6.2c-0.8,1.3-2.1,2-5,2
		c-6.1,0-19.8-3.2-19.8-3.2l-0.6-1.8c-0.4-0.8-0.9-1.5-1.4-2.2l-5.6-51.6l17.2-61.8l-15.2-15.1c7.4-4.3,20.7-9.1,32.8-13.2
		c0.2,1.4,0.7,5.4,1.3,11c0.3,2.5,0.6,5.3,0.9,8.4C68.2,360.8,69.9,381.8,69.5,399.3z"/>
	<g id="XMLID_86_">
		
			<rect id="XMLID_20_" x="10.8" y="457.1" transform="matrix(-0.2554 0.9668 -0.9668 -0.2554 503.8821 577.4273)" class="st61" width="37.7" height="51.3"/>
		
			<rect id="XMLID_28_" x="33.8" y="486.3" transform="matrix(-0.2554 0.9668 -0.9668 -0.2554 532.0009 569.3478)" class="st62" width="26" height="6.4"/>
		
			<rect id="XMLID_85_" x="5.4" y="478.9" transform="matrix(-0.2554 0.9668 -0.9668 -0.2554 478.9041 591.0609)" class="st62" width="12.8" height="2"/>
		
			<rect id="XMLID_81_" x="31.6" y="441" transform="matrix(-0.2554 0.9668 -0.9668 -0.2554 493.6663 553.1244)" class="st63" width="4.4" height="51.3"/>
	</g>
	<linearGradient id="XMLID_56_" gradientUnits="userSpaceOnUse" x1="10.6635" y1="351.5273" x2="123.4423" y2="335.7715">
		<stop  offset="0" style="stop-color:#DB2910"/>
		<stop  offset="1" style="stop-color:#DB5542"/>
	</linearGradient>
	<path id="XMLID_210_" class="st64" d="M24.3,348.2c-0.1,0.5-0.4,1.5-0.7,2.9C23.8,350,24,349.1,24.3,348.2z"/>
	<path id="XMLID_175_" class="st1" d="M92.4,329.6c0-0.2,0.1-0.4,0.1-0.4s0,0.1,0,0.4"/>
	<path id="XMLID_95_" class="st1" d="M64.4,326.3c0-0.4-0.1-0.5-0.1-0.5"/>
	<linearGradient id="XMLID_58_" gradientUnits="userSpaceOnUse" x1="26.1829" y1="460.651" x2="30.9963" y2="488.0879">
		<stop  offset="0" style="stop-color:#DB7B65"/>
		<stop  offset="1" style="stop-color:#F79B7C"/>
	</linearGradient>
	<path id="XMLID_209_" class="st65" d="M36.7,492.9c-1.1,1.9-3.3,5.5-6.8,5.7c-2.8,0.2-4.9-1.8-5.5-2.4c-2.5-2.4-3-5.3-3.7-12.4
		c-0.9-8.5-1-12.5-0.8-14.4c1.5,0.6,5.3,1.7,9.4,1.2c1.3-0.2,2.5-0.6,3.6-1.2c0.8-0.4,1.5-0.9,2.2-1.4c0.5,0.7,1,1.4,1.4,2.2
		c1.8,3.3,2.4,7.2,2.7,9.9C39.5,482.2,39.8,487.6,36.7,492.9z"/>
	<linearGradient id="XMLID_59_" gradientUnits="userSpaceOnUse" x1="66.7024" y1="327.89" x2="92.4324" y2="327.89">
		<stop  offset="0" style="stop-color:#4A0000"/>
		<stop  offset="1" style="stop-color:#912424"/>
	</linearGradient>
	<path id="XMLID_176_" class="st66" d="M92.4,323.4v6.5c-2,2.5-5.1,7-14.1,7c-9,0-11.6-10.1-11.6-10.1l0.8-7.9
		C74.8,323.5,84.3,325.4,92.4,323.4z"/>
	<linearGradient id="XMLID_60_" gradientUnits="userSpaceOnUse" x1="82.9624" y1="313.2354" x2="100.2823" y2="313.2354">
		<stop  offset="0" style="stop-color:#4A0000"/>
		<stop  offset="1" style="stop-color:#912424"/>
	</linearGradient>
	<path id="XMLID_179_" class="st67" d="M100.3,309.6c-1,4.2-4.7,7.2-8.8,7.3c-3.6,0-7-2.2-8.5-5.6
		C88.7,310.7,94.5,310.1,100.3,309.6z"/>
	<linearGradient id="XMLID_61_" gradientUnits="userSpaceOnUse" x1="91.6415" y1="310.2305" x2="91.0361" y2="316.7086">
		<stop  offset="0" style="stop-color:#DB7B65"/>
		<stop  offset="1" style="stop-color:#F79B7C"/>
	</linearGradient>
	<path id="XMLID_92_" class="st68" d="M100.3,309.6c-1,4.2-4.7,7.2-8.8,7.3c-3.6,0-7-2.2-8.5-5.6C88.7,310.7,94.5,310.1,100.3,309.6
		z"/>
	<path id="XMLID_91_" class="st62" d="M100.3,309.6c-1,4.2-4.7,7.2-8.8,7.3c-3.6,0-7-2.2-8.5-5.6C88.7,310.7,94.5,310.1,100.3,309.6
		z"/>
	<linearGradient id="XMLID_62_" gradientUnits="userSpaceOnUse" x1="84.9809" y1="274.73" x2="84.9809" y2="324.1529">
		<stop  offset="0" style="stop-color:#DB7B65"/>
		<stop  offset="1" style="stop-color:#F79B7C"/>
	</linearGradient>
	<path id="XMLID_189_" class="st69" d="M106.8,292.5c-0.1-0.5-0.1-1-0.2-1.5c-0.5-1.3-1.2-2.7-2-4.1c-5.5-9.1-14.6-11.6-16.5-12.1
		c-0.4,1.6-3.6,12.6-14.1,17c-4.6,1.9-8.9,1.8-11.5,1.5c1.5,4,3.3,10.4,3.2,18.2c0,2.1-0.2,4.1-0.5,5.9c0.4,0.3,0.8,0.6,1.2,0.8
		c0.3,0.2,0.7,0.4,1,0.7c7.4,4.6,16.9,6.5,25,4.5c1.8-0.4,3.6-1.1,5.3-2c1.5-0.8,4.2-2.2,6.5-5.2C105.9,313.9,108.8,309,106.8,292.5
		z M91.5,316.9c-3.6,0-7-2.2-8.5-5.6c5.8-0.6,11.5-1.1,17.3-1.7C99.3,313.8,95.6,316.8,91.5,316.9z"/>
	<linearGradient id="XMLID_63_" gradientUnits="userSpaceOnUse" x1="79.423" y1="318.89" x2="79.423" y2="349.002">
		<stop  offset="0" style="stop-color:#DB7B65"/>
		<stop  offset="1" style="stop-color:#F79B7C"/>
	</linearGradient>
	<path id="XMLID_196_" class="st70" d="M91.9,329.3c0,0,0.2,0.1,0.5,0.3c-0.5,2.1-3.3,19.4-12.9,19.4c-10.4,0-13-22.2-13-23.4
		c0,0,0,0,0,0c0,0,0.1,0,0.1,0l0.9-6.7c7.4,4.6,16.9,6.5,25,4.5L91.9,329.3z"/>
	<path id="XMLID_183_" class="st62" d="M93.7,402.8c-2.1,19.5-0.8,34.5-2.4,44.8c-3.3,0.2-12.6-0.4-15.4-0.4c-2.5,0-6.2-0.3-9.7-0.6
		c1.4-12.9,2.9-30.1,3.3-47.3c0.6-29.2-4.4-68-5.1-73c0.7-0.2,1-0.5,2-0.7c0,0,0,0,0,0v0c0,0,0,0,0,0c0,1.2,16.5,21.2,16.5,21.2
		s9-15.1,9.4-17.2c0,0,0.1,0,0.1,0C92.8,333.7,97.5,367.3,93.7,402.8z"/>
	<path id="XMLID_221_" class="st71" d="M84.5,373l-3.5,0.3l-14.4-27.6c-0.3-3.1-0.6-5.9-0.9-8.4L84.5,373z"/>
	<polygon id="XMLID_180_" class="st72" points="84.5,373.1 97.3,340.7 95.4,337.7 82.9,369.9 	"/>
	<g id="XMLID_170_">
		<linearGradient id="XMLID_64_" gradientUnits="userSpaceOnUse" x1="73.8336" y1="408.9422" x2="152.3569" y2="379.7899">
			<stop  offset="0" style="stop-color:#DB2910"/>
			<stop  offset="1" style="stop-color:#DB5542"/>
		</linearGradient>
		<path id="XMLID_250_" class="st73" d="M161,434.9c0,0-27.8-4.6-36.6-6.8c-8.2-2-14.9-10.4-15.8-16.4l-0.1-1.4c0,0.4,0,0.9,0.1,1.4
			l4.7,55c-7,2.7-11.8,3.3-16.4,3.9c-0.1,0-0.3,0-0.4,0.1c-0.4,0.1-0.8,0.1-1,0.1c-2.7,0.4-5.9-3.3-5.4-7.6c0.6-4.3,0.4-22.5,2.5-61
			c1.9-35.7,0.4-68.5,0-72.7c3.6,1.9,22.6,12.1,27.2,17.5c5.1,5.9,11.4,52.8,11.4,52.8s19,14.4,35.9,19.8
			C166.9,419.7,167.7,429.8,161,434.9z"/>
		<linearGradient id="XMLID_65_" gradientUnits="userSpaceOnUse" x1="72.5889" y1="424.3944" x2="157.2659" y2="392.9575">
			<stop  offset="0" style="stop-color:#DB2910"/>
			<stop  offset="1" style="stop-color:#DB5542"/>
		</linearGradient>
		<path id="XMLID_241_" class="st74" d="M108.6,411.8c-0.1-0.5-0.1-0.9-0.1-1.4L108.6,411.8z"/>
		<linearGradient id="XMLID_66_" gradientUnits="userSpaceOnUse" x1="72.5889" y1="424.3944" x2="157.2659" y2="392.9575">
			<stop  offset="0" style="stop-color:#DB2910"/>
			<stop  offset="1" style="stop-color:#DB5542"/>
		</linearGradient>
		<path id="XMLID_235_" class="st75" d="M108.6,411.8c-0.1-0.5-0.1-0.9-0.1-1.4L108.6,411.8z"/>
	</g>
	<polygon id="XMLID_76_" class="st76" points="75.1,373 74.7,396.4 90.7,396.7 91.3,373.2 	"/>
	<polygon id="XMLID_171_" class="st77" points="79.5,374.6 79.3,381.9 86.3,382 86.6,374.6 	"/>
	
		<ellipse id="XMLID_13_" transform="matrix(0.9918 -0.1281 0.1281 0.9918 -49.4205 30.698)" class="st78" cx="213.8" cy="399.4" rx="3.9" ry="2.9"/>
	<g id="XMLID_150_" class="st79">
		<path id="XMLID_155_" class="st80" d="M219.4,385.1l1.6-0.2c0.1,0,0.1,0,0.2-0.1s0.1-0.1,0.2-0.1c0.1-0.1,0.1-0.3,0.1-0.4
			l-0.3-2.2l-0.5,0.1l0.3,2.2l-2.1,0.3c0,0.1,0.1,0.3,0.2,0.3C219.1,385.1,219.3,385.1,219.4,385.1L219.4,385.1z"/>
		<path id="XMLID_154_" class="st80" d="M201.4,371.1l-1.6,0.2c-0.1,0-0.3,0.1-0.3,0.2c-0.1,0.1-0.1,0.3-0.1,0.4l0.3,2.2l0.5-0.1
			l-0.3-2.2l2.1-0.3c0-0.1-0.1-0.3-0.2-0.3C201.7,371.1,201.5,371.1,201.4,371.1L201.4,371.1z"/>
		<path id="XMLID_153_" class="st80" d="M210.5,372.4l5.8-0.8c0.5-0.1,0.7,0.2,0.7,0.7c0,0.1,0,0.2-0.1,0.3s-0.2,0.2-0.3,0.2
			c-0.1,0-0.2,0-0.3,0c-3.8,0.5-7.5,1-11.3,1.6c-1,0.1-1.6,1.4-1.2,2.5c0.1,0.3,0.3,0.6,0.6,0.8c0.3,0.2,0.6,0.3,1,0.3
			c0.7,0,1.4-0.2,2.1-0.3l-0.1,0c0.5-0.1,1.1-0.1,1.6-0.2c0.1,0,0.2,0,0.3,0c0.1,0,0.2,0,0.2,0.1c0.1,0.1,0.2,0.3,0.2,0.5
			c0.1,0.4-0.1,0.6-0.4,0.7l-3.5,0.5c-1.3,0.2-2.5-0.6-3-2c-0.6-1.7,0.3-3.8,1.9-4C206.6,372.9,208.6,372.7,210.5,372.4L210.5,372.4
			z"/>
		<path id="XMLID_152_" class="st81" d="M216.5,376c-0.1,0-0.1,0-0.2,0c-3.6,0.5-7.2,1-10.8,1.5c-0.8,0.1-1.4-0.7-1.2-1.6
			c0-0.2,0.1-0.3,0.2-0.5c0.1-0.1,0.3-0.2,0.5-0.3c0.1,0,0.2-0.1,0.4-0.1l10.8-1.5L216.5,376z"/>
		<path id="XMLID_151_" class="st82" d="M212.7,377.1c0.7-0.1,1.5-0.2,2.2-0.3c1.4-0.2,2.9,0.9,3.1,2.7c0.2,1.7-0.8,3.3-2.3,3.5
			c-2.3,0.3-4.7,0.6-7,1l-4.4,0.6c-0.4,0.1-0.6-0.1-0.7-0.7c0-0.1,0-0.1,0-0.2c0-0.1,0-0.1,0.1-0.2c0-0.1,0.1-0.1,0.1-0.1
			c0.1,0,0.1-0.1,0.2-0.1c0.1,0,0.2,0,0.2,0c3.7-0.5,7.5-1,11.2-1.5c0.3,0,0.6-0.2,0.9-0.4c0.3-0.2,0.4-0.5,0.5-0.8
			c0.4-1.3-0.5-2.6-1.7-2.5c-1,0.1-2.1,0.3-3.1,0.4l-0.9,0.1c-0.1,0-0.2,0-0.2,0c-0.3,0-0.5-0.2-0.6-0.6c-0.1-0.4,0.1-0.6,0.4-0.6
			L212.7,377.1L212.7,377.1z"/>
		<path id="XMLID_163_" class="st83" d="M204.5,382.6l-0.3-2.3c0.1,0,0.2,0,0.2-0.1l10.7-1.5c0.7-0.1,1.3,0.5,1.2,1.3
			c0,0.2-0.1,0.5-0.2,0.6c-0.1,0.2-0.3,0.3-0.6,0.4c-0.1,0-0.1,0-0.2,0L204.5,382.6L204.5,382.6z"/>
	</g>
	<linearGradient id="XMLID_67_" gradientUnits="userSpaceOnUse" x1="6.5034" y1="465.8528" x2="40.3887" y2="381.3596">
		<stop  offset="0" style="stop-color:#DB2910"/>
		<stop  offset="1" style="stop-color:#DB5542"/>
	</linearGradient>
	<path id="XMLID_243_" class="st84" d="M29.6,416.3l5.6,51.6c-0.7,0.5-1.4,1-2.2,1.4c-1.1,0.6-2.3,1-3.6,1.2
		c-4.2,0.5-7.9-0.6-9.4-1.2c-0.5-0.2-0.7-0.3-0.7-0.3s-10.4-42.9-9.7-54.4c0.5-9.8,11-51.4,14-63.6c0,0,0,0,0-0.1
		c0.3-1.4,0.6-2.3,0.7-2.9c0-0.1,0-0.1,0.1-0.2c0,0,0-0.1,0-0.1c0,0,0-0.1,0-0.1l0,0c0.5-1.7,1.1-2.9,1.9-4.1
		c0.9-1.3,2.8-2.8,5.3-4.2l15.2,15.1L29.6,416.3z"/>
	<polygon id="XMLID_192_" class="st77" points="76.2,384 76.2,385.5 89.8,385.9 89.8,384.3 	"/>
</g>
<g id="Layer_9" class="st85">
	
		<image style="display:inline;overflow:visible;" width="949" height="417" id="XMLID_3_" xlink:href="../../../Untitled-1.png"  transform="matrix(0.4977 0 0 0.4977 386.1295 -2.6)">
	</image>
</g>
</svg>
