<svg width="18" height="13" viewBox="0 0 18 13" fill="none" xmlns="http://www.w3.org/2000/svg">
<path d="M15.3377 3.23875C15.3486 3.38123 15.3486 3.5229 15.3486 3.66456C15.3486 8 11.9545 12.9957 5.75162 12.9957C3.84061 12.9957 2.06526 12.4576 0.571289 11.5229C0.842616 11.553 1.10389 11.5636 1.38611 11.5636C2.90436 11.5672 4.37962 11.0736 5.57409 10.1624C4.87016 10.15 4.18779 9.92425 3.62224 9.51658C3.05669 9.10891 2.63621 8.53971 2.41949 7.88846C2.62801 7.91858 2.83737 7.93894 3.05678 7.93894C3.35909 7.93894 3.66307 7.89823 3.94529 7.8274C3.18135 7.67744 2.49442 7.27486 2.0013 6.68812C1.50817 6.10138 1.2393 5.3667 1.24039 4.609V4.56829C1.69009 4.81172 2.21181 4.96397 2.76451 4.98433C2.30149 4.68519 1.92183 4.27928 1.65939 3.8028C1.39696 3.32632 1.25992 2.7941 1.26049 2.25361C1.26049 1.64462 1.42714 1.0861 1.7194 0.599227C2.567 1.61288 3.62414 2.44214 4.82236 3.03331C6.02058 3.62447 7.33316 3.96435 8.67508 4.03094C8.62316 3.78669 8.59134 3.53348 8.59134 3.27946C8.59112 2.84874 8.67822 2.42219 8.84766 2.02421C9.0171 1.62623 9.26556 1.26462 9.57883 0.960056C9.8921 0.655487 10.264 0.413931 10.6734 0.249199C11.0827 0.0844662 11.5215 -0.00021362 11.9645 4.04692e-07C12.9359 4.04692e-07 13.8127 0.395685 14.4291 1.03562C15.1842 0.893643 15.9084 0.625624 16.5695 0.243436C16.3178 1.00128 15.7905 1.64389 15.0864 2.05089C15.7562 1.97662 16.4108 1.80538 17.0284 1.54285C16.5671 2.1967 15.9955 2.77008 15.3377 3.23875Z" fill="white"/>
</svg>
