<svg width="23" height="15" viewBox="0 0 23 15" fill="none" xmlns="http://www.w3.org/2000/svg">
<path d="M11.1948 0H11.3169C12.4454 0.00400391 18.1629 0.0440433 19.7046 0.447104C20.1706 0.570116 20.5953 0.809888 20.9362 1.14246C21.277 1.47503 21.5222 1.88876 21.647 2.34229C21.7857 2.84945 21.8832 3.52078 21.949 4.21345L21.9628 4.35226L21.993 4.69926L22.004 4.83806C22.0932 6.05792 22.1042 7.20037 22.1055 7.44995V7.55005C22.1042 7.80897 22.0918 9.02883 21.993 10.2994L21.982 10.4395L21.9696 10.5783C21.901 11.3418 21.7994 12.0998 21.647 12.6577C21.5225 13.1114 21.2775 13.5253 20.9366 13.858C20.5957 14.1906 20.1708 14.4303 19.7046 14.5529C18.1121 14.9693 12.0596 14.9987 11.2208 15H11.0259C10.6017 15 8.84732 14.992 7.0078 14.9306L6.77443 14.9226L6.655 14.9173L6.42026 14.9079L6.18551 14.8986C4.66174 14.8332 3.21072 14.7277 2.54218 14.5516C2.07611 14.429 1.65134 14.1896 1.31043 13.8572C0.969513 13.5248 0.724423 13.1112 0.599711 12.6577C0.447333 12.1012 0.345748 11.3418 0.27711 10.5783L0.266127 10.4382L0.255145 10.2994C0.187396 9.39505 0.149854 8.4888 0.142578 7.58208L0.142578 7.41925C0.145324 7.13231 0.156306 6.14067 0.230435 5.04627L0.240045 4.9088L0.244163 4.8394L0.255145 4.7006L0.285346 4.35359L0.299074 4.21479C0.364967 3.52211 0.462434 2.84945 0.601084 2.34363C0.725585 1.88991 0.970582 1.47599 1.31151 1.14336C1.65244 0.810731 2.07732 0.571081 2.54355 0.448439C3.21209 0.274936 4.66311 0.168165 6.18689 0.101433L6.42026 0.0920902L6.65638 0.0840823L6.77443 0.0800784L7.00918 0.070736C8.31565 0.0294171 9.62266 0.00628093 10.9298 0.0013347H11.1948V0ZM8.92831 4.28419V10.7145L14.6349 7.50067L8.92831 4.28419Z" fill="white"/>
</svg>
