<svg width="1170" height="658" viewBox="0 0 1170 658" fill="none" xmlns="http://www.w3.org/2000/svg">
<path d="M0 20C0 8.95431 8.9543 0 20 0H1149C1160.05 0 1169 8.95431 1169 20V329H0V20Z" fill="white"/>
<path d="M518.93 158.27C517.99 156.89 516.62 156.2 514.82 156.2C514.26 156.2 513.71 156.28 513.17 156.44C512.63 156.58 512.14 156.81 511.7 157.13C511.28 157.43 510.94 157.83 510.68 158.33C510.42 158.81 510.29 159.38 510.29 160.04C510.29 161 510.56 161.75 511.1 162.29C511.64 162.81 512.31 163.24 513.11 163.58C513.91 163.92 514.78 164.23 515.72 164.51C516.68 164.77 517.56 165.13 518.36 165.59C519.16 166.03 519.83 166.62 520.37 167.36C520.91 168.1 521.18 169.11 521.18 170.39C521.18 171.35 520.97 172.22 520.55 173C520.15 173.76 519.61 174.4 518.93 174.92C518.27 175.44 517.52 175.84 516.68 176.12C515.86 176.4 515.03 176.54 514.19 176.54C512.89 176.54 511.65 176.3 510.47 175.82C509.31 175.32 508.32 174.51 507.5 173.39L509.45 171.98C509.91 172.76 510.55 173.39 511.37 173.87C512.19 174.33 513.16 174.56 514.28 174.56C514.82 174.56 515.36 174.48 515.9 174.32C516.44 174.14 516.92 173.89 517.34 173.57C517.78 173.23 518.14 172.82 518.42 172.34C518.7 171.86 518.84 171.31 518.84 170.69C518.84 169.95 518.68 169.34 518.36 168.86C518.06 168.36 517.65 167.95 517.13 167.63C516.63 167.29 516.05 167.01 515.39 166.79C514.75 166.57 514.08 166.35 513.38 166.13C512.7 165.91 512.03 165.66 511.37 165.38C510.73 165.1 510.15 164.75 509.63 164.33C509.13 163.89 508.72 163.35 508.4 162.71C508.1 162.05 507.95 161.23 507.95 160.25C507.95 159.23 508.14 158.34 508.52 157.58C508.92 156.82 509.44 156.19 510.08 155.69C510.74 155.19 511.48 154.82 512.3 154.58C513.12 154.34 513.96 154.22 514.82 154.22C516.02 154.22 517.11 154.41 518.09 154.79C519.07 155.17 519.98 155.84 520.82 156.8L518.93 158.27ZM532.09 163.76H528.04V172.04C528.04 172.56 528.09 172.99 528.19 173.33C528.29 173.65 528.43 173.9 528.61 174.08C528.79 174.26 529 174.39 529.24 174.47C529.5 174.53 529.78 174.56 530.08 174.56C530.42 174.56 530.77 174.51 531.13 174.41C531.49 174.31 531.82 174.18 532.12 174.02L532.21 175.85C531.47 176.19 530.58 176.36 529.54 176.36C529.16 176.36 528.76 176.31 528.34 176.21C527.94 176.11 527.57 175.92 527.23 175.64C526.89 175.36 526.61 174.98 526.39 174.5C526.17 174.02 526.06 173.39 526.06 172.61V163.76H523.09V161.96H526.06V158H528.04V161.96H532.09V163.76ZM546.821 168.98C546.821 168.2 546.691 167.47 546.431 166.79C546.191 166.11 545.841 165.52 545.381 165.02C544.921 164.52 544.361 164.13 543.701 163.85C543.061 163.55 542.331 163.4 541.511 163.4C540.691 163.4 539.951 163.55 539.291 163.85C538.651 164.13 538.101 164.52 537.641 165.02C537.201 165.52 536.851 166.11 536.591 166.79C536.351 167.47 536.231 168.2 536.231 168.98C536.231 169.76 536.351 170.49 536.591 171.17C536.851 171.85 537.201 172.44 537.641 172.94C538.101 173.44 538.651 173.84 539.291 174.14C539.951 174.42 540.691 174.56 541.511 174.56C542.331 174.56 543.061 174.42 543.701 174.14C544.361 173.84 544.921 173.44 545.381 172.94C545.841 172.44 546.191 171.85 546.431 171.17C546.691 170.49 546.821 169.76 546.821 168.98ZM548.981 168.98C548.981 170.04 548.791 171.02 548.411 171.92C548.051 172.82 547.541 173.6 546.881 174.26C546.221 174.92 545.431 175.44 544.511 175.82C543.611 176.18 542.611 176.36 541.511 176.36C540.431 176.36 539.431 176.18 538.511 175.82C537.611 175.44 536.831 174.92 536.171 174.26C535.511 173.6 534.991 172.82 534.611 171.92C534.251 171.02 534.071 170.04 534.071 168.98C534.071 167.92 534.251 166.94 534.611 166.04C534.991 165.14 535.511 164.36 536.171 163.7C536.831 163.04 537.611 162.53 538.511 162.17C539.431 161.79 540.431 161.6 541.511 161.6C542.611 161.6 543.611 161.79 544.511 162.17C545.431 162.53 546.221 163.04 546.881 163.7C547.541 164.36 548.051 165.14 548.411 166.04C548.791 166.94 548.981 167.92 548.981 168.98ZM562.804 165.26C562.464 164.74 561.984 164.3 561.364 163.94C560.764 163.58 560.074 163.4 559.294 163.4C558.474 163.38 557.734 163.51 557.074 163.79C556.434 164.07 555.884 164.46 555.424 164.96C554.964 165.46 554.614 166.06 554.374 166.76C554.134 167.44 554.014 168.18 554.014 168.98C554.014 169.78 554.134 170.53 554.374 171.23C554.614 171.91 554.964 172.5 555.424 173C555.884 173.5 556.434 173.89 557.074 174.17C557.734 174.45 558.474 174.58 559.294 174.56C560.074 174.56 560.764 174.38 561.364 174.02C561.984 173.66 562.464 173.22 562.804 172.7L564.424 173.93C563.724 174.75 562.934 175.36 562.054 175.76C561.174 176.14 560.254 176.34 559.294 176.36C558.154 176.38 557.124 176.21 556.204 175.85C555.284 175.47 554.494 174.95 553.834 174.29C553.194 173.63 552.704 172.85 552.364 171.95C552.024 171.03 551.854 170.04 551.854 168.98C551.854 167.92 552.024 166.94 552.364 166.04C552.704 165.12 553.194 164.33 553.834 163.67C554.494 163.01 555.284 162.5 556.204 162.14C557.124 161.76 558.154 161.58 559.294 161.6C560.254 161.62 561.174 161.83 562.054 162.23C562.934 162.61 563.724 163.21 564.424 164.03L562.804 165.26ZM569.027 168.29L575.657 161.96H578.627L571.637 168.38L579.377 176H576.317L569.027 168.62V176H567.047V153.32H569.027V168.29Z" fill="#1F2121"/>
<path d="M588.37 154.76H592.15V163.76H592.33L601.12 154.76H606.22L596.29 164.57L606.88 176H601.57L592.36 165.56H592.15V176H588.37V154.76ZM608.577 161.6H611.997V163.91H612.057C612.397 163.19 612.917 162.57 613.617 162.05C614.317 161.51 615.267 161.24 616.467 161.24C617.427 161.24 618.237 161.4 618.897 161.72C619.577 162.04 620.127 162.46 620.547 162.98C620.967 163.5 621.267 164.1 621.447 164.78C621.627 165.46 621.717 166.17 621.717 166.91V176H618.117V168.71C618.117 168.31 618.097 167.87 618.057 167.39C618.017 166.89 617.907 166.43 617.727 166.01C617.567 165.57 617.307 165.21 616.947 164.93C616.587 164.63 616.097 164.48 615.477 164.48C614.877 164.48 614.367 164.58 613.947 164.78C613.547 164.98 613.207 165.25 612.927 165.59C612.667 165.93 612.477 166.32 612.357 166.76C612.237 167.2 612.177 167.66 612.177 168.14V176H608.577V161.6ZM625.084 168.8C625.084 167.66 625.284 166.63 625.684 165.71C626.104 164.77 626.664 163.97 627.364 163.31C628.064 162.65 628.894 162.14 629.854 161.78C630.814 161.42 631.834 161.24 632.914 161.24C633.994 161.24 635.014 161.42 635.974 161.78C636.934 162.14 637.764 162.65 638.464 163.31C639.164 163.97 639.714 164.77 640.114 165.71C640.534 166.63 640.744 167.66 640.744 168.8C640.744 169.94 640.534 170.98 640.114 171.92C639.714 172.84 639.164 173.63 638.464 174.29C637.764 174.95 636.934 175.46 635.974 175.82C635.014 176.18 633.994 176.36 632.914 176.36C631.834 176.36 630.814 176.18 629.854 175.82C628.894 175.46 628.064 174.95 627.364 174.29C626.664 173.63 626.104 172.84 625.684 171.92C625.284 170.98 625.084 169.94 625.084 168.8ZM628.684 168.8C628.684 169.36 628.774 169.9 628.954 170.42C629.154 170.94 629.434 171.4 629.794 171.8C630.174 172.2 630.624 172.52 631.144 172.76C631.664 173 632.254 173.12 632.914 173.12C633.574 173.12 634.164 173 634.684 172.76C635.204 172.52 635.644 172.2 636.004 171.8C636.384 171.4 636.664 170.94 636.844 170.42C637.044 169.9 637.144 169.36 637.144 168.8C637.144 168.24 637.044 167.7 636.844 167.18C636.664 166.66 636.384 166.2 636.004 165.8C635.644 165.4 635.204 165.08 634.684 164.84C634.164 164.6 633.574 164.48 632.914 164.48C632.254 164.48 631.664 164.6 631.144 164.84C630.624 165.08 630.174 165.4 629.794 165.8C629.434 166.2 629.154 166.66 628.954 167.18C628.774 167.7 628.684 168.24 628.684 168.8ZM642.164 161.6H646.064L649.184 171.68H649.244L652.154 161.6H656.054L659.174 171.68H659.234L662.234 161.6H665.864L660.974 176H657.404L653.984 166.16H653.924L650.894 176H647.174L642.164 161.6ZM668.051 153.32H671.651V176H668.051V153.32ZM678.664 170.06C678.784 171.14 679.204 171.98 679.924 172.58C680.644 173.18 681.514 173.48 682.534 173.48C683.434 173.48 684.184 173.3 684.784 172.94C685.404 172.56 685.944 172.09 686.404 171.53L688.984 173.48C688.144 174.52 687.204 175.26 686.164 175.7C685.124 176.14 684.034 176.36 682.894 176.36C681.814 176.36 680.794 176.18 679.834 175.82C678.874 175.46 678.044 174.95 677.344 174.29C676.644 173.63 676.084 172.84 675.664 171.92C675.264 170.98 675.064 169.94 675.064 168.8C675.064 167.66 675.264 166.63 675.664 165.71C676.084 164.77 676.644 163.97 677.344 163.31C678.044 162.65 678.874 162.14 679.834 161.78C680.794 161.42 681.814 161.24 682.894 161.24C683.894 161.24 684.804 161.42 685.624 161.78C686.464 162.12 687.174 162.62 687.754 163.28C688.354 163.94 688.814 164.76 689.134 165.74C689.474 166.7 689.644 167.81 689.644 169.07V170.06H678.664ZM686.044 167.36C686.024 166.3 685.694 165.47 685.054 164.87C684.414 164.25 683.524 163.94 682.384 163.94C681.304 163.94 680.444 164.25 679.804 164.87C679.184 165.49 678.804 166.32 678.664 167.36H686.044ZM704.411 173.84H704.351C703.831 174.72 703.131 175.36 702.251 175.76C701.371 176.16 700.421 176.36 699.401 176.36C698.281 176.36 697.281 176.17 696.401 175.79C695.541 175.39 694.801 174.85 694.181 174.17C693.561 173.49 693.091 172.69 692.771 171.77C692.451 170.85 692.291 169.86 692.291 168.8C692.291 167.74 692.461 166.75 692.801 165.83C693.141 164.91 693.611 164.11 694.211 163.43C694.831 162.75 695.571 162.22 696.431 161.84C697.291 161.44 698.231 161.24 699.251 161.24C699.931 161.24 700.531 161.31 701.051 161.45C701.571 161.59 702.031 161.77 702.431 161.99C702.831 162.21 703.171 162.45 703.451 162.71C703.731 162.95 703.961 163.19 704.141 163.43H704.231V153.32H707.831V176H704.411V173.84ZM695.891 168.8C695.891 169.36 695.981 169.9 696.161 170.42C696.361 170.94 696.641 171.4 697.001 171.8C697.381 172.2 697.831 172.52 698.351 172.76C698.871 173 699.461 173.12 700.121 173.12C700.781 173.12 701.371 173 701.891 172.76C702.411 172.52 702.851 172.2 703.211 171.8C703.591 171.4 703.871 170.94 704.051 170.42C704.251 169.9 704.351 169.36 704.351 168.8C704.351 168.24 704.251 167.7 704.051 167.18C703.871 166.66 703.591 166.2 703.211 165.8C702.851 165.4 702.411 165.08 701.891 164.84C701.371 164.6 700.781 164.48 700.121 164.48C699.461 164.48 698.871 164.6 698.351 164.84C697.831 165.08 697.381 165.4 697.001 165.8C696.641 166.2 696.361 166.66 696.161 167.18C695.981 167.7 695.891 168.24 695.891 168.8ZM726.727 161.6V174.71C726.727 176.01 726.567 177.18 726.247 178.22C725.927 179.28 725.427 180.17 724.747 180.89C724.087 181.63 723.247 182.2 722.227 182.6C721.207 183 719.997 183.2 718.597 183.2C717.257 183.2 715.987 183.03 714.787 182.69C713.587 182.35 712.477 181.73 711.457 180.83L713.617 177.89C714.337 178.55 715.087 179.06 715.867 179.42C716.647 179.78 717.547 179.96 718.567 179.96C719.427 179.96 720.147 179.84 720.727 179.6C721.327 179.36 721.797 179.03 722.137 178.61C722.497 178.19 722.747 177.68 722.887 177.08C723.047 176.5 723.127 175.85 723.127 175.13V174.08H723.067C722.547 174.78 721.857 175.31 720.997 175.67C720.137 176.01 719.257 176.18 718.357 176.18C717.277 176.18 716.297 175.99 715.417 175.61C714.537 175.21 713.777 174.68 713.137 174.02C712.517 173.36 712.037 172.58 711.697 171.68C711.357 170.78 711.187 169.82 711.187 168.8C711.187 167.74 711.347 166.75 711.667 165.83C711.987 164.91 712.457 164.11 713.077 163.43C713.697 162.75 714.437 162.22 715.297 161.84C716.177 161.44 717.177 161.24 718.297 161.24C719.317 161.24 720.267 161.44 721.147 161.84C722.027 162.24 722.727 162.88 723.247 163.76H723.307V161.6H726.727ZM719.047 164.48C718.407 164.48 717.827 164.59 717.307 164.81C716.787 165.01 716.337 165.3 715.957 165.68C715.597 166.04 715.307 166.49 715.087 167.03C714.887 167.55 714.787 168.13 714.787 168.77C714.787 169.35 714.887 169.89 715.087 170.39C715.307 170.89 715.607 171.33 715.987 171.71C716.367 172.09 716.817 172.39 717.337 172.61C717.857 172.83 718.417 172.94 719.017 172.94C719.677 172.94 720.267 172.83 720.787 172.61C721.327 172.39 721.777 172.1 722.137 171.74C722.517 171.36 722.807 170.91 723.007 170.39C723.207 169.87 723.307 169.31 723.307 168.71C723.307 167.45 722.927 166.43 722.167 165.65C721.407 164.87 720.367 164.48 719.047 164.48ZM733.684 170.06C733.804 171.14 734.224 171.98 734.944 172.58C735.664 173.18 736.534 173.48 737.554 173.48C738.454 173.48 739.204 173.3 739.804 172.94C740.424 172.56 740.964 172.09 741.424 171.53L744.004 173.48C743.164 174.52 742.224 175.26 741.184 175.7C740.144 176.14 739.054 176.36 737.914 176.36C736.834 176.36 735.814 176.18 734.854 175.82C733.894 175.46 733.064 174.95 732.364 174.29C731.664 173.63 731.104 172.84 730.684 171.92C730.284 170.98 730.084 169.94 730.084 168.8C730.084 167.66 730.284 166.63 730.684 165.71C731.104 164.77 731.664 163.97 732.364 163.31C733.064 162.65 733.894 162.14 734.854 161.78C735.814 161.42 736.834 161.24 737.914 161.24C738.914 161.24 739.824 161.42 740.644 161.78C741.484 162.12 742.194 162.62 742.774 163.28C743.374 163.94 743.834 164.76 744.154 165.74C744.494 166.7 744.664 167.81 744.664 169.07V170.06H733.684ZM741.064 167.36C741.044 166.3 740.714 165.47 740.074 164.87C739.434 164.25 738.544 163.94 737.404 163.94C736.324 163.94 735.464 164.25 734.824 164.87C734.204 165.49 733.824 166.32 733.684 167.36H741.064Z" fill="#0080F6"/>
<path d="M482.71 191.84H487.88C488.106 191.841 488.33 191.797 488.54 191.712C488.749 191.626 488.94 191.499 489.1 191.34C489.42 191.015 489.6 190.577 489.6 190.12V183H487.88V190.12H481C481 190.577 481.18 191.015 481.5 191.34C481.822 191.66 482.257 191.839 482.71 191.84Z" fill="#0080F6"/>
<path d="M429.88 138H424.71C424.256 138.003 423.821 138.185 423.5 138.507C423.18 138.83 423 139.266 423 139.72V146.84H424.71V139.72H431.6C431.6 139.264 431.419 138.826 431.096 138.504C430.774 138.181 430.336 138 429.88 138Z" fill="#0080F6"/>
<path d="M459.21 146.43H478.56C480.07 146.43 480.68 147.24 480.56 149C480.573 149.398 480.434 149.786 480.173 150.086C479.912 150.386 479.546 150.577 479.15 150.62C478.818 150.644 478.483 150.644 478.15 150.62C465.63 150.62 453.104 150.62 440.57 150.62C437.11 150.62 434.65 154.37 435.57 158.27C435.778 159.398 436.331 160.435 437.154 161.236C437.976 162.036 439.027 162.562 440.16 162.74C442.46 162.93 444.78 162.8 447.08 162.74H446.73C448.52 162.74 450.35 162.74 452.15 162.74C452.442 162.694 452.741 162.713 453.024 162.796C453.308 162.879 453.57 163.024 453.79 163.22C454.136 163.73 454.289 164.347 454.22 164.96C454.22 166.25 453.66 166.96 452.56 166.96H440.9C436.45 166.96 432.96 163.78 431.96 158.87C430.72 152.95 434.61 146.62 439.87 146.52C446.33 146.37 452.79 146.52 459.25 146.52L459.21 146.43Z" fill="#0080F6"/>
<path d="M477.21 160.62C476.99 160.62 476.78 160.68 476.58 160.68C464.58 160.68 452.58 160.68 440.58 160.68C437.94 160.68 436.31 157.75 437.4 155.04C437.579 154.469 437.915 153.96 438.37 153.571C438.824 153.182 439.379 152.928 439.97 152.84C440.389 152.791 440.809 152.768 441.23 152.77H477.21V160.62Z" fill="#EFA422"/>
<path d="M464.14 162.781C466.61 162.781 469.08 162.781 471.56 162.781C476.36 162.691 480.5 167.161 480.56 173.071C480.56 178.821 476.64 183.411 471.56 183.431C463.81 183.431 456.06 183.431 448.3 183.431H433.69C432.21 183.431 431.63 182.661 431.75 180.921C431.728 180.707 431.748 180.491 431.809 180.286C431.871 180.08 431.972 179.889 432.108 179.722C432.244 179.556 432.411 179.418 432.6 179.317C432.789 179.215 432.996 179.152 433.21 179.131C433.47 179.131 433.73 179.131 434 179.131C446.42 179.131 458.84 179.131 471.26 179.131C472.338 179.19 473.407 178.908 474.316 178.325C475.224 177.741 475.926 176.886 476.32 175.881C478.19 171.881 475.71 167.041 471.77 166.981C468.31 166.921 464.84 166.981 461.38 166.981H458.38C458.12 166.981 457.85 166.981 457.59 166.981C456.46 166.911 455.97 166.211 456.01 164.721C456.01 163.431 456.59 162.781 457.69 162.781H464.14Z" fill="#DB3127"/>
<path d="M435.02 177.019V169.169C435.32 169.169 435.57 169.109 435.83 169.109H471.59C474.05 169.109 475.59 171.349 475.05 174.039C474.932 174.81 474.566 175.52 474.006 176.062C473.446 176.604 472.723 176.948 471.95 177.039C471.74 177.039 471.53 177.039 471.32 177.039H435.02V177.019Z" fill="#64BC4B"/>
<path d="M585 329H1169.5V638C1169.5 649.046 1160.55 658 1149.5 658H585V329Z" fill="#0080F6"/>
<path d="M811.93 487.27C810.99 485.89 809.62 485.2 807.82 485.2C807.26 485.2 806.71 485.28 806.17 485.44C805.63 485.58 805.14 485.81 804.7 486.13C804.28 486.43 803.94 486.83 803.68 487.33C803.42 487.81 803.29 488.38 803.29 489.04C803.29 490 803.56 490.75 804.1 491.29C804.64 491.81 805.31 492.24 806.11 492.58C806.91 492.92 807.78 493.23 808.72 493.51C809.68 493.77 810.56 494.13 811.36 494.59C812.16 495.03 812.83 495.62 813.37 496.36C813.91 497.1 814.18 498.11 814.18 499.39C814.18 500.35 813.97 501.22 813.55 502C813.15 502.76 812.61 503.4 811.93 503.92C811.27 504.44 810.52 504.84 809.68 505.12C808.86 505.4 808.03 505.54 807.19 505.54C805.89 505.54 804.65 505.3 803.47 504.82C802.31 504.32 801.32 503.51 800.5 502.39L802.45 500.98C802.91 501.76 803.55 502.39 804.37 502.87C805.19 503.33 806.16 503.56 807.28 503.56C807.82 503.56 808.36 503.48 808.9 503.32C809.44 503.14 809.92 502.89 810.34 502.57C810.78 502.23 811.14 501.82 811.42 501.34C811.7 500.86 811.84 500.31 811.84 499.69C811.84 498.95 811.68 498.34 811.36 497.86C811.06 497.36 810.65 496.95 810.13 496.63C809.63 496.29 809.05 496.01 808.39 495.79C807.75 495.57 807.08 495.35 806.38 495.13C805.7 494.91 805.03 494.66 804.37 494.38C803.73 494.1 803.15 493.75 802.63 493.33C802.13 492.89 801.72 492.35 801.4 491.71C801.1 491.05 800.95 490.23 800.95 489.25C800.95 488.23 801.14 487.34 801.52 486.58C801.92 485.82 802.44 485.19 803.08 484.69C803.74 484.19 804.48 483.82 805.3 483.58C806.12 483.34 806.96 483.22 807.82 483.22C809.02 483.22 810.11 483.41 811.09 483.79C812.07 484.17 812.98 484.84 813.82 485.8L811.93 487.27ZM825.09 492.76H821.04V501.04C821.04 501.56 821.09 501.99 821.19 502.33C821.29 502.65 821.43 502.9 821.61 503.08C821.79 503.26 822 503.39 822.24 503.47C822.5 503.53 822.78 503.56 823.08 503.56C823.42 503.56 823.77 503.51 824.13 503.41C824.49 503.31 824.82 503.18 825.12 503.02L825.21 504.85C824.47 505.19 823.58 505.36 822.54 505.36C822.16 505.36 821.76 505.31 821.34 505.21C820.94 505.11 820.57 504.92 820.23 504.64C819.89 504.36 819.61 503.98 819.39 503.5C819.17 503.02 819.06 502.39 819.06 501.61V492.76H816.09V490.96H819.06V487H821.04V490.96H825.09V492.76ZM839.821 497.98C839.821 497.2 839.691 496.47 839.431 495.79C839.191 495.11 838.841 494.52 838.381 494.02C837.921 493.52 837.361 493.13 836.701 492.85C836.061 492.55 835.331 492.4 834.511 492.4C833.691 492.4 832.951 492.55 832.291 492.85C831.651 493.13 831.101 493.52 830.641 494.02C830.201 494.52 829.851 495.11 829.591 495.79C829.351 496.47 829.231 497.2 829.231 497.98C829.231 498.76 829.351 499.49 829.591 500.17C829.851 500.85 830.201 501.44 830.641 501.94C831.101 502.44 831.651 502.84 832.291 503.14C832.951 503.42 833.691 503.56 834.511 503.56C835.331 503.56 836.061 503.42 836.701 503.14C837.361 502.84 837.921 502.44 838.381 501.94C838.841 501.44 839.191 500.85 839.431 500.17C839.691 499.49 839.821 498.76 839.821 497.98ZM841.981 497.98C841.981 499.04 841.791 500.02 841.411 500.92C841.051 501.82 840.541 502.6 839.881 503.26C839.221 503.92 838.431 504.44 837.511 504.82C836.611 505.18 835.611 505.36 834.511 505.36C833.431 505.36 832.431 505.18 831.511 504.82C830.611 504.44 829.831 503.92 829.171 503.26C828.511 502.6 827.991 501.82 827.611 500.92C827.251 500.02 827.071 499.04 827.071 497.98C827.071 496.92 827.251 495.94 827.611 495.04C827.991 494.14 828.511 493.36 829.171 492.7C829.831 492.04 830.611 491.53 831.511 491.17C832.431 490.79 833.431 490.6 834.511 490.6C835.611 490.6 836.611 490.79 837.511 491.17C838.431 491.53 839.221 492.04 839.881 492.7C840.541 493.36 841.051 494.14 841.411 495.04C841.791 495.94 841.981 496.92 841.981 497.98ZM855.804 494.26C855.464 493.74 854.984 493.3 854.364 492.94C853.764 492.58 853.074 492.4 852.294 492.4C851.474 492.38 850.734 492.51 850.074 492.79C849.434 493.07 848.884 493.46 848.424 493.96C847.964 494.46 847.614 495.06 847.374 495.76C847.134 496.44 847.014 497.18 847.014 497.98C847.014 498.78 847.134 499.53 847.374 500.23C847.614 500.91 847.964 501.5 848.424 502C848.884 502.5 849.434 502.89 850.074 503.17C850.734 503.45 851.474 503.58 852.294 503.56C853.074 503.56 853.764 503.38 854.364 503.02C854.984 502.66 855.464 502.22 855.804 501.7L857.424 502.93C856.724 503.75 855.934 504.36 855.054 504.76C854.174 505.14 853.254 505.34 852.294 505.36C851.154 505.38 850.124 505.21 849.204 504.85C848.284 504.47 847.494 503.95 846.834 503.29C846.194 502.63 845.704 501.85 845.364 500.95C845.024 500.03 844.854 499.04 844.854 497.98C844.854 496.92 845.024 495.94 845.364 495.04C845.704 494.12 846.194 493.33 846.834 492.67C847.494 492.01 848.284 491.5 849.204 491.14C850.124 490.76 851.154 490.58 852.294 490.6C853.254 490.62 854.174 490.83 855.054 491.23C855.934 491.61 856.724 492.21 857.424 493.03L855.804 494.26ZM862.027 497.29L868.657 490.96H871.627L864.637 497.38L872.377 505H869.317L862.027 497.62V505H860.047V482.32H862.027V497.29Z" fill="white"/>
<path d="M881.37 483.76H885.15V492.76H885.33L894.12 483.76H899.22L889.29 493.57L899.88 505H894.57L885.36 494.56H885.15V505H881.37V483.76ZM901.577 490.6H904.997V492.91H905.057C905.397 492.19 905.917 491.57 906.617 491.05C907.317 490.51 908.267 490.24 909.467 490.24C910.427 490.24 911.237 490.4 911.897 490.72C912.577 491.04 913.127 491.46 913.547 491.98C913.967 492.5 914.267 493.1 914.447 493.78C914.627 494.46 914.717 495.17 914.717 495.91V505H911.117V497.71C911.117 497.31 911.097 496.87 911.057 496.39C911.017 495.89 910.907 495.43 910.727 495.01C910.567 494.57 910.307 494.21 909.947 493.93C909.587 493.63 909.097 493.48 908.477 493.48C907.877 493.48 907.367 493.58 906.947 493.78C906.547 493.98 906.207 494.25 905.927 494.59C905.667 494.93 905.477 495.32 905.357 495.76C905.237 496.2 905.177 496.66 905.177 497.14V505H901.577V490.6ZM918.084 497.8C918.084 496.66 918.284 495.63 918.684 494.71C919.104 493.77 919.664 492.97 920.364 492.31C921.064 491.65 921.894 491.14 922.854 490.78C923.814 490.42 924.834 490.24 925.914 490.24C926.994 490.24 928.014 490.42 928.974 490.78C929.934 491.14 930.764 491.65 931.464 492.31C932.164 492.97 932.714 493.77 933.114 494.71C933.534 495.63 933.744 496.66 933.744 497.8C933.744 498.94 933.534 499.98 933.114 500.92C932.714 501.84 932.164 502.63 931.464 503.29C930.764 503.95 929.934 504.46 928.974 504.82C928.014 505.18 926.994 505.36 925.914 505.36C924.834 505.36 923.814 505.18 922.854 504.82C921.894 504.46 921.064 503.95 920.364 503.29C919.664 502.63 919.104 501.84 918.684 500.92C918.284 499.98 918.084 498.94 918.084 497.8ZM921.684 497.8C921.684 498.36 921.774 498.9 921.954 499.42C922.154 499.94 922.434 500.4 922.794 500.8C923.174 501.2 923.624 501.52 924.144 501.76C924.664 502 925.254 502.12 925.914 502.12C926.574 502.12 927.164 502 927.684 501.76C928.204 501.52 928.644 501.2 929.004 500.8C929.384 500.4 929.664 499.94 929.844 499.42C930.044 498.9 930.144 498.36 930.144 497.8C930.144 497.24 930.044 496.7 929.844 496.18C929.664 495.66 929.384 495.2 929.004 494.8C928.644 494.4 928.204 494.08 927.684 493.84C927.164 493.6 926.574 493.48 925.914 493.48C925.254 493.48 924.664 493.6 924.144 493.84C923.624 494.08 923.174 494.4 922.794 494.8C922.434 495.2 922.154 495.66 921.954 496.18C921.774 496.7 921.684 497.24 921.684 497.8ZM935.164 490.6H939.064L942.184 500.68H942.244L945.154 490.6H949.054L952.174 500.68H952.234L955.234 490.6H958.864L953.974 505H950.404L946.984 495.16H946.924L943.894 505H940.174L935.164 490.6ZM961.051 482.32H964.651V505H961.051V482.32ZM971.664 499.06C971.784 500.14 972.204 500.98 972.924 501.58C973.644 502.18 974.514 502.48 975.534 502.48C976.434 502.48 977.184 502.3 977.784 501.94C978.404 501.56 978.944 501.09 979.404 500.53L981.984 502.48C981.144 503.52 980.204 504.26 979.164 504.7C978.124 505.14 977.034 505.36 975.894 505.36C974.814 505.36 973.794 505.18 972.834 504.82C971.874 504.46 971.044 503.95 970.344 503.29C969.644 502.63 969.084 501.84 968.664 500.92C968.264 499.98 968.064 498.94 968.064 497.8C968.064 496.66 968.264 495.63 968.664 494.71C969.084 493.77 969.644 492.97 970.344 492.31C971.044 491.65 971.874 491.14 972.834 490.78C973.794 490.42 974.814 490.24 975.894 490.24C976.894 490.24 977.804 490.42 978.624 490.78C979.464 491.12 980.174 491.62 980.754 492.28C981.354 492.94 981.814 493.76 982.134 494.74C982.474 495.7 982.644 496.81 982.644 498.07V499.06H971.664ZM979.044 496.36C979.024 495.3 978.694 494.47 978.054 493.87C977.414 493.25 976.524 492.94 975.384 492.94C974.304 492.94 973.444 493.25 972.804 493.87C972.184 494.49 971.804 495.32 971.664 496.36H979.044ZM997.411 502.84H997.351C996.831 503.72 996.131 504.36 995.251 504.76C994.371 505.16 993.421 505.36 992.401 505.36C991.281 505.36 990.281 505.17 989.401 504.79C988.541 504.39 987.801 503.85 987.181 503.17C986.561 502.49 986.091 501.69 985.771 500.77C985.451 499.85 985.291 498.86 985.291 497.8C985.291 496.74 985.461 495.75 985.801 494.83C986.141 493.91 986.611 493.11 987.211 492.43C987.831 491.75 988.571 491.22 989.431 490.84C990.291 490.44 991.231 490.24 992.251 490.24C992.931 490.24 993.531 490.31 994.051 490.45C994.571 490.59 995.031 490.77 995.431 490.99C995.831 491.21 996.171 491.45 996.451 491.71C996.731 491.95 996.961 492.19 997.141 492.43H997.231V482.32H1000.83V505H997.411V502.84ZM988.891 497.8C988.891 498.36 988.981 498.9 989.161 499.42C989.361 499.94 989.641 500.4 990.001 500.8C990.381 501.2 990.831 501.52 991.351 501.76C991.871 502 992.461 502.12 993.121 502.12C993.781 502.12 994.371 502 994.891 501.76C995.411 501.52 995.851 501.2 996.211 500.8C996.591 500.4 996.871 499.94 997.051 499.42C997.251 498.9 997.351 498.36 997.351 497.8C997.351 497.24 997.251 496.7 997.051 496.18C996.871 495.66 996.591 495.2 996.211 494.8C995.851 494.4 995.411 494.08 994.891 493.84C994.371 493.6 993.781 493.48 993.121 493.48C992.461 493.48 991.871 493.6 991.351 493.84C990.831 494.08 990.381 494.4 990.001 494.8C989.641 495.2 989.361 495.66 989.161 496.18C988.981 496.7 988.891 497.24 988.891 497.8ZM1019.73 490.6V503.71C1019.73 505.01 1019.57 506.18 1019.25 507.22C1018.93 508.28 1018.43 509.17 1017.75 509.89C1017.09 510.63 1016.25 511.2 1015.23 511.6C1014.21 512 1013 512.2 1011.6 512.2C1010.26 512.2 1008.99 512.03 1007.79 511.69C1006.59 511.35 1005.48 510.73 1004.46 509.83L1006.62 506.89C1007.34 507.55 1008.09 508.06 1008.87 508.42C1009.65 508.78 1010.55 508.96 1011.57 508.96C1012.43 508.96 1013.15 508.84 1013.73 508.6C1014.33 508.36 1014.8 508.03 1015.14 507.61C1015.5 507.19 1015.75 506.68 1015.89 506.08C1016.05 505.5 1016.13 504.85 1016.13 504.13V503.08H1016.07C1015.55 503.78 1014.86 504.31 1014 504.67C1013.14 505.01 1012.26 505.18 1011.36 505.18C1010.28 505.18 1009.3 504.99 1008.42 504.61C1007.54 504.21 1006.78 503.68 1006.14 503.02C1005.52 502.36 1005.04 501.58 1004.7 500.68C1004.36 499.78 1004.19 498.82 1004.19 497.8C1004.19 496.74 1004.35 495.75 1004.67 494.83C1004.99 493.91 1005.46 493.11 1006.08 492.43C1006.7 491.75 1007.44 491.22 1008.3 490.84C1009.18 490.44 1010.18 490.24 1011.3 490.24C1012.32 490.24 1013.27 490.44 1014.15 490.84C1015.03 491.24 1015.73 491.88 1016.25 492.76H1016.31V490.6H1019.73ZM1012.05 493.48C1011.41 493.48 1010.83 493.59 1010.31 493.81C1009.79 494.01 1009.34 494.3 1008.96 494.68C1008.6 495.04 1008.31 495.49 1008.09 496.03C1007.89 496.55 1007.79 497.13 1007.79 497.77C1007.79 498.35 1007.89 498.89 1008.09 499.39C1008.31 499.89 1008.61 500.33 1008.99 500.71C1009.37 501.09 1009.82 501.39 1010.34 501.61C1010.86 501.83 1011.42 501.94 1012.02 501.94C1012.68 501.94 1013.27 501.83 1013.79 501.61C1014.33 501.39 1014.78 501.1 1015.14 500.74C1015.52 500.36 1015.81 499.91 1016.01 499.39C1016.21 498.87 1016.31 498.31 1016.31 497.71C1016.31 496.45 1015.93 495.43 1015.17 494.65C1014.41 493.87 1013.37 493.48 1012.05 493.48ZM1026.68 499.06C1026.8 500.14 1027.22 500.98 1027.94 501.58C1028.66 502.18 1029.53 502.48 1030.55 502.48C1031.45 502.48 1032.2 502.3 1032.8 501.94C1033.42 501.56 1033.96 501.09 1034.42 500.53L1037 502.48C1036.16 503.52 1035.22 504.26 1034.18 504.7C1033.14 505.14 1032.05 505.36 1030.91 505.36C1029.83 505.36 1028.81 505.18 1027.85 504.82C1026.89 504.46 1026.06 503.95 1025.36 503.29C1024.66 502.63 1024.1 501.84 1023.68 500.92C1023.28 499.98 1023.08 498.94 1023.08 497.8C1023.08 496.66 1023.28 495.63 1023.68 494.71C1024.1 493.77 1024.66 492.97 1025.36 492.31C1026.06 491.65 1026.89 491.14 1027.85 490.78C1028.81 490.42 1029.83 490.24 1030.91 490.24C1031.91 490.24 1032.82 490.42 1033.64 490.78C1034.48 491.12 1035.19 491.62 1035.77 492.28C1036.37 492.94 1036.83 493.76 1037.15 494.74C1037.49 495.7 1037.66 496.81 1037.66 498.07V499.06H1026.68ZM1034.06 496.36C1034.04 495.3 1033.71 494.47 1033.07 493.87C1032.43 493.25 1031.54 492.94 1030.4 492.94C1029.32 492.94 1028.46 493.25 1027.82 493.87C1027.2 494.49 1026.82 495.32 1026.68 496.36H1034.06Z" fill="white"/>
<path d="M775.71 520.84H780.88C781.106 520.841 781.33 520.797 781.54 520.712C781.749 520.626 781.94 520.499 782.1 520.34C782.42 520.015 782.6 519.577 782.6 519.12V512H780.88V519.12H774C774 519.577 774.18 520.015 774.5 520.34C774.822 520.66 775.257 520.839 775.71 520.84Z" fill="white"/>
<path d="M722.88 467H717.71C717.256 467.003 716.821 467.185 716.5 467.507C716.18 467.83 716 468.266 716 468.72V475.84H717.71V468.72H724.6C724.6 468.264 724.419 467.826 724.096 467.504C723.774 467.181 723.336 467 722.88 467Z" fill="white"/>
<path d="M752.21 475.43H771.56C773.07 475.43 773.68 476.24 773.56 478C773.573 478.398 773.434 478.786 773.173 479.086C772.912 479.386 772.546 479.577 772.15 479.62C771.818 479.644 771.483 479.644 771.15 479.62C758.63 479.62 746.104 479.62 733.57 479.62C730.11 479.62 727.65 483.37 728.57 487.27C728.778 488.398 729.331 489.435 730.154 490.236C730.976 491.036 732.027 491.562 733.16 491.74C735.46 491.93 737.78 491.8 740.08 491.74H739.73C741.52 491.74 743.35 491.74 745.15 491.74C745.442 491.694 745.741 491.713 746.024 491.796C746.308 491.879 746.57 492.024 746.79 492.22C747.136 492.73 747.289 493.347 747.22 493.96C747.22 495.25 746.66 495.96 745.56 495.96H733.9C729.45 495.96 725.96 492.78 724.96 487.87C723.72 481.95 727.61 475.62 732.87 475.52C739.33 475.37 745.79 475.52 752.25 475.52L752.21 475.43Z" fill="white"/>
<path d="M770.21 489.62C769.99 489.62 769.78 489.68 769.58 489.68C757.58 489.68 745.58 489.68 733.58 489.68C730.94 489.68 729.31 486.75 730.4 484.04C730.579 483.469 730.915 482.96 731.37 482.571C731.824 482.182 732.379 481.928 732.97 481.84C733.389 481.791 733.809 481.768 734.23 481.77H770.21V489.62Z" fill="white"/>
<path d="M757.14 491.781C759.61 491.781 762.08 491.781 764.56 491.781C769.36 491.691 773.5 496.161 773.56 502.071C773.56 507.821 769.64 512.411 764.56 512.431C756.81 512.431 749.06 512.431 741.3 512.431H726.69C725.21 512.431 724.63 511.661 724.75 509.921C724.728 509.707 724.748 509.491 724.809 509.286C724.871 509.08 724.972 508.889 725.108 508.722C725.244 508.556 725.411 508.418 725.6 508.317C725.789 508.215 725.996 508.152 726.21 508.131C726.47 508.131 726.73 508.131 727 508.131C739.42 508.131 751.84 508.131 764.26 508.131C765.338 508.19 766.407 507.908 767.316 507.325C768.224 506.741 768.926 505.886 769.32 504.881C771.19 500.881 768.71 496.041 764.77 495.981C761.31 495.921 757.84 495.981 754.38 495.981H751.38C751.12 495.981 750.85 495.981 750.59 495.981C749.46 495.911 748.97 495.211 749.01 493.721C749.01 492.431 749.59 491.781 750.69 491.781H757.14Z" fill="white"/>
<path d="M728.02 506.019V498.169C728.32 498.169 728.57 498.109 728.83 498.109H764.59C767.05 498.109 768.59 500.349 768.05 503.039C767.932 503.81 767.566 504.52 767.006 505.062C766.446 505.604 765.723 505.948 764.95 506.039C764.74 506.039 764.53 506.039 764.32 506.039H728.02V506.019Z" fill="white"/>
<path d="M0 329H585V658H20C8.9543 658 0 649.046 0 638V329Z" fill="#1C1C1C"/>
<path d="M226.93 486.27C225.99 484.89 224.62 484.2 222.82 484.2C222.26 484.2 221.71 484.28 221.17 484.44C220.63 484.58 220.14 484.81 219.7 485.13C219.28 485.43 218.94 485.83 218.68 486.33C218.42 486.81 218.29 487.38 218.29 488.04C218.29 489 218.56 489.75 219.1 490.29C219.64 490.81 220.31 491.24 221.11 491.58C221.91 491.92 222.78 492.23 223.72 492.51C224.68 492.77 225.56 493.13 226.36 493.59C227.16 494.03 227.83 494.62 228.37 495.36C228.91 496.1 229.18 497.11 229.18 498.39C229.18 499.35 228.97 500.22 228.55 501C228.15 501.76 227.61 502.4 226.93 502.92C226.27 503.44 225.52 503.84 224.68 504.12C223.86 504.4 223.03 504.54 222.19 504.54C220.89 504.54 219.65 504.3 218.47 503.82C217.31 503.32 216.32 502.51 215.5 501.39L217.45 499.98C217.91 500.76 218.55 501.39 219.37 501.87C220.19 502.33 221.16 502.56 222.28 502.56C222.82 502.56 223.36 502.48 223.9 502.32C224.44 502.14 224.92 501.89 225.34 501.57C225.78 501.23 226.14 500.82 226.42 500.34C226.7 499.86 226.84 499.31 226.84 498.69C226.84 497.95 226.68 497.34 226.36 496.86C226.06 496.36 225.65 495.95 225.13 495.63C224.63 495.29 224.05 495.01 223.39 494.79C222.75 494.57 222.08 494.35 221.38 494.13C220.7 493.91 220.03 493.66 219.37 493.38C218.73 493.1 218.15 492.75 217.63 492.33C217.13 491.89 216.72 491.35 216.4 490.71C216.1 490.05 215.95 489.23 215.95 488.25C215.95 487.23 216.14 486.34 216.52 485.58C216.92 484.82 217.44 484.19 218.08 483.69C218.74 483.19 219.48 482.82 220.3 482.58C221.12 482.34 221.96 482.22 222.82 482.22C224.02 482.22 225.11 482.41 226.09 482.79C227.07 483.17 227.98 483.84 228.82 484.8L226.93 486.27ZM240.09 491.76H236.04V500.04C236.04 500.56 236.09 500.99 236.19 501.33C236.29 501.65 236.43 501.9 236.61 502.08C236.79 502.26 237 502.39 237.24 502.47C237.5 502.53 237.78 502.56 238.08 502.56C238.42 502.56 238.77 502.51 239.13 502.41C239.49 502.31 239.82 502.18 240.12 502.02L240.21 503.85C239.47 504.19 238.58 504.36 237.54 504.36C237.16 504.36 236.76 504.31 236.34 504.21C235.94 504.11 235.57 503.92 235.23 503.64C234.89 503.36 234.61 502.98 234.39 502.5C234.17 502.02 234.06 501.39 234.06 500.61V491.76H231.09V489.96H234.06V486H236.04V489.96H240.09V491.76ZM254.821 496.98C254.821 496.2 254.691 495.47 254.431 494.79C254.191 494.11 253.841 493.52 253.381 493.02C252.921 492.52 252.361 492.13 251.701 491.85C251.061 491.55 250.331 491.4 249.511 491.4C248.691 491.4 247.951 491.55 247.291 491.85C246.651 492.13 246.101 492.52 245.641 493.02C245.201 493.52 244.851 494.11 244.591 494.79C244.351 495.47 244.231 496.2 244.231 496.98C244.231 497.76 244.351 498.49 244.591 499.17C244.851 499.85 245.201 500.44 245.641 500.94C246.101 501.44 246.651 501.84 247.291 502.14C247.951 502.42 248.691 502.56 249.511 502.56C250.331 502.56 251.061 502.42 251.701 502.14C252.361 501.84 252.921 501.44 253.381 500.94C253.841 500.44 254.191 499.85 254.431 499.17C254.691 498.49 254.821 497.76 254.821 496.98ZM256.981 496.98C256.981 498.04 256.791 499.02 256.411 499.92C256.051 500.82 255.541 501.6 254.881 502.26C254.221 502.92 253.431 503.44 252.511 503.82C251.611 504.18 250.611 504.36 249.511 504.36C248.431 504.36 247.431 504.18 246.511 503.82C245.611 503.44 244.831 502.92 244.171 502.26C243.511 501.6 242.991 500.82 242.611 499.92C242.251 499.02 242.071 498.04 242.071 496.98C242.071 495.92 242.251 494.94 242.611 494.04C242.991 493.14 243.511 492.36 244.171 491.7C244.831 491.04 245.611 490.53 246.511 490.17C247.431 489.79 248.431 489.6 249.511 489.6C250.611 489.6 251.611 489.79 252.511 490.17C253.431 490.53 254.221 491.04 254.881 491.7C255.541 492.36 256.051 493.14 256.411 494.04C256.791 494.94 256.981 495.92 256.981 496.98ZM270.804 493.26C270.464 492.74 269.984 492.3 269.364 491.94C268.764 491.58 268.074 491.4 267.294 491.4C266.474 491.38 265.734 491.51 265.074 491.79C264.434 492.07 263.884 492.46 263.424 492.96C262.964 493.46 262.614 494.06 262.374 494.76C262.134 495.44 262.014 496.18 262.014 496.98C262.014 497.78 262.134 498.53 262.374 499.23C262.614 499.91 262.964 500.5 263.424 501C263.884 501.5 264.434 501.89 265.074 502.17C265.734 502.45 266.474 502.58 267.294 502.56C268.074 502.56 268.764 502.38 269.364 502.02C269.984 501.66 270.464 501.22 270.804 500.7L272.424 501.93C271.724 502.75 270.934 503.36 270.054 503.76C269.174 504.14 268.254 504.34 267.294 504.36C266.154 504.38 265.124 504.21 264.204 503.85C263.284 503.47 262.494 502.95 261.834 502.29C261.194 501.63 260.704 500.85 260.364 499.95C260.024 499.03 259.854 498.04 259.854 496.98C259.854 495.92 260.024 494.94 260.364 494.04C260.704 493.12 261.194 492.33 261.834 491.67C262.494 491.01 263.284 490.5 264.204 490.14C265.124 489.76 266.154 489.58 267.294 489.6C268.254 489.62 269.174 489.83 270.054 490.23C270.934 490.61 271.724 491.21 272.424 492.03L270.804 493.26ZM277.027 496.29L283.657 489.96H286.627L279.637 496.38L287.377 504H284.317L277.027 496.62V504H275.047V481.32H277.027V496.29Z" fill="white"/>
<path d="M296.37 482.76H300.15V491.76H300.33L309.12 482.76H314.22L304.29 492.57L314.88 504H309.57L300.36 493.56H300.15V504H296.37V482.76ZM316.577 489.6H319.997V491.91H320.057C320.397 491.19 320.917 490.57 321.617 490.05C322.317 489.51 323.267 489.24 324.467 489.24C325.427 489.24 326.237 489.4 326.897 489.72C327.577 490.04 328.127 490.46 328.547 490.98C328.967 491.5 329.267 492.1 329.447 492.78C329.627 493.46 329.717 494.17 329.717 494.91V504H326.117V496.71C326.117 496.31 326.097 495.87 326.057 495.39C326.017 494.89 325.907 494.43 325.727 494.01C325.567 493.57 325.307 493.21 324.947 492.93C324.587 492.63 324.097 492.48 323.477 492.48C322.877 492.48 322.367 492.58 321.947 492.78C321.547 492.98 321.207 493.25 320.927 493.59C320.667 493.93 320.477 494.32 320.357 494.76C320.237 495.2 320.177 495.66 320.177 496.14V504H316.577V489.6ZM333.084 496.8C333.084 495.66 333.284 494.63 333.684 493.71C334.104 492.77 334.664 491.97 335.364 491.31C336.064 490.65 336.894 490.14 337.854 489.78C338.814 489.42 339.834 489.24 340.914 489.24C341.994 489.24 343.014 489.42 343.974 489.78C344.934 490.14 345.764 490.65 346.464 491.31C347.164 491.97 347.714 492.77 348.114 493.71C348.534 494.63 348.744 495.66 348.744 496.8C348.744 497.94 348.534 498.98 348.114 499.92C347.714 500.84 347.164 501.63 346.464 502.29C345.764 502.95 344.934 503.46 343.974 503.82C343.014 504.18 341.994 504.36 340.914 504.36C339.834 504.36 338.814 504.18 337.854 503.82C336.894 503.46 336.064 502.95 335.364 502.29C334.664 501.63 334.104 500.84 333.684 499.92C333.284 498.98 333.084 497.94 333.084 496.8ZM336.684 496.8C336.684 497.36 336.774 497.9 336.954 498.42C337.154 498.94 337.434 499.4 337.794 499.8C338.174 500.2 338.624 500.52 339.144 500.76C339.664 501 340.254 501.12 340.914 501.12C341.574 501.12 342.164 501 342.684 500.76C343.204 500.52 343.644 500.2 344.004 499.8C344.384 499.4 344.664 498.94 344.844 498.42C345.044 497.9 345.144 497.36 345.144 496.8C345.144 496.24 345.044 495.7 344.844 495.18C344.664 494.66 344.384 494.2 344.004 493.8C343.644 493.4 343.204 493.08 342.684 492.84C342.164 492.6 341.574 492.48 340.914 492.48C340.254 492.48 339.664 492.6 339.144 492.84C338.624 493.08 338.174 493.4 337.794 493.8C337.434 494.2 337.154 494.66 336.954 495.18C336.774 495.7 336.684 496.24 336.684 496.8ZM350.164 489.6H354.064L357.184 499.68H357.244L360.154 489.6H364.054L367.174 499.68H367.234L370.234 489.6H373.864L368.974 504H365.404L361.984 494.16H361.924L358.894 504H355.174L350.164 489.6ZM376.051 481.32H379.651V504H376.051V481.32ZM386.664 498.06C386.784 499.14 387.204 499.98 387.924 500.58C388.644 501.18 389.514 501.48 390.534 501.48C391.434 501.48 392.184 501.3 392.784 500.94C393.404 500.56 393.944 500.09 394.404 499.53L396.984 501.48C396.144 502.52 395.204 503.26 394.164 503.7C393.124 504.14 392.034 504.36 390.894 504.36C389.814 504.36 388.794 504.18 387.834 503.82C386.874 503.46 386.044 502.95 385.344 502.29C384.644 501.63 384.084 500.84 383.664 499.92C383.264 498.98 383.064 497.94 383.064 496.8C383.064 495.66 383.264 494.63 383.664 493.71C384.084 492.77 384.644 491.97 385.344 491.31C386.044 490.65 386.874 490.14 387.834 489.78C388.794 489.42 389.814 489.24 390.894 489.24C391.894 489.24 392.804 489.42 393.624 489.78C394.464 490.12 395.174 490.62 395.754 491.28C396.354 491.94 396.814 492.76 397.134 493.74C397.474 494.7 397.644 495.81 397.644 497.07V498.06H386.664ZM394.044 495.36C394.024 494.3 393.694 493.47 393.054 492.87C392.414 492.25 391.524 491.94 390.384 491.94C389.304 491.94 388.444 492.25 387.804 492.87C387.184 493.49 386.804 494.32 386.664 495.36H394.044ZM412.411 501.84H412.351C411.831 502.72 411.131 503.36 410.251 503.76C409.371 504.16 408.421 504.36 407.401 504.36C406.281 504.36 405.281 504.17 404.401 503.79C403.541 503.39 402.801 502.85 402.181 502.17C401.561 501.49 401.091 500.69 400.771 499.77C400.451 498.85 400.291 497.86 400.291 496.8C400.291 495.74 400.461 494.75 400.801 493.83C401.141 492.91 401.611 492.11 402.211 491.43C402.831 490.75 403.571 490.22 404.431 489.84C405.291 489.44 406.231 489.24 407.251 489.24C407.931 489.24 408.531 489.31 409.051 489.45C409.571 489.59 410.031 489.77 410.431 489.99C410.831 490.21 411.171 490.45 411.451 490.71C411.731 490.95 411.961 491.19 412.141 491.43H412.231V481.32H415.831V504H412.411V501.84ZM403.891 496.8C403.891 497.36 403.981 497.9 404.161 498.42C404.361 498.94 404.641 499.4 405.001 499.8C405.381 500.2 405.831 500.52 406.351 500.76C406.871 501 407.461 501.12 408.121 501.12C408.781 501.12 409.371 501 409.891 500.76C410.411 500.52 410.851 500.2 411.211 499.8C411.591 499.4 411.871 498.94 412.051 498.42C412.251 497.9 412.351 497.36 412.351 496.8C412.351 496.24 412.251 495.7 412.051 495.18C411.871 494.66 411.591 494.2 411.211 493.8C410.851 493.4 410.411 493.08 409.891 492.84C409.371 492.6 408.781 492.48 408.121 492.48C407.461 492.48 406.871 492.6 406.351 492.84C405.831 493.08 405.381 493.4 405.001 493.8C404.641 494.2 404.361 494.66 404.161 495.18C403.981 495.7 403.891 496.24 403.891 496.8ZM434.727 489.6V502.71C434.727 504.01 434.567 505.18 434.247 506.22C433.927 507.28 433.427 508.17 432.747 508.89C432.087 509.63 431.247 510.2 430.227 510.6C429.207 511 427.997 511.2 426.597 511.2C425.257 511.2 423.987 511.03 422.787 510.69C421.587 510.35 420.477 509.73 419.457 508.83L421.617 505.89C422.337 506.55 423.087 507.06 423.867 507.42C424.647 507.78 425.547 507.96 426.567 507.96C427.427 507.96 428.147 507.84 428.727 507.6C429.327 507.36 429.797 507.03 430.137 506.61C430.497 506.19 430.747 505.68 430.887 505.08C431.047 504.5 431.127 503.85 431.127 503.13V502.08H431.067C430.547 502.78 429.857 503.31 428.997 503.67C428.137 504.01 427.257 504.18 426.357 504.18C425.277 504.18 424.297 503.99 423.417 503.61C422.537 503.21 421.777 502.68 421.137 502.02C420.517 501.36 420.037 500.58 419.697 499.68C419.357 498.78 419.187 497.82 419.187 496.8C419.187 495.74 419.347 494.75 419.667 493.83C419.987 492.91 420.457 492.11 421.077 491.43C421.697 490.75 422.437 490.22 423.297 489.84C424.177 489.44 425.177 489.24 426.297 489.24C427.317 489.24 428.267 489.44 429.147 489.84C430.027 490.24 430.727 490.88 431.247 491.76H431.307V489.6H434.727ZM427.047 492.48C426.407 492.48 425.827 492.59 425.307 492.81C424.787 493.01 424.337 493.3 423.957 493.68C423.597 494.04 423.307 494.49 423.087 495.03C422.887 495.55 422.787 496.13 422.787 496.77C422.787 497.35 422.887 497.89 423.087 498.39C423.307 498.89 423.607 499.33 423.987 499.71C424.367 500.09 424.817 500.39 425.337 500.61C425.857 500.83 426.417 500.94 427.017 500.94C427.677 500.94 428.267 500.83 428.787 500.61C429.327 500.39 429.777 500.1 430.137 499.74C430.517 499.36 430.807 498.91 431.007 498.39C431.207 497.87 431.307 497.31 431.307 496.71C431.307 495.45 430.927 494.43 430.167 493.65C429.407 492.87 428.367 492.48 427.047 492.48ZM441.684 498.06C441.804 499.14 442.224 499.98 442.944 500.58C443.664 501.18 444.534 501.48 445.554 501.48C446.454 501.48 447.204 501.3 447.804 500.94C448.424 500.56 448.964 500.09 449.424 499.53L452.004 501.48C451.164 502.52 450.224 503.26 449.184 503.7C448.144 504.14 447.054 504.36 445.914 504.36C444.834 504.36 443.814 504.18 442.854 503.82C441.894 503.46 441.064 502.95 440.364 502.29C439.664 501.63 439.104 500.84 438.684 499.92C438.284 498.98 438.084 497.94 438.084 496.8C438.084 495.66 438.284 494.63 438.684 493.71C439.104 492.77 439.664 491.97 440.364 491.31C441.064 490.65 441.894 490.14 442.854 489.78C443.814 489.42 444.834 489.24 445.914 489.24C446.914 489.24 447.824 489.42 448.644 489.78C449.484 490.12 450.194 490.62 450.774 491.28C451.374 491.94 451.834 492.76 452.154 493.74C452.494 494.7 452.664 495.81 452.664 497.07V498.06H441.684ZM449.064 495.36C449.044 494.3 448.714 493.47 448.074 492.87C447.434 492.25 446.544 491.94 445.404 491.94C444.324 491.94 443.464 492.25 442.824 492.87C442.204 493.49 441.824 494.32 441.684 495.36H449.064Z" fill="#0080F6"/>
<path d="M190.71 519.84H195.88C196.106 519.841 196.33 519.797 196.54 519.712C196.749 519.626 196.94 519.499 197.1 519.34C197.42 519.015 197.6 518.577 197.6 518.12V511H195.88V518.12H189C189 518.577 189.18 519.015 189.5 519.34C189.822 519.66 190.257 519.839 190.71 519.84Z" fill="#0080F6"/>
<path d="M137.88 466H132.71C132.256 466.003 131.821 466.185 131.5 466.507C131.18 466.83 131 467.266 131 467.72V474.84H132.71V467.72H139.6C139.6 467.264 139.419 466.826 139.096 466.504C138.774 466.181 138.336 466 137.88 466Z" fill="#0080F6"/>
<path d="M167.21 474.43H186.56C188.07 474.43 188.68 475.24 188.56 477C188.573 477.398 188.434 477.786 188.173 478.086C187.912 478.386 187.546 478.577 187.15 478.62C186.818 478.644 186.483 478.644 186.15 478.62C173.63 478.62 161.104 478.62 148.57 478.62C145.11 478.62 142.65 482.37 143.57 486.27C143.778 487.398 144.331 488.435 145.154 489.236C145.976 490.036 147.027 490.562 148.16 490.74C150.46 490.93 152.78 490.8 155.08 490.74H154.73C156.52 490.74 158.35 490.74 160.15 490.74C160.442 490.694 160.741 490.713 161.024 490.796C161.308 490.879 161.57 491.024 161.79 491.22C162.136 491.73 162.289 492.347 162.22 492.96C162.22 494.25 161.66 494.96 160.56 494.96H148.9C144.45 494.96 140.96 491.78 139.96 486.87C138.72 480.95 142.61 474.62 147.87 474.52C154.33 474.37 160.79 474.52 167.25 474.52L167.21 474.43Z" fill="#0080F6"/>
<path d="M185.21 488.62C184.99 488.62 184.78 488.68 184.58 488.68C172.58 488.68 160.58 488.68 148.58 488.68C145.94 488.68 144.31 485.75 145.4 483.04C145.579 482.469 145.915 481.96 146.37 481.571C146.824 481.182 147.379 480.928 147.97 480.84C148.389 480.791 148.809 480.768 149.23 480.77H185.21V488.62Z" fill="#EFA422"/>
<path d="M172.14 490.781C174.61 490.781 177.08 490.781 179.56 490.781C184.36 490.691 188.5 495.161 188.56 501.071C188.56 506.821 184.64 511.411 179.56 511.431C171.81 511.431 164.06 511.431 156.3 511.431H141.69C140.21 511.431 139.63 510.661 139.75 508.921C139.728 508.707 139.748 508.491 139.809 508.286C139.871 508.08 139.972 507.889 140.108 507.722C140.244 507.556 140.411 507.418 140.6 507.317C140.789 507.215 140.996 507.152 141.21 507.131C141.47 507.131 141.73 507.131 142 507.131C154.42 507.131 166.84 507.131 179.26 507.131C180.338 507.19 181.407 506.908 182.316 506.325C183.224 505.741 183.926 504.886 184.32 503.881C186.19 499.881 183.71 495.041 179.77 494.981C176.31 494.921 172.84 494.981 169.38 494.981H166.38C166.12 494.981 165.85 494.981 165.59 494.981C164.46 494.911 163.97 494.211 164.01 492.721C164.01 491.431 164.59 490.781 165.69 490.781H172.14Z" fill="#DB3127"/>
<path d="M143.02 505.019V497.169C143.32 497.169 143.57 497.109 143.83 497.109H179.59C182.05 497.109 183.59 499.349 183.05 502.039C182.932 502.81 182.566 503.52 182.006 504.062C181.446 504.604 180.723 504.948 179.95 505.039C179.74 505.039 179.53 505.039 179.32 505.039H143.02V505.019Z" fill="#64BC4B"/>
</svg>
